<svg width="50" height="50" viewBox="0 0 50 50" fill="none" xmlns="http://www.w3.org/2000/svg">
<g clip-path="url(#clip0)">
<path d="M41.2136 26.4663V29.4841L32.4825 30.8612L29.4941 38.1859H1.46484C0.644303 38.1859 0 37.5412 0 36.721V26.4663L2.92969 23.5363H38.2836L41.2136 26.4663Z" fill="#5A5D9D"/>
<path d="M41.2144 26.4663V29.4841L32.4834 30.8612L29.4949 38.1859H20.6074V23.5363H38.2844L41.2144 26.4663Z" fill="#5A5D9D"/>
<path d="M41.2136 14.7467V26.4662H0V14.7467L2.92969 11.8167H38.2836L41.2136 14.7467Z" fill="#888BBD"/>
<path d="M41.2144 14.7467V26.4662H20.6074V11.8167H38.2844L41.2144 14.7467Z" fill="#5A5D9D"/>
<path d="M41.2136 4.49231V14.747H0V4.49231C0 3.67177 0.644303 3.02747 1.46484 3.02747H39.7488C40.5693 3.02747 41.2136 3.67177 41.2136 4.49231Z" fill="#5A5D9D"/>
<path d="M41.2144 4.49231V14.747H20.6074V3.02747H39.7496C40.5701 3.02747 41.2144 3.67177 41.2144 4.49231Z" fill="#5A5D9D"/>
<path d="M8.78906 32.3262C8.78906 33.1353 8.13331 33.791 7.32422 33.791C6.51512 33.791 5.85938 33.1353 5.85938 32.3262C5.85938 31.5171 6.51512 30.8613 7.32422 30.8613C8.13331 30.8613 8.78906 31.5171 8.78906 32.3262Z" fill="#61BDF6"/>
<path d="M14.6484 32.3262C14.6484 33.1353 13.9927 33.791 13.1836 33.791C12.3745 33.791 11.7188 33.1353 11.7188 32.3262C11.7188 31.5171 12.3745 30.8613 13.1836 30.8613C13.9927 30.8613 14.6484 31.5171 14.6484 32.3262Z" fill="#61BDF6"/>
<path d="M8.78906 20.6066C8.78906 21.4157 8.13331 22.0714 7.32422 22.0714C6.51512 22.0714 5.85938 21.4157 5.85938 20.6066C5.85938 19.7975 6.51512 19.1417 7.32422 19.1417C8.13331 19.1417 8.78906 19.7975 8.78906 20.6066Z" fill="#61BDF6"/>
<path d="M14.6484 20.6066C14.6484 21.4157 13.9927 22.0714 13.1836 22.0714C12.3745 22.0714 11.7188 21.4157 11.7188 20.6066C11.7188 19.7975 12.3745 19.1417 13.1836 19.1417C13.9927 19.1417 14.6484 19.7975 14.6484 20.6066Z" fill="#61BDF6"/>
<path d="M8.78906 8.88696C8.78906 9.69606 8.13331 10.3518 7.32422 10.3518C6.51512 10.3518 5.85938 9.69606 5.85938 8.88696C5.85938 8.07787 6.51512 7.42212 7.32422 7.42212C8.13331 7.42212 8.78906 8.07787 8.78906 8.88696Z" fill="#61BDF6"/>
<path d="M14.6484 8.88696C14.6484 9.69606 13.9927 10.3518 13.1836 10.3518C12.3745 10.3518 11.7188 9.69606 11.7188 8.88696C11.7188 8.07787 12.3745 7.42212 13.1836 7.42212C13.9927 7.42212 14.6484 8.07787 14.6484 8.88696Z" fill="#61BDF6"/>
<path d="M49.2716 38.2152L46.9278 36.8675C47.0155 36.3399 47.0743 35.8127 47.0743 35.2558C47.0743 34.6992 47.0155 34.172 46.9278 33.6444L49.2716 32.2967C49.975 31.8866 50.2092 31.0073 49.7991 30.3043L48.3343 27.7553C47.9238 27.0523 47.0449 26.8177 46.3419 27.2281L43.9687 28.6048C43.1482 27.9018 42.2399 27.3746 41.2145 26.9935V25.0011C41.2145 24.1806 40.5702 23.5363 39.7497 23.5363H36.8196C35.9991 23.5363 35.3548 24.1806 35.3548 25.0011V26.9935C34.3294 27.3742 33.4211 27.9018 32.6005 28.6048L30.2274 27.2281C29.5244 26.8177 28.6455 27.0523 28.235 27.7553L26.7702 30.3043C26.3601 31.0073 26.5943 31.8863 27.2977 32.2967L29.6415 33.6444C29.5537 34.172 29.495 34.6992 29.495 35.2558C29.495 35.8127 29.5537 36.3399 29.6415 36.8675L27.2977 38.2152C26.5943 38.6253 26.3601 39.5042 26.7702 40.2076L28.235 42.7566C28.6455 43.4597 29.5244 43.6939 30.2274 43.2838L32.6005 41.9067C33.4211 42.6101 34.3294 43.1373 35.3548 43.5184V45.5105C35.3548 46.331 35.9991 46.9757 36.8196 46.9757H39.7497C40.5702 46.9757 41.2145 46.331 41.2145 45.5105V43.5184C42.2399 43.1373 43.1482 42.6101 43.9687 41.9067L46.3419 43.2838C47.0449 43.6939 47.9238 43.4597 48.3343 42.7566L49.7991 40.2076C50.2092 39.5042 49.975 38.6253 49.2716 38.2152ZM38.2845 39.6507C35.8526 39.6507 33.8899 37.6876 33.8899 35.2558C33.8899 32.8239 35.8526 30.8612 38.2845 30.8612C40.7167 30.8612 42.6794 32.8239 42.6794 35.2558C42.6794 37.6876 40.7167 39.6507 38.2845 39.6507Z" fill="#6BC5D2"/>
<path d="M49.7979 40.2073L48.333 42.7562C47.9226 43.4597 47.0437 43.6939 46.3406 43.2838L43.9675 41.9067C43.1469 42.6101 42.2387 43.1373 41.2133 43.518V45.5105C41.2133 46.3306 40.569 46.9753 39.7484 46.9753H38.2832V39.6507C40.7155 39.6507 42.6781 37.6876 42.6781 35.2558C42.6781 32.8239 40.7155 30.8612 38.2832 30.8612V23.5363H39.7484C40.569 23.5363 41.2133 24.1809 41.2133 25.0015V26.9935C42.2387 27.3746 43.1469 27.9018 43.9675 28.6052L46.3406 27.2281C47.0437 26.818 47.9226 27.0523 48.333 27.7557L49.7979 30.3047C50.208 31.0077 49.9737 31.8866 49.2703 32.2967L46.9265 33.6448C47.0143 34.172 47.073 34.6996 47.073 35.2562C47.073 35.8127 47.0143 36.3403 46.9265 36.8675L49.2703 38.2152C49.9737 38.6253 50.208 39.5042 49.7979 40.2073Z" fill="#6BC5D2"/>
</g>
<defs>
<clipPath id="clip0">
<rect width="50" height="50" fill="white"/>
</clipPath>
</defs>
</svg>
