<svg width="50" height="50" viewBox="0 0 50 50" fill="none" xmlns="http://www.w3.org/2000/svg">
<path d="M5.85938 10.3516H35.3516V19.1406H5.85938V10.3516Z" fill="#5A5D9D"/>
<path d="M20.6055 10.3516H35.3516V19.1406H20.6055V10.3516Z" fill="#2C3B73"/>
<path d="M5.85938 25H35.3516V33.7891H5.85938V25Z" fill="#5A5D9D"/>
<path d="M20.6055 25H35.3516V33.7891H20.6055V25Z" fill="#2C3B73"/>
<path d="M39.7461 1.5625H1.46484C0.644302 1.5625 0 2.2068 0 3.02734V11.8164C0 12.6366 0.644302 13.2812 1.46484 13.2812H39.7461C40.5666 13.2812 41.2109 12.6366 41.2109 11.8164V3.02734C41.2109 2.2068 40.5666 1.5625 39.7461 1.5625Z" fill="#888BBD"/>
<path d="M41.2109 3.02734V11.8164C41.2109 12.6366 40.5666 13.2812 39.7461 13.2812H20.6055V1.5625H39.7461C40.5666 1.5625 41.2109 2.2068 41.2109 3.02734Z" fill="#5A5D9D"/>
<path d="M8.78906 7.42188C8.78906 8.23097 8.13332 8.88672 7.32422 8.88672C6.51512 8.88672 5.85938 8.23097 5.85938 7.42188C5.85938 6.61278 6.51512 5.95703 7.32422 5.95703C8.13332 5.95703 8.78906 6.61278 8.78906 7.42188Z" fill="#61BDF6"/>
<path d="M14.6484 7.42188C14.6484 8.23097 13.9927 8.88672 13.1836 8.88672C12.3745 8.88672 11.7188 8.23097 11.7188 7.42188C11.7188 6.61278 12.3745 5.95703 13.1836 5.95703C13.9927 5.95703 14.6484 6.61278 14.6484 7.42188Z" fill="#61BDF6"/>
<path d="M39.7461 16.2109H1.46484C0.644302 16.2109 0 16.8552 0 17.6758V26.4648C0 27.285 0.644302 27.9297 1.46484 27.9297H39.7461C40.5666 27.9297 41.2109 27.285 41.2109 26.4648V17.6758C41.2109 16.8552 40.5666 16.2109 39.7461 16.2109Z" fill="#888BBD"/>
<path d="M41.2109 17.6758V26.4648C41.2109 27.285 40.5666 27.9297 39.7461 27.9297H20.6055V16.2109H39.7461C40.5666 16.2109 41.2109 16.8552 41.2109 17.6758Z" fill="#5A5D9D"/>
<path d="M8.78906 22.0703C8.78906 22.8794 8.13332 23.5352 7.32422 23.5352C6.51512 23.5352 5.85938 22.8794 5.85938 22.0703C5.85938 21.2612 6.51512 20.6055 7.32422 20.6055C8.13332 20.6055 8.78906 21.2612 8.78906 22.0703Z" fill="#61BDF6"/>
<path d="M14.6484 22.0703C14.6484 22.8794 13.9927 23.5352 13.1836 23.5352C12.3745 23.5352 11.7188 22.8794 11.7188 22.0703C11.7188 21.2612 12.3745 20.6055 13.1836 20.6055C13.9927 20.6055 14.6484 21.2612 14.6484 22.0703Z" fill="#61BDF6"/>
<path d="M39.7461 30.8594H1.46484C0.644302 30.8594 0 31.5037 0 32.3242V41.1133C0 41.9334 0.644302 42.5781 1.46484 42.5781H39.7461C40.5666 42.5781 41.2109 41.9334 41.2109 41.1133V32.3242C41.2109 31.5037 40.5666 30.8594 39.7461 30.8594Z" fill="#888BBD"/>
<path d="M41.2109 32.3242V41.1133C41.2109 41.9334 40.5666 42.5781 39.7461 42.5781H20.6055V30.8594H39.7461C40.5666 30.8594 41.2109 31.5037 41.2109 32.3242Z" fill="#5A5D9D"/>
<path d="M8.78906 36.7188C8.78906 37.5278 8.13332 38.1836 7.32422 38.1836C6.51512 38.1836 5.85938 37.5278 5.85938 36.7188C5.85938 35.9097 6.51512 35.2539 7.32422 35.2539C8.13332 35.2539 8.78906 35.9097 8.78906 36.7188Z" fill="#61BDF6"/>
<path d="M14.6484 36.7188C14.6484 37.5278 13.9927 38.1836 13.1836 38.1836C12.3745 38.1836 11.7188 37.5278 11.7188 36.7188C11.7188 35.9097 12.3745 35.2539 13.1836 35.2539C13.9927 35.2539 14.6484 35.9097 14.6484 36.7188Z" fill="#61BDF6"/>
<path d="M36.8164 22.0703C29.5509 22.0703 23.6328 27.9881 23.6328 35.2539C23.6328 42.5194 29.5509 48.4375 36.8164 48.4375C44.0819 48.4375 50 42.5194 50 35.2539C50 27.9881 44.0819 22.0703 36.8164 22.0703Z" fill="#61BDF6"/>
<path d="M50 35.2539C50 42.5194 44.0819 48.4375 36.8164 48.4375V22.0703C44.0819 22.0703 50 27.9881 50 35.2539Z" fill="#61BDF6"/>
<path d="M36.8164 45.5078C31.1623 45.5078 26.5625 40.9081 26.5625 35.2539C26.5625 29.5998 31.1623 25 36.8164 25C42.4706 25 47.0703 29.5998 47.0703 35.2539C47.0703 40.9081 42.4706 45.5078 36.8164 45.5078Z" fill="#E0F4FF"/>
<path d="M47.0703 35.2539C47.0703 29.5998 42.4706 25 36.8164 25V45.5078C42.4706 45.5078 47.0703 40.9081 47.0703 35.2539Z" fill="#E0F4FF"/>
<path d="M44.1406 35.2539C44.1406 36.0741 43.4963 36.7188 42.6758 36.7188H36.8164C35.9959 36.7188 35.3516 36.0741 35.3516 35.2539V29.3945C35.3516 28.574 35.9959 27.9297 36.8164 27.9297C37.6369 27.9297 38.2812 28.574 38.2812 29.3945V33.7891H42.6758C43.4963 33.7891 44.1406 34.4334 44.1406 35.2539Z" fill="#5A5D9D"/>
<path d="M44.1406 35.2539C44.1406 36.0741 43.4963 36.7188 42.6758 36.7188H36.8164V27.9297C37.6369 27.9297 38.2812 28.574 38.2812 29.3945V33.7891H42.6758C43.4963 33.7891 44.1406 34.4334 44.1406 35.2539Z" fill="#5A5D9D"/>
</svg>
