<svg width="50" height="49" viewBox="0 0 50 49" fill="none" xmlns="http://www.w3.org/2000/svg">
<g clip-path="url(#clip0)">
<path d="M32.639 27.6572C33.6523 27.1775 34.6247 26.65 35.5458 26.0644C35.5781 26.0432 35.6109 26.0245 35.6431 26.0033C35.2674 26.9581 35.4512 28.6325 35.4555 28.6253C36.048 26.8897 36.7812 25.3625 37.8927 24.3917C38.3168 24.7713 38.6388 25.4832 38.9034 26.3858C39.0343 25.1433 38.8105 24.4492 38.7008 24.1958C39.2466 24.8432 40.2375 25.2046 41.303 25.5188C40.1057 24.792 39.3134 24.0749 39.0028 23.3711C42.4184 22.3202 46.1173 21.0632 50.0008 19.6698C49.6962 19.4402 49.3689 19.4113 49.0287 19.5112C48.3276 19.7663 43.7177 21.4268 37.4467 23.3234C37.2686 23.3773 37.0889 23.431 36.9083 23.4853C36.858 23.5007 36.807 23.5152 36.7576 23.5299C36.0989 23.7275 35.4243 23.9258 34.7345 24.1259C34.5773 24.1711 34.4201 24.2163 34.2621 24.2621C34.2588 24.2632 34.2555 24.2643 34.253 24.2647L32.5273 27.7115C32.5629 27.6947 32.602 27.6753 32.6394 27.6572L32.639 27.6572Z" fill="url(#paint0_linear)"/>
<path d="M0.960412 31.3526C1.91396 31.7124 2.94081 31.8069 3.94706 31.9163C4.53976 31.9725 5.13396 32.012 5.72856 32.041C6.13702 31.1858 6.54546 30.3306 6.95396 29.4754C5.37941 29.5182 3.79961 29.4842 2.23431 29.2984C3.78146 29.4536 5.34116 29.3909 6.89076 29.3069C5.77226 27.9735 4.54531 26.7355 3.29426 25.5275C2.11831 26.1195 0.979712 26.945 0.362562 28.1397C0.0475573 28.867 -0.134978 29.7164 0.121512 30.4888C0.259322 30.8835 0.574762 31.1968 0.960162 31.3526L0.960412 31.3526Z" fill="url(#paint1_linear)"/>
<path d="M20.5703 22.3781C20.6962 22.4961 20.8244 22.6191 20.9562 22.745C20.9568 22.7459 20.9584 22.7461 20.959 22.747C20.8946 22.6823 20.8308 22.6184 20.7659 22.5568C20.701 22.4952 20.6365 22.436 20.5703 22.3781H20.5703Z" fill="#BE202E"/>
<path opacity="0.35" d="M20.5703 22.3781C20.6962 22.4961 20.8244 22.6191 20.9562 22.745C20.9568 22.7459 20.9584 22.7461 20.959 22.747C20.8946 22.6823 20.8308 22.6184 20.7659 22.5568C20.701 22.4952 20.6365 22.436 20.5703 22.3781H20.5703Z" fill="#BE202E"/>
<path d="M18.5421 23.3285C18.5421 23.3285 18.5427 23.3294 18.5436 23.3287C18.5442 23.3296 18.5452 23.3289 18.5458 23.3298C18.5261 23.3088 18.5053 23.2899 18.4862 23.2698C18.4053 23.1885 18.3231 23.1109 18.2402 23.0379C18.3387 23.1337 18.4402 23.2299 18.5421 23.3285L18.5421 23.3285Z" fill="#BE202E"/>
<path opacity="0.35" d="M18.5421 23.3285C18.5421 23.3285 18.5427 23.3294 18.5436 23.3287C18.5442 23.3296 18.5452 23.3289 18.5458 23.3298C18.5261 23.3088 18.5053 23.2899 18.4862 23.2698C18.4053 23.1885 18.3231 23.1109 18.2402 23.0379C18.3387 23.1337 18.4402 23.2299 18.5421 23.3285L18.5421 23.3285Z" fill="#BE202E"/>
<path d="M14.5041 28.7612C13.656 28.8866 12.8179 28.9977 11.9932 29.0934C11.1371 29.1931 10.2954 29.2753 9.47238 29.3382C9.42453 29.3421 9.37515 29.3458 9.32642 29.3504C8.51552 29.4112 7.72321 29.4526 6.95196 29.4744L5.72656 32.0399C5.88454 32.0476 6.04428 32.054 6.2071 32.0609C6.81965 32.0841 7.4706 32.098 8.15221 32.1016C8.92046 32.1054 9.73021 32.0949 10.5702 32.0715C11.3463 32.0489 12.1503 32.0139 12.9728 31.9651C13.6729 31.9233 14.3886 31.8729 15.1147 31.8105C15.1418 31.8082 15.1681 31.8066 15.1952 31.8043C15.8612 30.6958 16.3397 29.5182 16.9119 28.3752C16.1028 28.5142 15.2999 28.6431 14.5041 28.7612V28.7612Z" fill="url(#paint2_linear)"/>
<path d="M31.7814 24.9612C30.9724 25.1838 30.1512 25.4045 29.3191 25.6236C28.5224 25.8329 27.7168 26.0379 26.9038 26.2401C26.0908 26.4424 25.2723 26.639 24.449 26.8311C23.6118 27.0266 22.7709 27.2152 21.9302 27.3968C21.0986 27.5758 20.2657 27.7475 19.4357 27.9102C19.1363 27.9689 18.8372 28.0261 18.5389 28.0826C18.0227 28.18 17.5087 28.2731 16.9969 28.3617C16.9693 28.3671 16.942 28.3709 16.9138 28.3754L15.1973 31.8045C15.2515 31.8 15.3051 31.7945 15.3593 31.79C16.1288 31.7215 16.9101 31.6429 17.6983 31.5497C18.4944 31.456 19.2965 31.3482 20.1014 31.2275C20.7805 31.1259 21.4595 31.0148 22.1376 30.8934C22.2752 30.8681 22.4105 30.8433 22.5466 30.8179C23.3957 30.6588 24.2013 30.4854 24.9648 30.3034C25.8296 30.097 26.6403 29.8787 27.3953 29.6536C27.8922 29.506 28.366 29.355 28.8168 29.2046C29.1988 29.0723 29.5784 28.9349 29.9523 28.7935C30.835 28.4614 31.6943 28.1014 32.5273 27.7115C33.1093 26.5808 33.7108 25.4321 34.253 24.2647C33.6219 24.4459 32.9796 24.6286 32.328 24.8099C32.1473 24.8603 31.9641 24.911 31.7817 24.9612L31.7814 24.9612Z" fill="url(#paint3_linear)"/>
<path d="M16.9853 27.9866C17.0962 27.9661 17.2081 27.9449 17.3215 27.9239C17.6595 27.8599 18.0032 27.7944 18.3544 27.726C18.7341 27.6516 19.1207 27.5735 19.5156 27.492C19.7146 27.4514 19.9138 27.4093 20.117 27.367C20.7236 27.2397 21.3471 27.1038 21.9883 26.9604C22.7763 26.7836 23.5912 26.595 24.4327 26.3923C25.2348 26.1995 26.0609 25.9944 26.9116 25.7765C27.7189 25.5703 28.5486 25.3516 29.4003 25.1221C30.1602 24.9167 30.9365 24.7019 31.7324 24.4767C31.771 24.4659 31.8097 24.4551 31.8476 24.4434C32.6378 24.2196 33.4462 23.9852 34.2718 23.7407C34.2908 23.7349 34.3098 23.729 34.3279 23.7238L33.3707 22.69C33.3827 22.7155 33.3971 22.7404 33.4091 22.7659C32.2443 21.5445 29.9131 20.502 27.8151 20.266C26.8482 20.1571 25.8154 20.1739 24.6944 20.3123C23.8599 20.4152 22.9768 20.5857 22.0349 20.8232C21.2117 21.0302 20.3442 21.2866 19.4257 21.5945C19.8176 21.7826 20.1996 22.0481 20.5722 22.3768C20.6369 22.4344 20.7029 22.4938 20.7678 22.5555C20.8327 22.6171 20.8974 22.6803 20.9609 22.7456C20.9603 22.7447 20.9587 22.7445 20.9581 22.7436C19.5457 21.847 18.027 21.7467 16.4594 22.0173C16.9291 22.1808 17.6215 22.4987 18.2396 23.0363C18.324 23.1095 18.4054 23.1877 18.4856 23.2681C18.5062 23.2885 18.5261 23.308 18.5452 23.3282C18.5446 23.3273 18.5437 23.328 18.543 23.3271C18.543 23.3271 18.5424 23.3262 18.5415 23.3269C18.0362 23.0266 17.5603 22.8102 17.0833 22.67C16.9814 22.6399 16.8791 22.6129 16.776 22.5905C16.6198 22.5555 16.463 22.5291 16.3044 22.5095C16.2031 22.4968 16.1013 22.4872 15.9982 22.4813C15.757 22.4668 15.5102 22.4687 15.2544 22.4883C15.1763 22.494 15.0981 22.5013 15.018 22.5099C14.9066 22.528 14.7983 22.5466 14.6915 22.5654C14.2093 22.6513 13.7914 22.7444 13.4325 22.8376C13.2531 22.8843 13.0896 22.9301 12.9401 22.9764C12.8807 22.9944 12.8229 23.0126 12.7675 23.0303C12.6019 23.0845 12.4572 23.1355 12.3327 23.184C12.1463 23.2563 12.0042 23.3219 11.9043 23.374C11.9694 23.3916 12.0392 23.4153 12.1126 23.4459C12.6201 23.6567 13.3072 24.1542 13.7922 24.6066L12.913 23.6576L13.7922 24.6066C13.7998 24.6133 13.8066 24.6206 13.8143 24.6273C13.8619 24.6729 13.9092 24.7201 13.9574 24.7667C13.9458 24.7602 13.9355 24.758 13.9247 24.7509L16.9329 27.9954C16.9499 27.9924 16.9669 27.9894 16.9854 27.9867L16.9853 27.9866Z" fill="url(#paint4_linear)"/>
<path d="M6.89076 29.3052C7.60616 29.2618 8.40871 29.199 9.30286 29.1081C9.34916 29.1039 9.39724 29.0984 9.44442 29.0936C10.218 29.0139 11.0588 28.9159 11.9688 28.7926C12.7549 28.6872 13.5908 28.564 14.4811 28.4197C15.2566 28.2946 16.0755 28.1539 16.9332 27.9953L13.9587 24.7669C12.7219 24.0885 11.9177 23.9272 10.9667 23.9395C10.7079 23.9476 10.4405 23.9607 10.1676 23.9792C9.33202 24.0363 8.44412 24.1432 7.58737 24.2845C6.76037 24.4217 5.96562 24.5912 5.27587 24.7802C4.8373 24.901 4.44167 25.0297 4.10927 25.1623C3.81618 25.2795 3.54597 25.4016 3.29492 25.5274C4.54997 26.7299 6.02437 28.2485 6.89147 29.3052L6.89076 29.3052Z" fill="url(#paint5_linear)"/>
<path d="M20.7676 22.5568C20.8325 22.6184 20.8971 22.6816 20.9607 22.747C20.8971 22.6816 20.8325 22.6184 20.7676 22.5568Z" fill="#BE202E"/>
<path opacity="0.35" d="M20.7676 22.5568C20.8325 22.6184 20.8971 22.6816 20.9607 22.747C20.8971 22.6816 20.8325 22.6184 20.7676 22.5568Z" fill="#BE202E"/>
<path d="M20.7676 22.5568C20.8325 22.6184 20.8971 22.6816 20.9607 22.747C20.8971 22.6816 20.8325 22.6184 20.7676 22.5568Z" fill="url(#paint6_linear)"/>
<path d="M18.5459 23.3305C18.5262 23.3095 18.5054 23.2906 18.4863 23.2704C18.5054 23.2906 18.5253 23.3101 18.5459 23.3305Z" fill="#BE202E"/>
<path opacity="0.35" d="M18.5459 23.3305C18.5262 23.3095 18.5054 23.2906 18.4863 23.2704C18.5054 23.2906 18.5253 23.3101 18.5459 23.3305Z" fill="#BE202E"/>
<path d="M18.5459 23.3305C18.5262 23.3095 18.5054 23.2906 18.4863 23.2704C18.5054 23.2906 18.5253 23.3101 18.5459 23.3305Z" fill="url(#paint7_linear)"/>
<path d="M18.5426 23.3286C18.5426 23.3286 18.542 23.3277 18.541 23.3284C18.541 23.3284 18.5416 23.3293 18.5426 23.3286Z" fill="#BE202E"/>
<path opacity="0.35" d="M18.5426 23.3286C18.5426 23.3286 18.542 23.3277 18.541 23.3284C18.541 23.3284 18.5416 23.3293 18.5426 23.3286Z" fill="#BE202E"/>
<path d="M18.5426 23.3286C18.5426 23.3286 18.542 23.3277 18.541 23.3284C18.541 23.3284 18.5416 23.3293 18.5426 23.3286Z" fill="url(#paint8_linear)"/>
<path d="M47.9922 31.0186L47.9923 31.1476L48.2942 31.1474L48.2947 32.0002L48.4346 32.0002L48.4342 31.1473L48.7383 31.1472L48.7382 31.0182L47.9922 31.0186L47.9922 31.0186ZM49.7365 31.0177L49.3997 31.7033L49.06 31.0181L48.8914 31.0182L48.8918 32L49.0208 31.9999L49.0203 31.2208L49.3545 31.8961L49.4438 31.8961L49.7773 31.2205L49.7778 31.9995L49.9067 31.9994L49.9062 31.0176L49.7366 31.0177L49.7365 31.0177Z" fill="#6D6E71"/>
<path d="M34.6899 23.6176C35.3327 23.4263 35.9851 23.2294 36.6495 23.0248C36.6594 23.0216 36.6685 23.019 36.6784 23.0157C36.7725 22.9871 36.8659 22.9577 36.9599 22.9291C37.4074 22.7908 37.8076 22.6627 38.7188 22.3727C38.6017 21.8244 38.8497 21.1302 39.1773 20.4045C38.6235 20.8658 38.2579 21.5086 38.1741 22.2745C36.767 20.1861 34.9654 18.8236 32.8206 19.0187C32.629 19.036 32.4364 19.0649 32.2394 19.1081C33.0613 19.1324 33.6578 19.4762 34.3119 20.4713C34.3141 20.4724 34.3169 20.4744 34.3191 20.4756C34.3169 20.4744 34.3141 20.4724 34.3119 20.4713C32.6404 19.5323 31.5137 19.2744 30.0505 19.3935C29.7037 19.4215 29.338 19.4704 28.9414 19.5368C31.1152 19.8304 32.531 20.9886 33.3707 22.6911L33.4095 22.7658L34.3278 23.7249C34.4488 23.6901 34.5691 23.6544 34.6903 23.618L34.6899 23.6176Z" fill="url(#paint9_linear)"/>
</g>
<defs>
<linearGradient id="paint0_linear" x1="47.1956" y1="23.0517" x2="23.0321" y2="27.9919" gradientUnits="userSpaceOnUse">
<stop stop-color="#282662"/>
<stop offset="0.095484" stop-color="#662E8D"/>
<stop offset="0.7882" stop-color="#9F2064"/>
<stop offset="0.9487" stop-color="#CD2032"/>
</linearGradient>
<linearGradient id="paint1_linear" x1="5.30338" y1="30.9516" x2="-2.68219" y2="24.7334" gradientUnits="userSpaceOnUse">
<stop stop-color="#F69923"/>
<stop offset="0.3123" stop-color="#F79A23"/>
<stop offset="0.8383" stop-color="#E97826"/>
</linearGradient>
<linearGradient id="paint2_linear" x1="53.1687" y1="22.0318" x2="7.18956" y2="31.4321" gradientUnits="userSpaceOnUse">
<stop offset="0.3233" stop-color="#9E2064"/>
<stop offset="0.6302" stop-color="#C92037"/>
<stop offset="0.7514" stop-color="#CD2335"/>
<stop offset="1" stop-color="#E97826"/>
</linearGradient>
<linearGradient id="paint3_linear" x1="50.6758" y1="22.9883" x2="4.69667" y2="32.3886" gradientUnits="userSpaceOnUse">
<stop offset="0.3233" stop-color="#9E2064"/>
<stop offset="0.6302" stop-color="#C92037"/>
<stop offset="0.7514" stop-color="#CD2335"/>
<stop offset="1" stop-color="#E97826"/>
</linearGradient>
<linearGradient id="paint4_linear" x1="49.7018" y1="18.2297" x2="3.7227" y2="27.63" gradientUnits="userSpaceOnUse">
<stop offset="0.3233" stop-color="#9E2064"/>
<stop offset="0.6302" stop-color="#C92037"/>
<stop offset="0.7514" stop-color="#CD2335"/>
<stop offset="1" stop-color="#E97826"/>
</linearGradient>
<linearGradient id="paint5_linear" x1="52.6028" y1="17.8827" x2="6.62364" y2="27.283" gradientUnits="userSpaceOnUse">
<stop offset="0.3233" stop-color="#9E2064"/>
<stop offset="0.6302" stop-color="#C92037"/>
<stop offset="0.7514" stop-color="#CD2335"/>
<stop offset="1" stop-color="#E97826"/>
</linearGradient>
<linearGradient id="paint6_linear" x1="49.4139" y1="16.8146" x2="3.43533" y2="26.2146" gradientUnits="userSpaceOnUse">
<stop offset="0.3233" stop-color="#9E2064"/>
<stop offset="0.6302" stop-color="#C92037"/>
<stop offset="0.7514" stop-color="#CD2335"/>
<stop offset="1" stop-color="#E97826"/>
</linearGradient>
<linearGradient id="paint7_linear" x1="49.4448" y1="16.9763" x2="3.46766" y2="26.3758" gradientUnits="userSpaceOnUse">
<stop offset="0.3233" stop-color="#9E2064"/>
<stop offset="0.6302" stop-color="#C92037"/>
<stop offset="0.7514" stop-color="#CD2335"/>
<stop offset="1" stop-color="#E97826"/>
</linearGradient>
<linearGradient id="paint8_linear" x1="23.6214" y1="22.286" x2="13.4559" y2="24.3568" gradientUnits="userSpaceOnUse">
<stop offset="0.3233" stop-color="#9E2064"/>
<stop offset="0.6302" stop-color="#C92037"/>
<stop offset="0.7514" stop-color="#CD2335"/>
<stop offset="1" stop-color="#E97826"/>
</linearGradient>
<linearGradient id="paint9_linear" x1="46.6772" y1="18.5547" x2="19.2782" y2="24.1563" gradientUnits="userSpaceOnUse">
<stop stop-color="#282662"/>
<stop offset="0.095484" stop-color="#662E8D"/>
<stop offset="0.7882" stop-color="#9F2064"/>
<stop offset="0.9487" stop-color="#CD2032"/>
</linearGradient>
<clipPath id="clip0">
<rect width="50" height="49" fill="white"/>
</clipPath>
</defs>
</svg>
