<svg width="50" height="50" viewBox="0 0 50 50" fill="none" xmlns="http://www.w3.org/2000/svg">
<g clip-path="url(#clip0)">
<path d="M46.0254 3.79883V28.0957C46.0254 29.3555 45.918 30.5762 45.7031 31.7773C44.9414 36.1133 42.8516 39.9805 39.8633 42.9688C38.0957 44.7363 36.0156 46.1914 33.7109 47.2461C31.0547 48.4473 28.1055 49.1211 25 49.1211C24.7754 49.1211 24.5508 49.1211 24.3359 49.1113C13.0371 48.7598 3.97461 39.4824 3.97461 28.0957V17.4805C3.97461 15.7324 4.67773 14.1504 5.83008 13.0078C6.97266 11.8652 8.55469 11.1523 10.3027 11.1523C11.0059 11.1523 11.5723 11.7187 11.5723 12.4219V15.6836C11.5723 16.25 11.8066 16.7578 12.168 17.1289C12.5391 17.5 13.0469 17.7246 13.6133 17.7246C14.7461 17.7246 15.6641 16.8066 15.6641 15.6738V5.67383C15.6641 4.62891 16.0938 3.68164 16.7773 2.98828C17.4609 2.30469 18.418 1.875 19.4629 1.875C21.5625 1.875 23.2617 3.57422 23.2617 5.67383V3.79883C23.2617 2.75391 23.6914 1.79687 24.375 1.11328C25.0586 0.429687 26.0156 0 27.0605 0C29.1602 0 30.8594 1.69922 30.8594 3.79883C30.8594 2.75391 31.2891 1.79687 31.9727 1.11328C32.6562 0.429687 33.6133 0 34.6582 0C36.7578 0 38.457 1.69922 38.457 3.79883C38.4375 1.69922 40.1367 0 42.2266 0C44.3262 0 46.0254 1.69922 46.0254 3.79883Z" fill="#FAAB63"/>
<path d="M6.23047 28.0956V17.4804C6.23047 15.7324 6.93359 14.1503 8.08594 13.0078C8.87695 12.2167 9.86328 11.6406 10.9766 11.3574C10.7813 11.2304 10.5469 11.162 10.293 11.162C8.54492 11.162 6.96289 11.8652 5.82031 13.0175C4.67773 14.1601 3.96484 15.7421 3.96484 17.4902V28.1054C3.96484 39.4921 13.0176 48.7695 24.3262 49.121C24.5508 49.1308 24.7656 49.1308 24.9902 49.1308C25.3711 49.1308 25.752 49.121 26.1328 49.1015C15.0488 48.5058 6.23047 39.3261 6.23047 28.0956Z" fill="#F2A35C"/>
<path d="M45.7031 31.7773C44.9414 36.1133 42.8516 39.9805 39.8633 42.9688C38.0957 44.7363 36.0156 46.1914 33.7109 47.2461C31.0547 48.4473 28.1055 49.1211 25 49.1211C24.7754 49.1211 24.5508 49.1211 24.3359 49.1113C28.5059 39.7852 25.2051 36.8457 25.2051 36.8457C23.0957 32.1875 18.6719 28.8086 13.3984 28.1641C12.3535 28.0371 11.5625 27.168 11.5625 26.1133V15.6836C11.5625 16.25 11.7969 16.7578 12.1582 17.1289C12.5293 17.5 13.0371 17.7246 13.6035 17.7246C14.7363 17.7246 15.6543 16.8066 15.6543 15.6738V19.3555C15.6543 19.3555 21.6211 31.5332 39.0625 30.332C41.8555 30.1465 44.0234 30.7031 45.7031 31.7773Z" fill="#F2A35C"/>
<path d="M28.0273 0.126953C27.7148 0.0488281 27.3926 0 27.0508 0C24.9512 0 23.252 1.69922 23.252 3.79883V18.7793C24.3359 18.7793 25.2051 17.9004 25.2051 16.8262V3.79883C25.2051 2.04102 26.4062 0.556641 28.0273 0.126953Z" fill="#F2A35C"/>
<path d="M35.6152 0.126953C35.3027 0.0488281 34.9805 0 34.6387 0C32.5391 0 30.8398 1.69922 30.8398 3.79883V18.7793C31.9238 18.7793 32.793 17.9004 32.793 16.8262V3.79883C32.793 2.04102 33.9941 0.556641 35.6152 0.126953Z" fill="#F2A35C"/>
<path d="M43.2031 0.126953C42.8906 0.0488281 42.5684 0 42.2266 0C40.127 0 38.4277 1.69922 38.4277 3.79883V22.7246C39.5117 22.7246 40.3809 21.8457 40.3809 20.7715V3.79883C40.3906 2.04102 41.582 0.556641 43.2031 0.126953Z" fill="#F2A35C"/>
<path d="M20.4297 2.00201C20.1172 1.92389 19.7949 1.87506 19.4531 1.87506C17.3535 1.87506 15.6543 3.57428 15.6543 5.67389V20.6544L17.6074 24.7755V5.67389C17.6172 3.91608 18.8086 2.4317 20.4297 2.00201Z" fill="#F2A35C"/>
<path d="M21.124 13.7695C20.9287 13.7695 20.7432 13.6914 20.5967 13.5449C20.3037 13.2519 20.3037 12.7734 20.5967 12.4804L24.8643 8.21283C25.1572 7.91986 25.6357 7.91986 25.9287 8.21283C26.2217 8.5058 26.2217 8.98432 25.9287 9.27728L21.6611 13.5449C21.5049 13.6914 21.3096 13.7695 21.124 13.7695Z" fill="#61BDF6"/>
<path d="M25.3799 13.7695C25.1846 13.7695 24.999 13.6914 24.8525 13.5449L20.585 9.27728C20.292 8.98432 20.292 8.5058 20.585 8.21283C20.8779 7.91986 21.3564 7.91986 21.6494 8.21283L25.917 12.4804C26.21 12.7734 26.21 13.2519 25.917 13.5449C25.7705 13.6914 25.5752 13.7695 25.3799 13.7695Z" fill="#61BDF6"/>
<path d="M28.71 13.7695C28.5146 13.7695 28.3291 13.6914 28.1826 13.5449C27.8896 13.2519 27.8896 12.7734 28.1826 12.4804L32.4502 8.21283C32.7432 7.91986 33.2217 7.91986 33.5146 8.21283C33.8076 8.5058 33.8076 8.98432 33.5146 9.27728L29.2471 13.5449C29.0908 13.6914 28.9053 13.7695 28.71 13.7695Z" fill="#61BDF6"/>
<path d="M32.9795 13.7695C32.7842 13.7695 32.5986 13.6914 32.4521 13.5449L28.1748 9.27728C27.8818 8.98432 27.8818 8.5058 28.1748 8.21283C28.4678 7.91986 28.9463 7.91986 29.2393 8.21283L33.5068 12.4804C33.7998 12.7734 33.7998 13.2519 33.5068 13.5449C33.3604 13.6914 33.165 13.7695 32.9795 13.7695Z" fill="#61BDF6"/>
<path d="M36.2979 13.7695C36.1025 13.7695 35.917 13.6914 35.7705 13.5449C35.4775 13.2519 35.4775 12.7734 35.7705 12.4804L40.0381 8.21283C40.3311 7.91986 40.8096 7.91986 41.1025 8.21283C41.3955 8.5058 41.3955 8.98432 41.1025 9.27728L36.835 13.5449C36.6885 13.6914 36.4932 13.7695 36.2979 13.7695Z" fill="#61BDF6"/>
<path d="M40.5654 13.7695C40.3701 13.7695 40.1846 13.6914 40.0381 13.5449L35.7705 9.27728C35.4775 8.98432 35.4775 8.5058 35.7705 8.21283C36.0635 7.91986 36.542 7.91986 36.835 8.21283L41.1025 12.4804C41.3955 12.7734 41.3955 13.2519 41.1025 13.5449C40.9463 13.6914 40.7607 13.7695 40.5654 13.7695Z" fill="#61BDF6"/>
<path d="M14.2188 48.5253C14.0918 48.5253 13.9551 48.496 13.8379 48.4179C13.4766 48.203 13.3594 47.744 13.5742 47.3925L15.1074 44.7851C15.3223 44.4237 15.7813 44.3065 16.1328 44.5214C16.4844 44.7362 16.6113 45.1952 16.3965 45.5468L14.8633 48.1542C14.7266 48.3983 14.4727 48.5253 14.2188 48.5253Z" fill="#61BDF6"/>
<path d="M17.5586 49.9998C17.4317 49.9998 17.2949 49.9705 17.1778 49.8924C16.8164 49.6776 16.6992 49.2186 16.9141 48.867L18.4473 46.2596C18.6621 45.8983 19.1211 45.7811 19.4727 45.9959C19.834 46.2108 19.9512 46.6698 19.7364 47.0213L18.2032 49.6287C18.0664 49.8631 17.8223 49.9998 17.5586 49.9998Z" fill="#61BDF6"/>
<path d="M36.1521 48.5254C35.8982 48.5254 35.6443 48.3887 35.5076 48.1543L33.9744 45.5468C33.7595 45.1855 33.8865 44.7265 34.2381 44.5215C34.5994 44.3066 35.0584 44.4336 35.2635 44.7851L36.7967 47.3926C37.0115 47.7539 36.8846 48.2129 36.533 48.4179C36.406 48.4961 36.2791 48.5254 36.1521 48.5254Z" fill="#61BDF6"/>
<path d="M32.8025 49.9999C32.5486 49.9999 32.2947 49.8632 32.158 49.6288L30.6248 47.0214C30.4099 46.6601 30.5369 46.2011 30.8885 45.996C31.2498 45.7812 31.7088 45.9081 31.9138 46.2597L33.4471 48.8671C33.6619 49.2284 33.5349 49.6874 33.1834 49.8925C33.0662 49.9706 32.9295 49.9999 32.8025 49.9999Z" fill="#61BDF6"/>
</g>
<defs>
<clipPath id="clip0">
<rect width="50" height="50" fill="white"/>
</clipPath>
</defs>
</svg>
