<?xml version="1.0" encoding="iso-8859-1"?>
<!-- Generator: Adobe Illustrator 19.0.0, SVG Export Plug-In . SVG Version: 6.00 Build 0)  -->
<svg version="1.1" id="Capa_1" xmlns="http://www.w3.org/2000/svg" xmlns:xlink="http://www.w3.org/1999/xlink" x="0px" y="0px"
	 viewBox="0 0 512 512" style="enable-background:new 0 0 512 512;" xml:space="preserve">
<path style="fill:#91EB90;" d="M55.167,15v281.166C55.167,407.086,255.999,497,255.999,497s200.834-89.914,200.834-200.834V15
	H55.167z"/>
<path style="fill:#00AB94;" d="M255.999,15v482c0,0,200.834-89.914,200.834-200.834V15H255.999z"/>
<path style="fill:#DEECF1;" d="M255.999,512c-2.09,0-4.18-0.436-6.129-1.31c-2.108-0.943-52.206-23.534-103.082-60.361
	c-30.286-21.923-54.526-44.376-72.048-66.736c-22.94-29.276-34.573-58.691-34.573-87.427V15c0-8.284,6.716-15,15-15h401.666
	c8.284,0,15,6.716,15,15v281.166c0,28.735-11.633,58.15-34.574,87.427c-17.521,22.36-41.762,44.814-72.047,66.736
	c-50.878,36.827-100.976,59.418-103.084,60.361C260.179,511.564,258.089,512,255.999,512z M70.167,30v266.166
	c0,50.967,51.232,98.751,94.211,129.861c38.338,27.75,76.973,47.345,91.617,54.399c14.709-7.092,53.631-26.841,92.01-54.679
	c42.805-31.046,93.828-78.728,93.828-129.582V30H70.167z"/>
<path style="fill:#FF8700;" d="M255.999,150.5L255.999,150.5c-5.016,0-9.699-2.507-12.48-6.68l-32.133-48.2
	c-4.596-6.893-2.732-16.206,4.16-20.801c6.892-4.597,16.205-2.734,20.801,4.16l19.652,29.479l19.654-29.479
	c4.596-6.894,13.909-8.755,20.801-4.16c6.893,4.596,8.756,13.908,4.16,20.801l-32.135,48.2
	C265.698,147.993,261.015,150.5,255.999,150.5z"/>
<g>
	<path style="fill:#FF4B00;" d="M268.479,143.82l32.135-48.2c4.596-6.893,2.732-16.205-4.16-20.801
		c-6.892-4.595-16.205-2.733-20.801,4.16l-19.654,29.479v-0.001V150.5C261.015,150.5,265.698,147.993,268.479,143.82z"/>
	<path style="fill:#FF4B00;" d="M336.333,222.8c-3.839,0-7.678-1.465-10.606-4.394c-5.858-5.857-5.858-15.355-0.001-21.213
		l48.199-48.2c5.859-5.857,15.357-5.857,21.214,0c5.858,5.857,5.858,15.355,0.001,21.213l-48.199,48.2
		C344.011,221.335,340.172,222.8,336.333,222.8z"/>
	<path style="fill:#FF4B00;" d="M384.532,351.333c-3.84,0-7.678-1.464-10.607-4.393l-48.199-48.2
		c-5.857-5.857-5.857-15.355,0.001-21.213s15.354-5.858,21.214,0l48.199,48.2c5.858,5.857,5.858,15.355-0.001,21.213
		C392.21,349.868,388.37,351.333,384.532,351.333z"/>
</g>
<g>
	<path style="fill:#FF8700;" d="M175.667,222.8c-3.839,0-7.678-1.465-10.607-4.394l-48.201-48.2c-5.858-5.857-5.858-15.355,0-21.213
		c5.857-5.857,15.355-5.857,21.213,0l48.201,48.2c5.858,5.857,5.858,15.355,0,21.213C183.345,221.335,179.506,222.8,175.667,222.8z"
		/>
	<path style="fill:#FF8700;" d="M127.466,351.333c-3.84,0-7.678-1.464-10.606-4.393c-5.858-5.858-5.858-15.355,0-21.213l48.201-48.2
		c5.858-5.858,15.355-5.858,21.213,0c5.858,5.857,5.858,15.355,0,21.213l-48.201,48.2
		C135.144,349.868,131.304,351.333,127.466,351.333z"/>
</g>
<path style="fill:#FFD400;" d="M255.999,120.5c-52.566,0-95.332,42.767-95.332,95.333V280.1c0,52.567,42.766,95.334,95.332,95.334
	c52.567,0,95.334-42.767,95.334-95.334v-64.267C351.333,163.267,308.566,120.5,255.999,120.5z"/>
<path style="fill:#FF9F00;" d="M255.999,120.5v254.934c52.567,0,95.334-42.767,95.334-95.334v-64.267
	C351.333,163.267,308.566,120.5,255.999,120.5z"/>
<path style="fill:#FF8700;" d="M336.333,216.9H175.667c-8.284,0-15,6.716-15,15s6.716,15,15,15h65.332v113.533
	c0,8.284,6.716,15,15,15s15-6.716,15-15V246.9h65.334c8.284,0,15-6.716,15-15S344.617,216.9,336.333,216.9z"/>
<path style="fill:#A2D8F4;" d="M456.833,0H255.999v30h185.834v266.166c0,50.854-51.023,98.536-93.828,129.582
	c-38.377,27.836-77.295,47.584-92.006,54.678V512c2.09,0,4.18-0.436,6.129-1.31c2.108-0.943,52.206-23.534,103.084-60.361
	c30.285-21.923,54.525-44.376,72.047-66.736c22.941-29.276,34.574-58.691,34.574-87.427V15C471.833,6.716,465.117,0,456.833,0z"/>
<path style="fill:#FF4B00;" d="M336.333,216.9h-80.334v158.533c8.284,0,15-6.716,15-15V246.9h65.334c8.284,0,15-6.716,15-15
	S344.617,216.9,336.333,216.9z"/>
<g>
</g>
<g>
</g>
<g>
</g>
<g>
</g>
<g>
</g>
<g>
</g>
<g>
</g>
<g>
</g>
<g>
</g>
<g>
</g>
<g>
</g>
<g>
</g>
<g>
</g>
<g>
</g>
<g>
</g>
</svg>
