<svg width="50" height="50" viewBox="0 0 50 50" fill="none" xmlns="http://www.w3.org/2000/svg">
<path d="M15.1101 32.9666C14.7897 32.9666 14.4662 32.8621 14.1957 32.6462C13.5651 32.1396 13.4621 31.2183 13.9668 30.5862L22.0265 20.5124C22.5343 19.886 23.4555 19.78 24.0865 20.2835C24.7174 20.7901 24.8204 21.7114 24.3153 22.3435L16.2556 32.4173C15.9653 32.7778 15.5404 32.9666 15.1101 32.9666Z" fill="#5A5D9D"/>
<path d="M34.7459 30.2529C34.3709 30.2529 33.9963 30.1098 33.7102 29.8237L26.0366 22.2477C25.4644 21.6755 25.4644 20.7486 26.0366 20.1763C26.6088 19.6041 27.5358 19.6041 28.108 20.1763L35.7816 27.7523C36.3538 28.3245 36.3538 29.2515 35.7816 29.8237C35.4955 30.1098 35.1209 30.2529 34.7459 30.2529Z" fill="#5A5D9D"/>
<path d="M37.9729 29.6306C37.7799 29.6306 37.5838 29.5932 37.3965 29.5116C36.6526 29.1927 36.3078 28.3317 36.6267 27.589L43.1071 12.4687C43.426 11.7217 44.29 11.3758 45.0297 11.6989C45.7736 12.0181 46.1184 12.8791 45.7995 13.6215L39.3191 28.7422C39.0818 29.2987 38.5409 29.6306 37.9729 29.6306Z" fill="#5A5D9D"/>
<path d="M50 45.6055V48.5352C50 49.3553 49.3557 50 48.5352 50C47.7146 50 47.0703 49.3553 47.0703 48.5352V47.0703H41.2109V48.5352C41.2109 49.3553 40.5666 50 39.7461 50C38.9256 50 38.2812 49.3553 38.2812 48.5352V47.0703H32.3242V48.5352C32.3242 49.3553 31.6799 50 30.8594 50C30.0388 50 29.3945 49.3553 29.3945 48.5352V47.0703H23.5352V48.5352C23.5352 49.3553 22.8909 50 22.0703 50C21.2498 50 20.6055 49.3553 20.6055 48.5352V47.0703H14.7461V48.5352C14.7461 49.3553 14.1018 50 13.2812 50C12.4607 50 11.8164 49.3553 11.8164 48.5352V47.0703H5.85938V48.5352C5.85938 49.3553 5.21507 50 4.39453 50C3.57399 50 2.92969 49.3553 2.92969 48.5352V47.0703H1.46484C0.644302 47.0703 0 46.4256 0 45.6055C0 44.7849 0.644302 44.1406 1.46484 44.1406H2.92969V38.1836H1.46484C0.644302 38.1836 0 37.5389 0 36.7188C0 35.8982 0.644302 35.2539 1.46484 35.2539H2.92969V29.3945H1.46484C0.644302 29.3945 0 28.7498 0 27.9297C0 27.1091 0.644302 26.4648 1.46484 26.4648H2.92969V20.6055H1.46484C0.644302 20.6055 0 19.9608 0 19.1406C0 18.3201 0.644302 17.6758 1.46484 17.6758H2.92969V11.8164H1.46484C0.644302 11.8164 0 11.1717 0 10.3516C0 9.53102 0.644302 8.88672 1.46484 8.88672H2.92969V2.92969H1.46484C0.644302 2.92969 0 2.285 0 1.46484C0 0.644302 0.644302 0 1.46484 0H4.39453C5.21507 0 5.85938 0.644302 5.85938 1.46484V44.1406H48.5352C49.3557 44.1406 50 44.7849 50 45.6055Z" fill="#5A5D9D"/>
<path d="M50 45.6055V48.5352C50 49.3553 49.3557 50 48.5352 50C47.7146 50 47.0703 49.3553 47.0703 48.5352V47.0703H41.2109V48.5352C41.2109 49.3553 40.5666 50 39.7461 50C38.9256 50 38.2812 49.3553 38.2812 48.5352V47.0703H32.3242V48.5352C32.3242 49.3553 31.6799 50 30.8594 50C30.0388 50 29.3945 49.3553 29.3945 48.5352V47.0703H25V44.1406H48.5352C49.3557 44.1406 50 44.7849 50 45.6055Z" fill="#5A5D9D"/>
<path d="M25 14.7461C22.5681 14.7461 20.6055 16.7088 20.6055 19.1406C20.6055 21.5721 22.5681 23.5352 25 23.5352C27.4319 23.5352 29.3945 21.5721 29.3945 19.1406C29.3945 16.7088 27.4319 14.7461 25 14.7461Z" fill="#61BDF6"/>
<path d="M13.2812 38.1836C10.8582 38.1836 8.78906 36.2122 8.78906 33.7891C8.78906 31.366 10.8582 29.3945 13.2812 29.3945C15.7043 29.3945 17.6758 31.366 17.6758 33.7891C17.6758 36.2122 15.7043 38.1836 13.2812 38.1836Z" fill="#61BDF6"/>
<path d="M36.8164 35.2539C34.3933 35.2539 32.3242 33.2825 32.3242 30.8594C32.3242 28.4363 34.3933 26.4648 36.8164 26.4648C39.2395 26.4648 41.2109 28.4363 41.2109 30.8594C41.2109 33.2825 39.2395 35.2539 36.8164 35.2539Z" fill="#61BDF6"/>
<path d="M45.6055 14.7461C43.1824 14.7461 41.2109 12.7747 41.2109 10.3516C41.2109 7.92847 43.1824 5.95703 45.6055 5.95703C48.0286 5.95703 50 7.92847 50 10.3516C50 12.7747 48.0286 14.7461 45.6055 14.7461Z" fill="#61BDF6"/>
<path d="M13.2812 29.3945C15.7043 29.3945 17.6758 31.366 17.6758 33.7891C17.6758 36.2122 15.7043 38.1836 13.2812 38.1836" fill="#61BDF6"/>
<path d="M36.8164 26.4648C39.2395 26.4648 41.2109 28.4363 41.2109 30.8594C41.2109 33.2825 39.2395 35.2539 36.8164 35.2539" fill="#61BDF6"/>
<path d="M45.6055 5.95703C48.0286 5.95703 50 7.92847 50 10.3516C50 12.7747 48.0286 14.7461 45.6055 14.7461" fill="#61BDF6"/>
<path d="M25 23.5352V14.7461C27.4319 14.7461 29.3945 16.7088 29.3945 19.1406C29.3945 21.5721 27.4319 23.5352 25 23.5352Z" fill="#61BDF6"/>
</svg>
