<svg width="50" height="50" viewBox="0 0 50 50" fill="none" xmlns="http://www.w3.org/2000/svg">
<path d="M17.6758 17.6758H8.88672V26.4648H17.6758V17.6758Z" fill="#5A5D9D"/>
<path d="M17.6758 17.6758H13.2812V26.4648H17.6758V17.6758Z" fill="#2C3B73"/>
<path d="M2.92969 11.8164L0 14.7461V16.2109C0 18.6328 1.97266 20.6055 4.39453 20.6055H22.0703C24.4922 20.6055 26.4648 18.6328 26.4648 16.2109V14.7461L23.5352 11.8164H2.92969Z" fill="#5A5D9D"/>
<path d="M13.2812 11.8164V20.6055H22.0703C24.4922 20.6055 26.4648 18.6328 26.4648 16.2109V14.7461L23.5352 11.8164H13.2812Z" fill="#5A5D9D"/>
<path d="M22.0703 0H4.39453C1.97266 0 0 1.97266 0 4.39453V14.7461H26.4648V4.39453C26.4648 1.97266 24.4922 0 22.0703 0Z" fill="#5A5D9D"/>
<path d="M22.0703 0H13.2812V14.7461H26.4648V4.39453C26.4648 1.97266 24.4922 0 22.0703 0Z" fill="#5A5D9D"/>
<path d="M23.5352 14.7461H2.92969V4.23828C2.92969 3.51563 3.51563 2.92969 4.23828 2.92969H22.2266C22.9492 2.92969 23.5352 3.51563 23.5352 4.23828V14.7461Z" fill="#E0F4FF"/>
<path d="M22.0703 2.92969H13.2812V14.7461H23.5352V4.10156C23.5352 3.45703 22.8809 2.92969 22.0703 2.92969Z" fill="#E0F4FF"/>
<path d="M20.6055 42.6758C20.6055 43.4961 19.9609 44.1406 19.1406 44.1406C16.7383 44.1406 14.6289 42.998 13.2812 41.2109C12.373 40.0098 11.8164 38.3594 11.8164 36.7188V34.4043L11.377 34.8145C10.8203 35.4004 9.88281 35.4004 9.32617 34.8145C8.74023 34.2578 8.74023 33.3203 9.32617 32.7637L12.2559 29.834C12.5195 29.541 12.9004 29.3945 13.2812 29.3945C13.6621 29.3945 14.043 29.541 14.3066 29.834L17.2363 32.7637C17.8223 33.3203 17.8223 34.2578 17.2363 34.8145C16.6797 35.4004 15.7422 35.4004 15.1855 34.8145L14.7461 34.4043V36.7188C14.7461 39.1504 16.709 41.2109 19.1406 41.2109C19.9609 41.2109 20.6055 41.8555 20.6055 42.6758Z" fill="#61BDF6"/>
<path d="M40.6738 17.2363L37.7441 20.166C37.4805 20.459 37.0996 20.6055 36.7188 20.6055C36.3379 20.6055 35.957 20.459 35.6934 20.166L32.7637 17.2363C32.1777 16.6797 32.1777 15.7422 32.7637 15.1855C33.3203 14.5996 34.2578 14.5996 34.8145 15.1855L35.2539 15.5957V13.2812C35.2539 10.8496 33.291 8.88672 30.8594 8.88672C30.0391 8.88672 29.3945 8.24219 29.3945 7.42188C29.3945 6.60156 30.0391 5.95703 30.8594 5.95703C33.2617 5.95703 35.4004 7.12891 36.7188 8.91602C37.6563 10.1172 38.1836 11.6406 38.1836 13.2812V15.5957L38.623 15.1855C39.1797 14.5996 40.1172 14.5996 40.6738 15.1855C41.2598 15.7422 41.2598 16.6797 40.6738 17.2363Z" fill="#61BDF6"/>
<path d="M19.1406 26.4648H7.42188C6.61133 26.4648 5.95703 25.8105 5.95703 25C5.95703 24.1895 6.61133 23.5352 7.42188 23.5352H19.1406C19.9512 23.5352 20.6055 24.1895 20.6055 25C20.6055 25.8105 19.9512 26.4648 19.1406 26.4648Z" fill="#5A5D9D"/>
<path d="M19.1406 23.5352H13.2812V26.4648H19.1406C19.9512 26.4648 20.6055 25.8105 20.6055 25C20.6055 24.1895 19.9512 23.5352 19.1406 23.5352Z" fill="#5A5D9D"/>
<path d="M20.6055 42.6758C20.6055 43.4961 19.9609 44.1406 19.1406 44.1406C16.7383 44.1406 14.6289 42.998 13.2812 41.2109V29.3945C13.6621 29.3945 14.043 29.541 14.3066 29.834L17.2363 32.7637C17.8223 33.3203 17.8223 34.2578 17.2363 34.8145C16.6797 35.4004 15.7422 35.4004 15.1855 34.8145L14.7461 34.4043V36.7188C14.7461 39.1504 16.709 41.2109 19.1406 41.2109C19.9609 41.2109 20.6055 41.8555 20.6055 42.6758Z" fill="#61BDF6"/>
<path d="M41.1133 41.2109H32.3242V50H41.1133V41.2109Z" fill="#5A5D9D"/>
<path d="M41.1133 41.2109H36.7188V50H41.1133V41.2109Z" fill="#2C3B73"/>
<path d="M26.4648 35.2539L23.5352 38.2812V39.7461C23.5352 42.168 25.5078 44.1406 27.9297 44.1406H45.6055C48.0273 44.1406 50 42.168 50 39.7461V38.2812L47.0703 35.2539H26.4648Z" fill="#5A5D9D"/>
<path d="M36.7188 35.2539V44.1406H45.6055C48.0273 44.1406 50 42.168 50 39.7461V38.2812L47.0703 35.2539H36.7188Z" fill="#5A5D9D"/>
<path d="M45.6055 23.5352H27.9297C25.5078 23.5352 23.5352 25.5078 23.5352 27.9297V38.2812H50V27.9297C50 25.5078 48.0273 23.5352 45.6055 23.5352Z" fill="#5A5D9D"/>
<path d="M45.6055 23.5352H36.7188V38.2812H50V27.9297C50 25.5078 48.0273 23.5352 45.6055 23.5352Z" fill="#5A5D9D"/>
<path d="M47.0703 38.2812H26.4648V27.7734C26.4648 27.0508 27.0508 26.4648 27.7734 26.4648H45.7617C46.4844 26.4648 47.0703 27.0508 47.0703 27.7734V38.2812Z" fill="#E0F4FF"/>
<path d="M45.6055 26.4648H36.7188V38.2812H47.0703V27.6367C47.0703 26.9922 46.416 26.4648 45.6055 26.4648Z" fill="#E0F4FF"/>
<path d="M42.5781 50H30.8594C30.0488 50 29.3945 49.3457 29.3945 48.5352C29.3945 47.7246 30.0488 47.0703 30.8594 47.0703H42.5781C43.3887 47.0703 44.043 47.7246 44.043 48.5352C44.043 49.3457 43.3887 50 42.5781 50Z" fill="#5A5D9D"/>
<path d="M42.5781 47.0703H36.7188V50H42.5781C43.3887 50 44.043 49.3457 44.043 48.5352C44.043 47.7246 43.3887 47.0703 42.5781 47.0703Z" fill="#5A5D9D"/>
<path d="M40.6738 17.2363L37.7441 20.166C37.4805 20.4589 37.0996 20.6054 36.7188 20.6054V8.91595C37.6563 10.1171 38.1836 11.6406 38.1836 13.2812V15.5956L38.623 15.1855C39.1797 14.5995 40.1172 14.5995 40.6738 15.1855C41.2598 15.7421 41.2598 16.6796 40.6738 17.2363Z" fill="#61BDF6"/>
</svg>
