<svg width="50" height="50" viewBox="0 0 50 50" fill="none" xmlns="http://www.w3.org/2000/svg">
<path d="M44.1699 16.1523C43.7695 16.1523 43.4375 15.8203 43.4375 15.4199V11.0156C43.4375 10.6152 43.7695 10.2831 44.1699 10.2831C44.5703 10.2831 44.9023 10.6152 44.9023 11.0156V15.4199C44.9023 15.83 44.5801 16.1523 44.1699 16.1523Z" fill="#5A5D9D"/>
<path d="M38.4473 22.5489H44.541C45.1172 22.5489 45.5762 22.0801 45.5762 21.5137V16.4551C45.5762 15.879 45.1074 15.42 44.541 15.42H38.4473V22.5489Z" fill="#5A5D9D"/>
<path d="M11.6211 22.5489H5.52734C4.95117 22.5489 4.49219 22.0801 4.49219 21.5137V16.4551C4.49219 15.879 4.96094 15.42 5.52734 15.42H11.6211V22.5489Z" fill="#5A5D9D"/>
<path d="M8.29102 49.9999C8.29102 40.7519 15.791 33.2617 25.0293 33.2617C34.2773 33.2617 41.7676 40.7616 41.7676 49.9999H8.29102Z" fill="#E3E3E3"/>
<path d="M27.1094 33.3886C26.4258 33.3007 25.7324 33.2617 25.0391 33.2617C15.791 33.2617 8.30078 40.7616 8.30078 49.9999H12.4512C12.4414 41.455 18.8477 34.4042 27.1094 33.3886Z" fill="#D1D1D1"/>
<path d="M13.2422 38.1249H16.6797C17.6465 38.1249 18.4375 38.9062 18.4375 39.8828C18.4375 40.8495 19.2188 41.6406 20.1953 41.6406H29.9023C30.8691 41.6406 31.6602 40.8593 31.6602 39.8828C31.6602 38.916 32.4414 38.1249 33.418 38.1249H36.8555C33.8281 35.1171 29.6582 33.2617 25.0586 33.2617C20.4297 33.2617 16.2695 35.1171 13.2422 38.1249Z" fill="#5A5D9D"/>
<path d="M17.2852 38.2324C19.8633 35.6249 23.291 33.8574 27.1192 33.3886C26.4356 33.3007 25.7422 33.2617 25.0488 33.2617C20.4492 33.2617 16.2793 35.1171 13.252 38.1249H16.6895C16.8848 38.1249 17.0898 38.164 17.2852 38.2324Z" fill="#5A5D9D"/>
<path d="M43.0176 17.9883C43.0176 27.9199 34.9609 35.9766 25.0293 35.9766C15.0977 35.9766 7.04102 27.9199 7.04102 17.9883C7.04102 8.05664 15.1074 0 25.0391 0C34.9707 0 43.0176 8.05664 43.0176 17.9883Z" fill="#F4F4F4"/>
<path d="M11.2012 17.9884C11.2012 8.75983 18.1543 1.15241 27.1094 0.127023C26.4258 0.048898 25.7324 0.00983553 25.039 0.00983553C15.1074 6.99035e-05 7.05078 8.05671 7.05078 17.9884C7.05078 27.92 15.1074 35.9766 25.039 35.9766C25.7422 35.9766 26.4355 35.9376 27.1094 35.8594C18.1543 34.8243 11.2012 27.2169 11.2012 17.9884Z" fill="#E3E3E3"/>
<path d="M24.9225 4.02348C17.3932 4.08207 11.2213 10.1856 11.0748 17.7149C10.9674 23.3594 14.2389 28.2715 18.9948 30.5664C19.5807 30.8497 20.2741 30.4981 20.4108 29.8731L21.0651 26.8848C21.1627 26.4258 21.5729 26.0938 22.0514 26.0938H27.8229C28.2916 26.0938 28.7018 26.4258 28.8092 26.8848L29.483 29.961C29.6198 30.5957 30.3131 30.9278 30.8991 30.6543C35.6842 28.4375 39.0143 23.5938 39.0143 17.9786C38.9948 10.2442 32.6764 3.96488 24.9225 4.02348Z" fill="#5A5D9D"/>
<path d="M15.0983 17.9883C15.0983 10.9766 20.3034 5.14655 27.0514 4.16998C26.358 4.07233 25.6451 4.0235 24.9225 4.0235C17.3932 4.08209 11.2213 10.1856 11.0748 17.7149C10.9674 23.3594 14.2389 28.2715 18.9948 30.5665C19.5807 30.8497 20.2741 30.4981 20.4108 29.8731L20.5866 29.0723C17.2565 26.5137 15.0983 22.5001 15.0983 17.9883Z" fill="#5A5D9D"/>
<path d="M36.8262 19.8046C36.8262 22.0995 34.9707 23.955 32.6758 23.955C30.3809 23.955 28.5254 22.0995 28.5254 19.8046C28.5254 17.5097 30.3809 15.6542 32.6758 15.6542C34.9707 15.6542 36.8262 17.5195 36.8262 19.8046Z" fill="#61BDF6"/>
<path d="M31.6406 19.8046C31.6406 18.0663 32.7148 16.5722 34.2383 15.957C33.7598 15.7617 33.2324 15.6542 32.6855 15.6542C30.3906 15.6542 28.5352 17.5097 28.5352 19.8046C28.5352 22.0995 30.3906 23.955 32.6855 23.955C33.2324 23.955 33.7598 23.8476 34.2383 23.6523C32.7148 23.037 31.6406 21.5527 31.6406 19.8046Z" fill="#61BDF6"/>
<path d="M29.1895 43.6426C29.1895 45.9376 27.334 47.793 25.0391 47.793C22.7441 47.793 20.8887 45.9376 20.8887 43.6426C20.8887 41.3477 22.7441 39.4922 25.0391 39.4922C27.3242 39.4922 29.1895 41.3477 29.1895 43.6426Z" fill="#61BDF6"/>
<path d="M24.0039 43.6426C24.0039 41.9044 25.0781 40.4102 26.6016 39.795C26.123 39.5997 25.5957 39.4922 25.0488 39.4922C22.7539 39.4922 20.8984 41.3477 20.8984 43.6426C20.8984 45.9376 22.7539 47.793 25.0488 47.793C25.5957 47.793 26.123 47.6856 26.6016 47.4903C25.0684 46.8751 24.0039 45.3809 24.0039 43.6426Z" fill="#61BDF6"/>
<path d="M21.8555 19.8046C21.8555 22.0995 20 23.955 17.7051 23.955C15.4102 23.955 13.5547 22.0995 13.5547 19.8046C13.5547 17.5097 15.4102 15.6542 17.7051 15.6542C20 15.6542 21.8555 17.5195 21.8555 19.8046Z" fill="#61BDF6"/>
<path d="M16.6699 19.8046C16.6699 18.0663 17.7441 16.5722 19.2676 15.957C18.7891 15.7617 18.2617 15.6542 17.7148 15.6542C15.4199 15.6542 13.5645 17.5097 13.5645 19.8046C13.5645 22.0995 15.4199 23.955 17.7148 23.955C18.2617 23.955 18.7891 23.8476 19.2676 23.6523C17.7344 23.037 16.6699 21.5527 16.6699 19.8046Z" fill="#61BDF6"/>
</svg>
