<?xml version="1.0" encoding="iso-8859-1"?>
<!-- Generator: Adobe Illustrator 19.0.0, SVG Export Plug-In . SVG Version: 6.00 Build 0)  -->
<svg version="1.1" id="Layer_1" xmlns="http://www.w3.org/2000/svg" xmlns:xlink="http://www.w3.org/1999/xlink" x="0px" y="0px"
	 viewBox="0 0 512.002 512.002" style="enable-background:new 0 0 512.002 512.002;" xml:space="preserve">
<path style="fill:#FFFFFF;" d="M479.572,370.72H32.428c-13.71,0-24.824-11.114-24.824-24.824V70.484
	c0-13.71,11.114-24.824,24.824-24.824h447.144c13.71,0,24.824,11.114,24.824,24.824v275.414
	C504.396,359.607,493.281,370.72,479.572,370.72z"/>
<path style="fill:#E0E0E2;" d="M504.396,70.484c0-13.71-11.114-24.824-24.824-24.824H32.428c-13.71,0-24.824,11.114-24.824,24.824
	v24.832h496.791V70.484H504.396z"/>
<rect x="35.995" y="191.628" style="fill:#FF3502;" width="136.484" height="80.094"/>
<rect x="199.687" y="191.628" style="fill:#2487FF;" width="278.352" height="80.094"/>
<rect x="35.995" y="121.673" style="fill:#FFA834;" width="442.037" height="46.637"/>
<polygon style="fill:#898890;" points="358.456,437.437 153.544,437.437 183.723,370.72 328.277,370.72 "/>
<rect x="128.748" y="437.436" style="fill:#2E2E30;" width="254.506" height="28.906"/>
<polygon style="fill:#77767E;" points="337.039,390.093 174.96,390.093 183.957,370.72 328.043,370.72 "/>
<path style="fill:#C6C5CB;" d="M7.604,293.442v52.454c0,13.71,11.114,24.824,24.824,24.824h447.144
	c13.71,0,24.824-11.114,24.824-24.824v-52.454H7.604z"/>
<g>
	<rect x="91.125" y="62.88" style="fill:#FFFFFF;" width="329.754" height="15.208"/>
	<rect x="415.089" y="324.473" style="fill:#FFFFFF;" width="53.764" height="15.208"/>
	<rect x="382.727" y="224.071" style="fill:#FFFFFF;" width="72.997" height="15.208"/>
	<rect x="346.908" y="224.071" style="fill:#FFFFFF;" width="25.009" height="15.208"/>
	<rect x="421.933" y="137.387" style="fill:#FFFFFF;" width="33.792" height="15.208"/>
	<rect x="307.703" y="137.387" style="fill:#FFFFFF;" width="103.412" height="15.208"/>
	<rect x="56.269" y="210.05" style="fill:#FFFFFF;" width="86.512" height="15.208"/>
	<rect x="56.269" y="233.703" style="fill:#FFFFFF;" width="40.888" height="15.208"/>
</g>
<g>
	<path style="fill:#010101;" d="M180.078,279.328v-95.302H28.391v95.302H180.078z M43.598,199.234H164.87v64.886H43.598V199.234z"/>
	<path style="fill:#010101;" d="M192.081,279.328h293.554v-95.302H192.081V279.328z M207.289,199.234h263.139v64.886H207.289
		V199.234z"/>
	<path style="fill:#010101;" d="M485.636,114.071H28.391v61.845h457.245V114.071z M470.428,160.708H43.598v-31.429h426.83V160.708z"
		/>
	<path style="fill:#010101;" d="M511.626,65.552c-2.383-15.548-15.848-27.497-32.054-27.497l0,0H32.428
		c-1.676,0-3.323,0.128-4.932,0.374C11.947,40.812,0,54.279,0,70.484v215.354v60.058c0,2.076,0.204,4.105,0.579,6.074
		c0.034,0.182,0.065,0.366,0.103,0.547c1.812,8.698,7.122,16.122,14.384,20.745c0.386,0.246,0.779,0.484,1.176,0.714
		c0.523,0.302,1.054,0.591,1.595,0.865c1.585,0.802,3.239,1.485,4.96,2.022c0.004,0.001,0.008,0.002,0.012,0.003
		c3.041,0.947,6.272,1.457,9.62,1.457l0,0h139.508l-23.3,51.51h-27.498v44.113h269.719v-44.113h-27.498l-23.3-51.51h139.51l0,0
		c3.348,0,6.58-0.51,9.62-1.457c0.004-0.001,0.008-0.002,0.012-0.003c1.72-0.536,3.374-1.22,4.96-2.022
		c0.54-0.274,1.072-0.562,1.595-0.865c0.397-0.23,0.789-0.467,1.176-0.714c7.261-4.623,12.573-12.048,14.384-20.745
		c0.038-0.181,0.068-0.365,0.103-0.547c0.375-1.969,0.579-3.998,0.579-6.074v-60.058V102.919V70.484
		C512,68.808,511.872,67.16,511.626,65.552z M32.428,53.263h447.143c9.496,0,17.22,7.726,17.22,17.22v17.227H15.208V70.484
		c0-4.013,1.391-7.701,3.701-10.632C22.065,55.847,26.946,53.263,32.428,53.263z M375.652,445.04v13.698H136.348V445.04h5.41
		h228.483H375.652z M346.671,429.833H165.329l23.3-51.51h134.74L346.671,429.833z M333.182,363.117H178.817H32.428
		c-7.715,0-14.262-5.1-16.445-12.104c-0.504-1.616-0.776-3.335-0.776-5.115v-44.851h481.585v44.851c0,1.78-0.272,3.499-0.776,5.115
		c-2.184,7.006-8.73,12.104-16.445,12.104H333.182z M496.792,285.838H15.208V102.919h481.585V285.838z"/>
</g>
<g>
</g>
<g>
</g>
<g>
</g>
<g>
</g>
<g>
</g>
<g>
</g>
<g>
</g>
<g>
</g>
<g>
</g>
<g>
</g>
<g>
</g>
<g>
</g>
<g>
</g>
<g>
</g>
<g>
</g>
</svg>
