<svg width="50" height="50" viewBox="0 0 50 50" fill="none" xmlns="http://www.w3.org/2000/svg">
<g clip-path="url(#clip0)">
<path d="M48.3203 25C48.3203 37.8809 37.8809 48.3203 25 48.3203C12.1191 48.3203 1.67969 37.8809 1.67969 25C1.67969 12.1191 12.1191 1.67969 25 1.67969C37.8809 1.67969 48.3203 12.1191 48.3203 25Z" fill="#61BDF6"/>
<path d="M36.7969 4.88281C40.1953 9.16016 42.2266 14.5801 42.2266 20.4688C42.2266 34.3262 30.9961 45.5566 17.1387 45.5566C15.9082 45.5566 14.707 45.4687 13.5254 45.293C16.9141 47.2168 20.8301 48.3105 25.0098 48.3105C37.8906 48.3105 48.3301 37.8711 48.3301 24.9902C48.3203 16.4258 43.6914 8.93555 36.7969 4.88281Z" fill="#5A5D9D"/>
<path d="M50 25C50 18.3203 47.4023 12.041 42.6758 7.32422C37.9492 2.60742 31.6797 0 25 0C18.3203 0 12.041 2.59766 7.32422 7.32422C2.60742 12.0508 0 18.3203 0 25C0 31.6797 2.59766 37.959 7.32422 42.6758C12.041 47.3926 18.3105 49.9902 24.9805 50C24.9902 50 24.9902 50 25 50C25.0098 50 25.0098 50 25.0195 50C31.6895 49.9902 37.959 47.3926 42.6758 42.6758C47.4023 37.959 50 31.6797 50 25ZM26.6797 37.2559V12.666H32.5781C34.4141 16.3574 35.4297 20.5957 35.4297 25.0098C35.4297 29.3848 34.4336 33.584 32.627 37.2559H26.6797ZM30.6348 40.625C29.4922 42.2559 28.1738 43.7305 26.6895 44.9902V40.625H30.6348ZM26.6797 9.29687V5.01953C28.1348 6.26953 29.4434 7.70508 30.5664 9.29687H26.6797V9.29687ZM34.5703 9.29687C33.457 7.40234 32.1289 5.66406 30.625 4.11133C34.1406 5.05859 37.2949 6.86523 39.8633 9.29687H34.5703ZM23.3203 5.01953V9.29687H19.4336C20.5566 7.70508 21.8555 6.26953 23.3203 5.01953ZM17.4219 12.666H23.3203V37.2559H17.3828C15.5762 33.584 14.5801 29.3848 14.5801 25.0098C14.5703 20.5957 15.5859 16.3574 17.4219 12.666ZM10.1367 9.29687C12.7051 6.86523 15.8691 5.05859 19.375 4.11133C17.8711 5.66406 16.543 7.40234 15.4297 9.29687H10.1367ZM23.3203 40.625V44.9902C21.8359 43.7207 20.5078 42.2461 19.375 40.625H23.3203ZM15.3711 40.625C16.4941 42.5488 17.832 44.3164 19.3555 45.8789C15.8203 44.9219 12.6367 43.0859 10.0586 40.625H15.3711ZM34.6289 40.625H39.9414C37.3633 43.0859 34.1797 44.9219 30.6445 45.8789C32.168 44.3164 33.5059 42.5488 34.6289 40.625ZM42.8125 37.2559H36.3184C37.9199 33.4961 38.7891 29.3262 38.7891 25.0098C38.7891 20.6641 37.9004 16.4551 36.2793 12.666H42.7539C45.1953 16.1719 46.6211 20.4199 46.6211 25C46.6309 29.5508 45.2246 33.7695 42.8125 37.2559ZM7.23633 12.666H13.7109C12.0898 16.4453 11.2012 20.6543 11.2012 25.0098C11.2012 29.3262 12.0703 33.4961 13.6719 37.2559H7.1875C4.78516 33.7695 3.36914 29.541 3.36914 25C3.36914 20.4199 4.80469 16.1719 7.23633 12.666Z" fill="#5A5D9D"/>
<path d="M48.3203 26.6797H1.67969C0.751953 26.6797 0 25.9277 0 25C0 24.0723 0.751953 23.3203 1.67969 23.3203H48.3105C49.2383 23.3203 49.9902 24.0723 49.9902 25C49.9902 25.9277 49.248 26.6797 48.3203 26.6797Z" fill="#61BDF6"/>
<path d="M1.67969 25.0001C1.67969 27.6661 2.12891 30.2345 2.95898 32.6271H47.041C47.8711 30.2345 48.3203 27.6759 48.3203 25.0001C48.3203 22.2365 47.8418 19.59 46.9629 17.129H3.04688C2.16797 19.59 1.67969 22.2365 1.67969 25.0001Z" fill="#E0F4FF"/>
<path d="M41.3867 17.129C41.6211 18.4572 41.748 19.8146 41.748 21.2111C41.748 25.3615 40.6641 29.2482 38.7695 32.6271H47.0508C47.8809 30.2345 48.3301 27.6759 48.3301 25.0001C48.3301 22.2365 47.8516 19.59 46.9629 17.129H41.3867Z" fill="#DEF4F8"/>
<path d="M9.08203 21.416C9.08203 20.4883 9.56055 20.1953 10.3027 20.1953H12.8516C15.127 20.1953 17.2168 21.1914 17.2168 24.7754C17.2168 27.6758 15.5957 29.3555 12.8125 29.3555H10.3027C9.56055 29.3555 9.08203 29.0625 9.08203 28.1348V21.416V21.416ZM11.1621 27.6856H12.9199C14.5898 27.6856 15.1172 26.2012 15.1172 24.7852C15.1172 22.9785 14.4336 21.8848 12.9004 21.8848H11.1523V27.6856H11.1621Z" fill="#61BDF6"/>
<path d="M21.2402 21.25C21.2402 20.3809 21.6602 20.0293 22.5488 20.0293C22.9785 20.0293 23.3594 20.1953 23.5938 20.5762L27.2461 26.4648H27.2754V21.0254C27.2754 20.3516 27.6563 20.0195 28.2813 20.0195C28.9063 20.0195 29.2871 20.3516 29.2871 21.0254V28.2129C29.2871 29.043 28.9355 29.5117 28.0566 29.5117C27.3926 29.5117 27.1777 29.375 26.9141 28.9551L23.2812 23.2422H23.252V28.5254C23.252 29.1992 22.8711 29.5313 22.2461 29.5313C21.6211 29.5313 21.2402 29.1992 21.2402 28.5254V21.25V21.25Z" fill="#61BDF6"/>
<path d="M38.5254 24.0527C40.4297 24.4824 40.918 25.6152 40.918 26.6895C40.918 28.3398 39.668 29.5801 37.1484 29.5801C34.502 29.5801 33.3203 28.252 33.3203 27.2656C33.3203 26.7578 33.6914 26.3965 34.1992 26.3965C35.332 26.3965 35.0391 28.0469 37.1484 28.0469C38.2324 28.0469 38.8281 27.4512 38.8281 26.8359C38.8281 26.4648 38.6523 26.0645 37.9395 25.8789L35.5859 25.2832C33.6914 24.7949 33.3496 23.7598 33.3496 22.7734C33.3496 20.7324 35.2344 19.9707 37.002 19.9707C38.6328 19.9707 40.5566 20.8887 40.5566 22.1094C40.5566 22.627 40.1074 22.9395 39.5996 22.9395C38.6328 22.9395 38.8086 21.582 36.8652 21.582C35.8984 21.582 35.3613 22.0313 35.3613 22.666C35.3613 23.3008 36.123 23.5059 36.7871 23.6621L38.5254 24.0527Z" fill="#61BDF6"/>
<path d="M42.6758 7.32422C40.0488 4.69727 36.9336 2.72461 33.5449 1.49414C35.918 3.54492 37.9004 6.04492 39.375 8.84766C39.541 8.99414 39.707 9.15039 39.873 9.29687H39.6094C40.1465 10.3809 40.6055 11.5039 40.9863 12.666H42.7637C45.2051 16.1719 46.6309 20.4199 46.6309 25C46.6309 29.5508 45.2148 33.7695 42.8125 37.2559H36.3184C36.4844 36.8555 36.6504 36.4453 36.8066 36.0352C34.7363 38.6523 32.1484 40.8398 29.209 42.4609C28.4277 43.3691 27.5879 44.2188 26.6895 44.9902V43.6719C25.6055 44.1211 24.4824 44.4922 23.3203 44.7852V44.9902C23.2617 44.9414 23.2031 44.8828 23.1348 44.8242C21.7871 45.1563 20.4102 45.3809 18.9844 45.4785C19.1113 45.6152 19.2285 45.7422 19.3555 45.8691C18.9648 45.7617 18.584 45.6445 18.2031 45.5176C17.8516 45.5273 17.5 45.5371 17.1387 45.5371C14.2871 45.5371 11.5527 45.0586 8.99414 44.1895C13.4766 47.9492 19.0723 49.9902 24.9805 50C24.9902 50 24.9902 50 25 50C25.0098 50 25.0098 50 25.0195 50C31.6895 49.9902 37.959 47.3926 42.6758 42.6758C47.4023 37.9492 50 31.6797 50 25C50 18.3203 47.4023 12.041 42.6758 7.32422ZM30.6445 45.8789C32.168 44.3066 33.5059 42.5391 34.6289 40.625H39.9414C37.3633 43.0859 34.1895 44.9219 30.6445 45.8789Z" fill="#888BBD"/>
<path d="M25 50C18.3203 50 12.041 47.4023 7.32422 42.6758C2.59766 37.959 0 31.6797 0 25C0 18.3203 2.59766 12.041 7.32422 7.32422C12.0508 2.60742 18.3203 0 25 0C31.6797 0 37.959 2.59766 42.6758 7.32422C47.3926 12.0508 50 18.3203 50 25C50 31.6797 47.4023 37.959 42.6758 42.6758C37.9492 47.3926 31.6797 50 25 50ZM25 3.36914C13.0762 3.36914 3.36914 13.0762 3.36914 25C3.36914 36.9238 13.0762 46.6309 25 46.6309C36.9238 46.6309 46.6309 36.9238 46.6309 25C46.6309 13.0762 36.9238 3.36914 25 3.36914Z" fill="#5A5D9D"/>
<path d="M42.6758 7.32422C37.959 2.59766 31.6797 0 25 0C24.7168 0 24.4336 0.00976563 24.1504 0.0195313C30.5078 0.234375 36.4551 2.80273 40.9766 7.32422C45.7031 12.0508 48.3008 18.3203 48.3008 25C48.3008 31.6797 45.7031 37.959 40.9766 42.6758C36.4551 47.1973 30.5078 49.7656 24.1504 49.9805C24.4336 49.9902 24.7168 50 25 50C31.6797 50 37.959 47.4023 42.6758 42.6758C47.3926 37.9492 50 31.6797 50 25C50 18.3203 47.4023 12.041 42.6758 7.32422Z" fill="#2C3B73"/>
</g>
<defs>
<clipPath id="clip0">
<rect width="50" height="50" fill="white"/>
</clipPath>
</defs>
</svg>
