<svg width="50" height="50" viewBox="0 0 50 50" fill="none" xmlns="http://www.w3.org/2000/svg">
<g clip-path="url(#clip0)">
<path d="M41.0119 41.0234C49.8596 32.1757 49.8596 17.8307 41.0119 8.98293C32.1641 0.135201 17.8191 0.135201 8.97141 8.98293C0.123675 17.8307 0.123675 32.1757 8.97141 41.0234C17.8191 49.8711 32.1641 49.8711 41.0119 41.0234Z" fill="#25D9F8"/>
<path d="M17.2363 3.71094C8.54492 6.875 2.34375 15.2148 2.34375 25C2.34375 37.5098 12.4902 47.6562 25 47.6562C30.7617 47.6562 36.0156 45.5078 40.0195 41.9629C13.291 39.0137 11.8848 13.623 17.2363 3.71094Z" fill="#00C0F1"/>
<path d="M43.6035 37.9395H33.3887C35.6641 33.5743 37.0703 28.9063 37.0703 25.0001C37.0703 21.0938 35.6641 16.4258 33.3887 12.0606H43.6035C43.252 11.5528 42.8809 11.0645 42.4902 10.5958H32.5879C30.8008 7.4903 28.5742 4.60944 26.1328 2.36334C25.7617 2.34381 25.3809 2.33405 25 2.33405C24.6191 2.33405 24.248 2.34381 23.8672 2.36334C21.4258 4.60944 19.209 7.4903 17.4121 10.5958H7.50977C7.11914 11.0645 6.74805 11.5528 6.39648 12.0606H16.6113C14.3359 16.4258 12.9297 21.0938 12.9297 25.0001C12.9297 28.9063 14.3359 33.5743 16.6113 37.9395H6.39648C6.74805 38.4473 7.11914 38.9356 7.50977 39.4044H17.4219C19.209 42.5098 21.4355 45.3907 23.877 47.6368C24.248 47.6563 24.6289 47.6661 25.0098 47.6661C25.3906 47.6661 25.7617 47.6563 26.1426 47.6368C28.584 45.3907 30.8008 42.5098 32.5977 39.4044H42.5098C42.8809 38.9258 43.252 38.4376 43.6035 37.9395ZM25 3.32037C27.1484 5.26373 29.1797 7.7735 30.8887 10.6055H19.1113C20.8203 7.7735 22.8516 5.26373 25 3.32037ZM25 46.6798C22.8516 44.7364 20.8203 42.2266 19.1113 39.3946H30.8887C29.1797 42.2266 27.1484 44.7364 25 46.6798ZM32.4219 36.6114C32.1973 37.0606 31.9629 37.5001 31.7285 37.9395H18.2715C18.0371 37.5001 17.8027 37.0606 17.5781 36.6114C15.5273 32.4903 14.3945 28.3594 14.3945 25.0001C14.3945 21.6407 15.5273 17.5196 17.5781 13.3887C17.8027 12.9395 18.0371 12.5001 18.2715 12.0606H31.7383C31.9824 12.5001 32.207 12.9395 32.4316 13.3887C34.4824 17.5098 35.6152 21.6407 35.6152 25.0001C35.6152 28.3594 34.4824 32.4805 32.4219 36.6114Z" fill="#E0F4FF"/>
<path d="M47.1387 18.8184H2.86133C1.2793 18.8184 0 20.0977 0 21.6798V28.3204C0 29.9024 1.2793 31.1817 2.86133 31.1817H47.1484C48.7305 31.1817 50.0098 29.9024 50.0098 28.3204V21.6798C50 20.0977 48.7207 18.8184 47.1387 18.8184Z" fill="#FFDA2D"/>
<path d="M2.86133 18.8184C1.2793 18.8184 0 20.0977 0 21.6798V28.3204C0 29.9024 1.2793 31.1817 2.86133 31.1817H26.9238C23.8867 29.17 22.6074 23.6426 23.877 18.8282L2.86133 18.8184Z" fill="#FDBF00"/>
<path d="M27.0807 28.5938C26.7682 28.5938 26.4948 28.3985 26.3971 28.1153L25.0006 24.2872L23.6041 28.1153C23.4967 28.4083 23.2233 28.5938 22.9205 28.5938C22.6178 28.5938 22.3346 28.3985 22.237 28.1153L20.1569 22.4024C20.0202 22.0216 20.2155 21.6016 20.5963 21.4649C20.9772 21.3282 21.3971 21.5235 21.5338 21.9044L22.9303 25.7325L24.3268 21.9044C24.4342 21.6114 24.7077 21.4259 25.0104 21.4259C25.3131 21.4259 25.5963 21.6212 25.694 21.9044L27.0905 25.7325L28.487 21.9044C28.6237 21.5235 29.0436 21.3282 29.4245 21.4649C29.8053 21.6016 30.0006 22.0216 29.8639 22.4024L27.7838 28.1153C27.6666 28.3985 27.3932 28.5938 27.0807 28.5938Z" fill="#47568C"/>
<path d="M15.8893 28.5938C15.5768 28.5938 15.3034 28.3985 15.2057 28.1153L13.8092 24.2872L12.4127 28.1153C12.3053 28.4083 12.0319 28.5938 11.7291 28.5938C11.4264 28.5938 11.1432 28.3985 11.0455 28.1153L8.96547 22.4024C8.82875 22.0216 9.02407 21.6016 9.40492 21.4649C9.78578 21.3282 10.2057 21.5235 10.3424 21.9044L11.7389 25.7325L13.1354 21.9044C13.2428 21.6114 13.5163 21.4259 13.819 21.4259C14.1217 21.4259 14.4049 21.6212 14.5026 21.9044L15.8991 25.7325L17.2956 21.9044C17.4323 21.5235 17.8522 21.3282 18.233 21.4649C18.6139 21.6016 18.8092 22.0216 18.6725 22.4024L16.5924 28.1153C16.4752 28.3985 16.2018 28.5938 15.8893 28.5938Z" fill="#47568C"/>
<path d="M38.2721 28.5938C37.9596 28.5938 37.6862 28.3985 37.5885 28.1153L36.192 24.2872L34.7955 28.1153C34.6881 28.4083 34.4147 28.5938 34.112 28.5938C33.8092 28.5938 33.526 28.3985 33.4284 28.1153L31.3483 22.4024C31.2116 22.0216 31.4069 21.6016 31.7877 21.4649C32.1686 21.3282 32.5885 21.5235 32.7252 21.9044L34.1217 25.7325L35.5182 21.9044C35.6256 21.6114 35.8991 21.4259 36.2018 21.4259C36.5045 21.4259 36.7877 21.6212 36.8854 21.9044L38.2819 25.7325L39.6784 21.9044C39.8151 21.5235 40.235 21.3282 40.6159 21.4649C40.9967 21.6016 41.192 22.0216 41.0553 22.4024L38.9655 28.1055C38.8581 28.3985 38.5846 28.5938 38.2721 28.5938Z" fill="#47568C"/>
</g>
<defs>
<clipPath id="clip0">
<rect width="50" height="50" fill="white"/>
</clipPath>
</defs>
</svg>
