<svg width="50" height="50" viewBox="0 0 50 50" fill="none" xmlns="http://www.w3.org/2000/svg">
<g clip-path="url(#clip0)">
<path d="M24.4238 38.8867H19.8242V44.0332H24.4238V38.8867Z" fill="#BBDCFF"/>
<path d="M24.4238 38.8867H19.8242V41.0742H24.4238V38.8867Z" fill="#C7B9BF"/>
<path d="M25.2246 44.0234H19.0137L12.373 45.3906C12.1973 45.4297 12.0703 45.5859 12.0703 45.7617V46.8457C12.0703 47.0606 12.2461 47.2266 12.4512 47.2266H31.7871C32.002 47.2266 32.168 47.0508 32.168 46.8457V45.7617C32.168 45.5762 32.041 45.4199 31.8652 45.3906L25.2246 44.0234Z" fill="#6E82A6"/>
<path d="M31.8652 45.3906L25.2246 44.0234H23.5156L29.2969 45.3906C29.4531 45.4297 29.5605 45.5859 29.5605 45.7617V46.8457C29.5605 47.0606 29.4141 47.2266 29.2285 47.2266H31.7871C32.0019 47.2266 32.168 47.0508 32.168 46.8457V45.7617C32.1777 45.5859 32.041 45.4297 31.8652 45.3906Z" fill="#3F5173"/>
<path d="M0 9.91211V36.2988C0 37.7246 1.16211 38.8867 2.58789 38.8867H41.6602C43.0859 38.8867 44.248 37.7246 44.248 36.2988V9.91211C44.248 8.48633 43.0859 7.32422 41.6602 7.32422H2.58789C1.16211 7.32422 0 8.47656 0 9.91211Z" fill="#47568C"/>
<path d="M4.0625 36.0156C3.4082 36.0156 2.87109 35.4785 2.87109 34.8242V11.3867C2.87109 10.7324 3.4082 10.1953 4.0625 10.1953H40.1758C40.8301 10.1953 41.3672 10.7324 41.3672 11.3867V34.8242C41.3672 35.4785 40.8301 36.0156 40.1758 36.0156H4.0625Z" fill="#FAAB63"/>
<path d="M6.24023 4.36521V30.5761C6.24023 31.4551 6.95312 32.1679 7.83203 32.1679H30.6445C31.5234 32.1679 32.2363 31.4551 32.2363 30.5761V4.36521C32.2363 3.48631 31.5234 2.77341 30.6445 2.77341H7.83203C6.95312 2.76365 6.24023 3.47654 6.24023 4.36521Z" fill="#E0F4FF"/>
<path d="M30.6543 2.76367H28.5254C29.4043 2.76367 30.1172 3.47656 30.1172 4.35547V30.5664C30.1172 31.4453 29.4043 32.1582 28.5254 32.1582H30.6543C31.5332 32.1582 32.2461 31.4453 32.2461 30.5664V4.36523C32.2461 3.47656 31.5332 2.76367 30.6543 2.76367Z" fill="#BBDCFF"/>
<path d="M30.6543 2.76367H7.83203C6.95312 2.76367 6.24023 3.47656 6.24023 4.35547V9.35547H32.2461V4.36523C32.2461 3.47656 31.5332 2.76367 30.6543 2.76367Z" fill="#61BDF6"/>
<path d="M31.8848 3.33984C31.5918 2.98828 31.1523 2.76367 30.6543 2.76367H28.5254C29.4043 2.76367 30.1172 3.47656 30.1172 4.35547V9.35547H32.2461V4.36523C32.2461 4.05273 32.1582 3.76953 32.002 3.51563C31.9727 3.4668 31.9434 3.42773 31.9141 3.38867C31.9043 3.36914 31.8945 3.35938 31.8848 3.33984Z" fill="#61BDF6"/>
<path d="M28.5352 7.2461C29.1662 7.2461 29.6777 6.73455 29.6777 6.10352C29.6777 5.47249 29.1662 4.96094 28.5352 4.96094C27.9041 4.96094 27.3926 5.47249 27.3926 6.10352C27.3926 6.73455 27.9041 7.2461 28.5352 7.2461Z" fill="#E1697F"/>
<path d="M24.0332 7.2461C24.6642 7.2461 25.1758 6.73455 25.1758 6.10352C25.1758 5.47249 24.6642 4.96094 24.0332 4.96094C23.4022 4.96094 22.8906 5.47249 22.8906 6.10352C22.8906 6.73455 23.4022 7.2461 24.0332 7.2461Z" fill="#FAAB63"/>
<path d="M19.5312 7.2461C20.1623 7.2461 20.6738 6.73455 20.6738 6.10352C20.6738 5.47249 20.1623 4.96094 19.5312 4.96094C18.9002 4.96094 18.3887 5.47249 18.3887 6.10352C18.3887 6.73455 18.9002 7.2461 19.5312 7.2461Z" fill="#5BC980"/>
<path d="M15.2344 21.8555C15.1758 21.9922 15.0098 22.0313 14.834 22.0313C14.6387 22.0313 14.4629 21.9727 14.4141 21.8555L13.8086 20.1465L13.2129 21.8457C13.1641 21.9727 12.9785 22.0313 12.7832 22.0313C12.6172 22.0313 12.4512 21.9824 12.3926 21.8457L11.1914 18.75C11.1621 18.6914 11.1523 18.6426 11.1523 18.6035C11.1523 18.3594 11.543 18.1836 11.8066 18.1836C11.9434 18.1836 12.0605 18.2422 12.0996 18.3496L12.8809 20.5762L13.4668 18.6426C13.5254 18.4668 13.6523 18.4375 13.8086 18.4375C13.9551 18.4375 14.1016 18.457 14.1504 18.6426L14.7266 20.5859L15.5176 18.3496C15.5566 18.252 15.6641 18.1836 15.8105 18.1836C16.0645 18.1836 16.4648 18.3594 16.4648 18.6035C16.4648 18.6523 16.4551 18.7012 16.4355 18.7402L15.2344 21.8555Z" fill="#5A5D9D"/>
<path d="M20.6641 21.8555C20.6055 21.9922 20.4395 22.0313 20.2637 22.0313C20.0684 22.0313 19.8926 21.9727 19.8437 21.8555L19.2383 20.1465L18.6426 21.8457C18.5937 21.9727 18.4082 22.0313 18.2129 22.0313C18.0469 22.0313 17.8809 21.9824 17.8223 21.8457L16.6211 18.75C16.5918 18.6914 16.582 18.6426 16.582 18.6035C16.582 18.3594 16.9727 18.1836 17.2363 18.1836C17.373 18.1836 17.4902 18.2422 17.5293 18.3496L18.3105 20.5762L18.8965 18.6426C18.9551 18.4668 19.082 18.4375 19.2383 18.4375C19.3848 18.4375 19.5312 18.457 19.5801 18.6426L20.1562 20.5859L20.9473 18.3496C20.9863 18.252 21.0938 18.1836 21.2402 18.1836C21.4941 18.1836 21.8945 18.3594 21.8945 18.6035C21.8945 18.6523 21.8848 18.7012 21.8652 18.7402L20.6641 21.8555Z" fill="#5A5D9D"/>
<path d="M26.0938 21.8555C26.0352 21.9922 25.8691 22.0313 25.6934 22.0313C25.498 22.0313 25.3223 21.9727 25.2734 21.8555L24.668 20.1465L24.0723 21.8457C24.0234 21.9727 23.8379 22.0313 23.6426 22.0313C23.4766 22.0313 23.3105 21.9824 23.252 21.8457L22.0508 18.75C22.0215 18.6914 22.0117 18.6426 22.0117 18.6035C22.0117 18.3594 22.4023 18.1836 22.666 18.1836C22.8027 18.1836 22.9199 18.2422 22.959 18.3496L23.7402 20.5762L24.3262 18.6426C24.3848 18.4668 24.5117 18.4375 24.668 18.4375C24.8145 18.4375 24.9609 18.457 25.0098 18.6426L25.5859 20.5859L26.377 18.3496C26.416 18.252 26.5234 18.1836 26.6699 18.1836C26.9238 18.1836 27.3242 18.3594 27.3242 18.6035C27.3242 18.6523 27.3145 18.7012 27.2949 18.7402L26.0938 21.8555Z" fill="#5A5D9D"/>
<path d="M21.2988 25.1367L31.3086 30.3125L24.7656 33.7012L21.2988 25.1367Z" fill="#61BDF6"/>
<path d="M31.3086 30.3125L31.6406 34.1699L34.3848 28.4961L21.2988 25.1367L31.3086 30.3125Z" fill="#4C98C8"/>
<path d="M31.6406 34.1699L28.3691 31.8359L31.3086 30.3125L31.6406 34.1699Z" fill="#50A5DA"/>
<path d="M21.2988 25.1367L38.3984 26.6699L34.3848 28.4961L21.2988 25.1367Z" fill="#61BDF6"/>
<path d="M45.1266 42.2168C44.7848 42.2168 44.4723 41.9825 44.4039 41.6309C44.316 41.2305 44.5699 40.8301 44.9703 40.7422C45.3805 40.6543 45.7711 40.4981 46.152 40.2832C46.5133 40.0782 46.9625 40.2051 47.1676 40.5664C47.3727 40.9278 47.2457 41.377 46.8844 41.5821C46.3863 41.8653 45.8492 42.0704 45.2926 42.1973C45.234 42.2071 45.1852 42.2168 45.1266 42.2168ZM42.1871 42.0606C42.1188 42.0606 42.0504 42.0508 41.982 42.0313C41.4938 41.8946 40.986 41.6993 40.4781 41.4551C40.107 41.2793 39.941 40.8399 40.1168 40.459C40.2926 40.0879 40.732 39.9219 41.1129 40.0977C41.5524 40.3028 41.982 40.4688 42.3922 40.586C42.7828 40.7032 43.0172 41.1133 42.9 41.5039C42.8121 41.8457 42.5094 42.0606 42.1871 42.0606ZM38.2613 39.961C38.1051 39.961 37.9488 39.9122 37.8121 39.8047C37.4117 39.502 37.0113 39.17 36.6207 38.8184C36.3082 38.545 36.2887 38.0762 36.5621 37.7637C36.8356 37.4512 37.3043 37.4317 37.6168 37.7051C37.9879 38.0274 38.359 38.3399 38.7203 38.6133C39.0524 38.8575 39.111 39.3262 38.8668 39.6582C38.7106 39.8633 38.486 39.961 38.2613 39.961ZM48.5934 39.5899C48.4664 39.5899 48.3395 39.5606 48.2223 39.4922C47.861 39.2872 47.7438 38.8379 47.9391 38.4766C48.1539 38.1055 48.3199 37.7051 48.4274 37.2754C48.5348 36.875 48.9449 36.6407 49.3453 36.7481C49.7457 36.8555 49.9801 37.2657 49.8727 37.6661C49.7262 38.2129 49.5114 38.7305 49.2379 39.2188C49.111 39.4629 48.8571 39.5899 48.5934 39.5899ZM35.0192 36.8946C34.8141 36.8946 34.5992 36.8067 34.4527 36.6407C34.1012 36.2305 33.7789 35.8204 33.4859 35.4297C33.2418 35.0977 33.3102 34.6289 33.6422 34.3848C33.9742 34.1407 34.443 34.209 34.6871 34.5411C34.9508 34.9024 35.2535 35.2832 35.5856 35.6641C35.859 35.9766 35.8199 36.4454 35.5074 36.7188C35.3609 36.836 35.1949 36.8946 35.0192 36.8946ZM49.2574 35.2637C48.9059 35.2637 48.5934 35.0196 48.525 34.6582C48.4371 34.2286 48.3102 33.7989 48.1344 33.3887C47.9684 33.0079 48.1442 32.5684 48.525 32.4122C48.9059 32.2461 49.3453 32.4219 49.5016 32.8028C49.7164 33.3106 49.8824 33.8379 49.9899 34.375C50.068 34.7754 49.8043 35.1661 49.4039 35.2442C49.3453 35.2637 49.2965 35.2637 49.2574 35.2637ZM47.1285 31.4063C46.943 31.4063 46.7574 31.3379 46.611 31.1914C46.2887 30.8789 45.9371 30.5957 45.5563 30.3418C45.2145 30.1172 45.1266 29.6485 45.3512 29.3067C45.5758 28.9649 46.0446 28.877 46.3863 29.1016C46.8453 29.4043 47.2653 29.7461 47.6461 30.1172C47.9391 30.4004 47.9488 30.879 47.6656 31.1719C47.5192 31.3379 47.3238 31.4063 47.1285 31.4063Z" fill="#5A5D9D"/>
</g>
<defs>
<clipPath id="clip0">
<rect width="50" height="50" fill="white"/>
</clipPath>
</defs>
</svg>
