<svg width="50" height="50" viewBox="0 0 50 50" fill="none" xmlns="http://www.w3.org/2000/svg">
<g clip-path="url(#clip0)">
<path d="M49.9695 47.9188C49.9695 48.5461 49.7604 49.0639 49.3422 49.4822C48.9239 49.7909 48.5057 50 47.8883 50H2.11056C1.59273 50 1.07491 49.7909 0.656662 49.4822C0.238419 49.0639 0.0292969 48.5461 0.0292969 47.9188V17.4268H49.9795L49.9695 47.9188Z" fill="#FAAB63"/>
<path d="M49.3437 49.4723C48.9255 49.7811 48.5072 49.9902 47.8898 49.9902H2.1121C1.59427 49.9902 1.07645 49.7811 0.658203 49.4723L25.0059 28.5602L49.3437 49.4723Z" fill="#FFB876"/>
<path d="M49.9695 17.4272L42.8893 22.5257L26.3488 34.3859C25.5123 35.0133 24.3671 35.0133 23.5405 34.3859L7.0996 22.5257L0.0292969 17.4272L7.10956 12.3286L22.5049 1.30487L23.6501 0.468388C24.4866 -0.158977 25.6318 -0.158977 26.4583 0.468388L27.6035 1.30487L34.9925 6.61258L38.6371 9.21167L42.8992 12.3286L49.9695 17.4272Z" fill="#61BDF6"/>
<path d="M42.8993 7.74781V22.5257L26.3488 34.3859C25.5123 35.0133 24.3671 35.0133 23.5406 34.3859L7.09961 22.5257V3.38613C7.09961 2.24094 8.03568 1.30487 9.18087 1.30487H36.3368L42.8993 7.74781Z" fill="#E0F4FF"/>
<path d="M36.4473 6.08479C36.4473 7.02086 37.1742 7.74781 38.1103 7.74781H42.9002L36.4473 1.30487V6.08479Z" fill="white"/>
<path d="M15.671 17.3945C15.4561 17.0234 14.9874 16.9062 14.626 17.1113L13.6495 17.6777V16.5546C13.6495 16.1347 13.3077 15.7929 12.8877 15.7929C12.4678 15.7929 12.126 16.1347 12.126 16.5546V17.6777L11.1495 17.1113C10.7784 16.8964 10.3194 17.0234 10.1045 17.3945C9.8897 17.7558 10.0166 18.2245 10.3877 18.4394L11.3643 19.0058L10.3877 19.5722C10.0166 19.787 9.89946 20.2558 10.1045 20.6171C10.2413 20.8613 10.5049 20.998 10.7686 20.998C10.8956 20.998 11.0323 20.9687 11.1495 20.8906L12.126 20.3242V21.4472C12.126 21.8671 12.4678 22.2089 12.8877 22.2089C13.3077 22.2089 13.6495 21.8671 13.6495 21.4472V20.3242L14.626 20.8906C14.7432 20.9589 14.8799 20.998 15.0069 20.998C15.2706 20.998 15.5245 20.8613 15.671 20.6171C15.8858 20.2558 15.7588 19.787 15.3877 19.5722L14.4112 19.0058L15.3877 18.4394C15.7588 18.2245 15.8858 17.7558 15.671 17.3945Z" fill="#FAAB63"/>
<path d="M23.6299 17.629C23.4151 17.2579 22.9463 17.1407 22.585 17.3458L21.6084 17.9122V16.7891C21.6084 16.3692 21.2666 16.0274 20.8467 16.0274C20.4268 16.0274 20.085 16.3692 20.085 16.7891V17.9122L19.1084 17.3458C18.7374 17.1309 18.2784 17.2579 18.0635 17.629C17.8487 18.0001 17.9756 18.459 18.3467 18.6739L19.3233 19.2403L18.3467 19.8067C17.9756 20.0215 17.8584 20.4903 18.0635 20.8516C18.2002 21.0958 18.4639 21.2325 18.7276 21.2325C18.8545 21.2325 18.9913 21.2032 19.1084 21.1251L20.085 20.5587V21.6817C20.085 22.1016 20.4268 22.4434 20.8467 22.4434C21.2666 22.4434 21.6084 22.1016 21.6084 21.6817V20.5587L22.585 21.1251C22.7022 21.1934 22.8389 21.2325 22.9659 21.2325C23.2295 21.2325 23.4834 21.0958 23.6299 20.8516C23.8448 20.4805 23.7178 20.0215 23.3467 19.8067L22.3702 19.2403L23.3467 18.6739C23.7178 18.4688 23.8448 18.0001 23.6299 17.629Z" fill="#FAAB63"/>
<path d="M31.5791 17.629C31.3643 17.2579 30.8955 17.1407 30.5342 17.3458L29.5577 17.9122V16.7891C29.5577 16.3692 29.2159 16.0274 28.7959 16.0274C28.376 16.0274 28.0342 16.3692 28.0342 16.7891V17.9122L27.0577 17.3458C26.6866 17.1309 26.2276 17.2579 26.0127 17.629C25.7979 18.0001 25.9249 18.459 26.2959 18.6739L27.2725 19.2403L26.2959 19.8067C25.9346 20.0215 25.8077 20.4903 26.0127 20.8516C26.1592 21.0958 26.4131 21.2325 26.6768 21.2325C26.8038 21.2325 26.9405 21.2032 27.0577 21.1251L28.0342 20.5587V21.6817C28.0342 22.1016 28.376 22.4434 28.7959 22.4434C29.2159 22.4434 29.5577 22.1016 29.5577 21.6817V20.5587L30.5342 21.1251C30.6514 21.1934 30.7881 21.2325 30.9151 21.2325C31.1787 21.2325 31.4327 21.0958 31.5791 20.8516C31.794 20.4805 31.667 20.0215 31.2959 19.8067L30.3194 19.2403L31.2959 18.6739C31.667 18.4688 31.794 18.0001 31.5791 17.629Z" fill="#FAAB63"/>
<path d="M39.2549 19.8067L38.2784 19.2403L39.2549 18.6739C39.6163 18.459 39.7432 17.9903 39.5381 17.629C39.3233 17.2676 38.8545 17.1407 38.4932 17.3458L37.5167 17.9122V16.7891C37.5167 16.3692 37.1749 16.0274 36.7549 16.0274C36.335 16.0274 35.9932 16.3692 35.9932 16.7891V17.9122L35.0167 17.3458C34.6456 17.1309 34.1866 17.2579 33.9717 17.629C33.7569 18.0001 33.8838 18.459 34.2549 18.6739L35.2315 19.2403L34.2549 19.8067C33.8936 20.0215 33.7666 20.4903 33.9717 20.8516C34.1182 21.0958 34.3721 21.2325 34.6358 21.2325C34.7627 21.2325 34.8995 21.2032 35.0167 21.1251L35.9932 20.5587V21.6817C35.9932 22.1016 36.335 22.4434 36.7549 22.4434C37.1749 22.4434 37.5167 22.1016 37.5167 21.6817V20.5587L38.4932 21.1251C38.6104 21.1934 38.7471 21.2325 38.8741 21.2325C39.1378 21.2325 39.3917 21.0958 39.5381 20.8516C39.7432 20.4805 39.626 20.0118 39.2549 19.8067Z" fill="#FAAB63"/>
<path d="M18.6387 9.52344H30.9922C31.4121 9.52344 31.7539 9.18164 31.7539 8.76172C31.7539 8.3418 31.4121 8 30.9922 8H18.6387C18.2188 8 17.877 8.3418 17.877 8.76172C17.877 9.18164 18.2188 9.52344 18.6387 9.52344Z" fill="#5A5D9D"/>
<path d="M14.0098 12.58H35.6211C36.041 12.58 36.3828 12.2382 36.3828 11.8183C36.3828 11.3984 36.041 11.0566 35.6211 11.0566H14.0098C13.5898 11.0566 13.248 11.3984 13.248 11.8183C13.248 12.2382 13.5898 12.58 14.0098 12.58Z" fill="#5A5D9D"/>
</g>
<defs>
<clipPath id="clip0">
<rect width="50" height="50" fill="white"/>
</clipPath>
</defs>
</svg>
