<svg width="50" height="50" viewBox="0 0 50 50" fill="none" xmlns="http://www.w3.org/2000/svg">
<path d="M49.1895 21.4941C49.1895 10.039 39.9023 0.742126 28.4375 0.742126C16.9727 0.742126 7.68555 10.039 7.68555 21.4941C7.68555 32.9492 16.9727 42.246 28.4375 42.246C39.9023 42.246 49.1895 32.9589 49.1895 21.4941Z" fill="#61BDF6"/>
<path d="M29.3457 0.771545C37.9492 3.73053 44.1309 11.8946 44.1309 21.4942C44.1309 31.1036 37.9492 39.2676 29.3457 42.2266C40.3906 41.7579 49.1895 32.6563 49.1895 21.4942C49.1895 10.3419 40.3809 1.2403 29.3457 0.771545Z" fill="#61BDF6"/>
<path d="M43.6426 6.29883C39.5801 2.23633 34.1797 0 28.4375 0C22.6953 0 17.2949 2.23633 13.2324 6.29883C9.17969 10.3613 6.94336 15.752 6.94336 21.4941C6.94336 27.2363 9.17969 32.6367 13.2324 36.6992C17.2949 40.7617 22.6953 42.998 28.4375 42.998C34.1797 42.998 39.5801 40.7617 43.6426 36.6992C47.7051 32.6367 49.9414 27.2363 49.9414 21.4941C49.9414 15.752 47.7051 10.3613 43.6426 6.29883ZM40.1074 20.752C40.0586 18.1152 39.7559 15.5664 39.2285 13.1934C40.498 13.6035 41.6895 14.0918 42.7734 14.6484C46.0742 16.3379 48.0273 18.4863 48.3887 20.752H40.1074ZM38.6035 21.2109H29.1895V11.6211C32.1484 11.6797 34.9902 12.0508 37.5684 12.7148C38.1934 15.1953 38.5547 18.3887 38.6035 21.2109ZM29.1895 10.1172V1.55273C31.543 1.89453 33.7598 3.86719 35.498 7.17773C36.123 8.35938 36.6504 9.6582 37.0996 11.0645C34.6289 10.4883 31.9531 10.166 29.1895 10.1172ZM27.6855 1.55273V10.1172C24.9219 10.166 22.2461 10.4883 19.7754 11.0547C20.2148 9.6582 20.752 8.34961 21.377 7.16797C23.125 3.86719 25.3418 1.89453 27.6855 1.55273ZM27.6855 11.6211V21.2207H18.2715C18.3203 18.3887 18.6816 15.2051 19.3066 12.7148C21.8848 12.0508 24.7266 11.6699 27.6855 11.6211ZM16.7773 20.752H8.49609C8.84766 18.4766 10.8105 16.3379 14.1113 14.6484C15.1953 14.0918 16.3867 13.6035 17.6563 13.1934C17.1191 15.5664 16.8164 18.1152 16.7773 20.752ZM16.7773 22.2461C16.8262 24.8828 17.1289 27.4316 17.6563 29.8047C16.3867 29.3945 15.1953 28.9062 14.1113 28.3496C10.8105 26.6602 8.84766 24.5215 8.49609 22.2461H16.7773ZM18.2715 22.2461H27.6855V31.377C24.7266 31.3184 21.8848 30.9473 19.3066 30.2832C18.6816 27.8027 18.3203 25.0781 18.2715 22.2461ZM27.6855 32.8809V41.4453C25.332 41.1035 23.1152 39.1309 21.377 35.8203C20.752 34.6387 20.2246 33.3398 19.7754 31.9336C22.2461 32.5098 24.9219 32.8223 27.6855 32.8809ZM29.1895 41.4453V32.8809C31.9531 32.832 34.6289 32.5098 37.0996 31.9434C36.6602 33.3398 36.123 34.6484 35.498 35.8301C33.7598 39.1309 31.543 41.0937 29.1895 41.4453ZM29.1895 31.377V22.2461H38.6035C38.5547 25.0781 38.1934 27.793 37.5684 30.2832C34.9902 30.9473 32.1484 31.3281 29.1895 31.377ZM40.1074 22.2461H48.3887C48.0371 24.5215 46.0742 26.6602 42.7734 28.3496C41.6895 28.9062 40.498 29.3945 39.2285 29.8047C39.7559 27.4316 40.0586 24.8828 40.1074 22.2461ZM47.8027 16.4941C46.7285 15.3223 45.2637 14.2383 43.4473 13.3105C42.041 12.5879 40.4688 11.9824 38.7891 11.4941C38.2715 9.66797 37.6172 7.97852 36.8164 6.47461C35.8789 4.6875 34.7949 3.24219 33.6035 2.17773C40.5469 4.04297 46.0059 9.54102 47.8027 16.4941ZM23.2617 2.17773C22.0801 3.24219 20.9961 4.6875 20.0488 6.47461C19.2578 7.97852 18.5938 9.66797 18.0762 11.4941C16.3867 11.9824 14.8242 12.5879 13.418 13.3105C11.6016 14.2383 10.1367 15.3223 9.0625 16.4941C10.8691 9.54102 16.3281 4.04297 23.2617 2.17773ZM9.07227 26.5039C10.1465 27.6758 11.6113 28.7598 13.4277 29.6875C14.834 30.4102 16.4062 31.0156 18.0859 31.5039C18.6035 33.3301 19.2578 35.0195 20.0586 36.5234C20.9961 38.3105 22.0801 39.7559 23.2715 40.8203C16.3281 38.9551 10.8691 33.457 9.07227 26.5039ZM33.6133 40.8203C34.7949 39.7559 35.8789 38.3105 36.8262 36.5234C37.6172 35.0195 38.2812 33.3301 38.7988 31.5039C40.4883 31.0156 42.0508 30.4102 43.457 29.6875C45.2734 28.7598 46.7383 27.6758 47.8125 26.5039C46.0059 33.457 40.5469 38.9551 33.6133 40.8203Z" fill="#5DB3E9"/>
<path d="M48.3399 35.1074C47.9297 35.1074 47.5879 35.4395 47.5879 35.8594V42.1875C47.5879 43.5645 46.4649 44.6875 45.0879 44.6875H43.9453L44.668 43.9648C44.9609 43.6719 44.9609 43.1934 44.668 42.9004C44.375 42.6074 43.8965 42.6074 43.6035 42.9004L41.6895 44.8145C41.4941 44.9512 41.3672 45.1758 41.3672 45.4297V45.4395V45.4492C41.3672 45.6445 41.4453 45.8398 41.582 45.9766L43.5645 47.959C43.7109 48.1055 43.9063 48.1738 44.0918 48.1738C44.2871 48.1738 44.4727 48.0957 44.6191 47.959C44.9121 47.666 44.9121 47.1875 44.6191 46.8945L43.8965 46.1719H45.0684C47.2754 46.1719 49.0625 44.3848 49.0625 42.1777V35.8398C49.0918 35.4395 48.75 35.1074 48.3399 35.1074Z" fill="#E1697F"/>
<path d="M9.58984 3.33002L7.60742 1.3476C7.31445 1.05463 6.83594 1.05463 6.54297 1.3476C6.25 1.64056 6.25 2.11908 6.54297 2.41205L7.26563 3.1347H6.09375C3.88672 3.1347 2.09961 4.92181 2.09961 7.12885V13.4667C2.09961 13.8769 2.43164 14.2187 2.85156 14.2187C3.27148 14.2187 3.60352 13.8867 3.60352 13.4667V7.11908C3.60352 5.74213 4.72656 4.61908 6.10352 4.61908H7.24609L6.52344 5.34174C6.23047 5.6347 6.23047 6.11322 6.52344 6.40619C6.66992 6.55267 6.86523 6.62103 7.05078 6.62103C7.24609 6.62103 7.43164 6.54291 7.57812 6.40619L9.49219 4.49213C9.6875 4.35541 9.81445 4.1308 9.81445 3.87689V3.86713C9.81445 3.67181 9.74609 3.4765 9.58984 3.33002Z" fill="#6ACA8B"/>
<path d="M43.6426 6.29883C39.5801 2.23633 34.1797 0 28.4375 0C27.8809 0 27.334 0.0195313 26.7871 0.0585938C29.834 0.703125 32.6465 1.98242 35.0781 3.75C34.6094 3.1543 34.1211 2.62695 33.6133 2.17773C40.5469 4.0332 46.0059 9.53125 47.8027 16.4941C46.7285 15.3223 45.2637 14.2383 43.4473 13.3105C43.0859 13.125 42.7051 12.9395 42.3145 12.7734C42.6074 13.4375 42.8613 14.1211 43.0859 14.8145C46.1914 16.4746 48.0273 18.5547 48.3789 20.752H44.1211C44.1309 21.0059 44.1309 21.25 44.1309 21.5039C44.1309 21.7578 44.1211 22.002 44.1211 22.2559H48.3789C48.0371 24.4531 46.1914 26.5332 43.0859 28.1934C42.8613 28.8867 42.6074 29.5703 42.3145 30.2344C42.7051 30.0586 43.0762 29.8828 43.4473 29.6973C45.2637 28.7695 46.7285 27.6855 47.8027 26.5137C46.0059 33.4668 40.5469 38.9648 33.6133 40.8301C34.1211 40.3711 34.6094 39.8438 35.0781 39.2578C32.6465 41.0254 29.834 42.3047 26.7871 42.9492C27.334 42.9883 27.8809 43.0078 28.4375 43.0078C34.1797 43.0078 39.5801 40.7715 43.6426 36.709C47.7051 32.6465 49.9414 27.2461 49.9414 21.5039C49.9414 15.7617 47.7051 10.3613 43.6426 6.29883Z" fill="#5DB3E9"/>
<path d="M35.8691 50H3.49609C1.5625 50 0 48.4375 0 46.5137V18.125C0 17.7734 0.292969 17.4805 0.644531 17.4805H14.2871C14.502 17.4805 14.707 17.5879 14.8242 17.7637L16.7187 20.6055C16.8359 20.7812 17.041 20.8887 17.2559 20.8887H38.7207C39.0723 20.8887 39.3652 21.1816 39.3652 21.5332V46.5039C39.3652 48.4375 37.8027 50 35.8691 50Z" fill="#FAAB63"/>
<path d="M38.7207 20.8984H17.2559C17.041 20.8984 16.8359 20.7909 16.7187 20.6152L14.8242 17.7734C14.707 17.5976 14.502 17.4902 14.2871 17.4902H0.644531C0.292969 17.4804 0 17.7734 0 18.1249V20.6835H9.375C10.6543 20.6835 11.8555 21.3281 12.5684 22.3925C13.2812 23.457 14.4824 24.1015 15.7617 24.1015H32.3145C34.4336 24.1015 36.1523 25.8202 36.1523 27.9394V49.707C36.1523 49.8046 36.1426 49.8925 36.1426 49.9804C37.9395 49.8437 39.3555 48.3398 39.3555 46.5038V21.5429C39.3652 21.1913 39.0723 20.8984 38.7207 20.8984Z" fill="#EB9F5A"/>
<path d="M9.89258 39.3166V30.381C9.89258 30.2053 9.9707 30.0685 10.127 29.9709C10.2832 29.8732 10.4687 29.8146 10.6738 29.8146H15.4785C15.6641 29.8146 15.8008 29.8928 15.8887 30.0392C15.9766 30.1955 16.0254 30.3713 16.0254 30.5861C16.0254 30.8107 15.9766 30.9963 15.8789 31.1525C15.7812 31.3088 15.6445 31.3869 15.4687 31.3869H11.6699V34.1408H13.7793C13.9551 34.1408 14.0918 34.2092 14.1895 34.3459C14.2871 34.4826 14.3359 34.6486 14.3359 34.8537C14.3359 35.0392 14.2871 35.1955 14.1895 35.3322C14.0918 35.4689 13.9551 35.5373 13.7793 35.5373H11.6699V39.3068C11.6699 39.4826 11.582 39.6193 11.3965 39.717C11.2207 39.8146 11.0059 39.8732 10.7715 39.8732C10.5273 39.8732 10.3125 39.8244 10.1367 39.717C9.98047 39.6291 9.89258 39.4924 9.89258 39.3166Z" fill="#5A5D9D"/>
<path d="M16.2305 30.586C16.2305 30.3809 16.2793 30.1954 16.377 30.0391C16.4746 29.8829 16.6113 29.8047 16.7969 29.8047H22.627C22.8125 29.8047 22.9492 29.8829 23.0469 30.0391C23.1445 30.1954 23.1934 30.3809 23.1934 30.586C23.1934 30.8008 23.1445 30.9864 23.0371 31.1426C22.9297 31.2989 22.8027 31.377 22.627 31.377H20.6055V39.3067C20.6055 39.4825 20.5176 39.6192 20.332 39.7266C20.1562 39.8243 19.9414 39.8829 19.707 39.8829C19.4629 39.8829 19.248 39.834 19.0723 39.7266C18.8965 39.629 18.8086 39.4825 18.8086 39.3067V31.377H16.7871C16.6113 31.377 16.4746 31.2989 16.377 31.1524C16.2793 31.0059 16.2305 30.8106 16.2305 30.586Z" fill="#5A5D9D"/>
<path d="M24.1602 39.3166V30.3615C24.1602 30.215 24.2188 30.0881 24.3457 29.9807C24.4727 29.8732 24.6289 29.8146 24.834 29.8146H27.6074C28.5547 29.8146 29.3066 30.0685 29.8828 30.5666C30.4492 31.0646 30.7324 31.8459 30.7324 32.9103V32.9885C30.7324 34.0627 30.4395 34.8537 29.8438 35.3615C29.248 35.8693 28.4668 36.1232 27.4902 36.1232H25.9473V39.3166C25.9473 39.4924 25.8594 39.6291 25.6738 39.7267C25.498 39.8244 25.2832 39.883 25.0488 39.883C24.8047 39.883 24.5898 39.8342 24.4141 39.7267C24.248 39.6291 24.1602 39.4924 24.1602 39.3166ZM25.957 34.717H27.5C27.959 34.717 28.3105 34.5803 28.5645 34.3166C28.8184 34.0529 28.9453 33.6525 28.9453 33.1349V32.9689C28.9453 32.4416 28.8184 32.051 28.5645 31.7873C28.3105 31.5236 27.959 31.3869 27.5 31.3869H25.957V34.717Z" fill="#5A5D9D"/>
</svg>
