<svg width="50" height="50" viewBox="0 0 50 50" fill="none" xmlns="http://www.w3.org/2000/svg">
<path d="M26.4648 36.7188V42.5781C26.4648 43.3983 25.8205 44.043 25 44.043C24.1795 44.043 23.5352 43.3983 23.5352 42.5781V36.7188C23.5352 35.8982 24.1795 35.2539 25 35.2539C25.8205 35.2539 26.4648 35.8982 26.4648 36.7188Z" fill="#5A5D9D"/>
<path d="M26.4648 7.42188V13.2812C26.4648 14.1014 25.8205 14.7461 25 14.7461C24.1795 14.7461 23.5352 14.1014 23.5352 13.2812V7.42188C23.5352 6.60133 24.1795 5.95703 25 5.95703C25.8205 5.95703 26.4648 6.60133 26.4648 7.42188Z" fill="#5A5D9D"/>
<path d="M14.8219 20.6496C14.5759 20.6496 14.3253 20.5882 14.0964 20.4566L6.30867 16.0063C5.60638 15.6043 5.36186 14.7101 5.76393 14.0078C6.16447 13.304 7.05825 13.0564 7.76207 13.4627L15.5498 17.9129C16.2524 18.315 16.497 19.2091 16.0949 19.9114C15.8248 20.3848 15.3312 20.6496 14.8219 20.6496Z" fill="#5A5D9D"/>
<path d="M7.03688 36.7302C6.52762 36.7302 6.03399 36.4654 5.76391 35.992C5.36184 35.2898 5.60637 34.3956 6.30903 33.9935L14.0967 29.5433C14.796 29.1386 15.6932 29.3858 16.0949 30.0884C16.497 30.7907 16.2524 31.6849 15.5501 32.0866L7.76205 36.5372C7.53355 36.6688 7.28293 36.7302 7.03688 36.7302Z" fill="#5A5D9D"/>
<path d="M42.9626 36.7302C42.7165 36.7302 42.4659 36.6688 42.237 36.5372L34.4493 32.0866C33.747 31.6849 33.5025 30.7907 33.9046 30.0884C34.3051 29.3858 35.1977 29.1386 35.9027 29.5433L43.6904 33.9935C44.3931 34.3956 44.6376 35.2894 44.2355 35.992C43.9654 36.4654 43.4718 36.7302 42.9626 36.7302Z" fill="#5A5D9D"/>
<path d="M35.1775 20.6496C34.6682 20.6496 34.1746 20.3848 33.9045 19.9114C33.5025 19.2091 33.747 18.315 34.4497 17.9129L42.2374 13.4627C42.9397 13.0564 43.8338 13.304 44.2355 14.0078C44.6376 14.7101 44.3931 15.6043 43.6908 16.0063L35.9031 20.4566C35.6742 20.5882 35.4236 20.6496 35.1775 20.6496Z" fill="#5A5D9D"/>
<path d="M25 14.7461V5.95703C25.8205 5.95703 26.4648 6.60133 26.4648 7.42188V13.2812C26.4648 14.1014 25.8205 14.7461 25 14.7461Z" fill="#5A5D9D"/>
<path d="M26.4648 36.7188V42.5781C26.4648 43.3983 25.8205 44.043 25 44.043V35.2539C25.8205 35.2539 26.4648 35.8982 26.4648 36.7188Z" fill="#5A5D9D"/>
<path d="M45.5078 17.6758C43.0847 17.6758 41.1133 15.7043 41.1133 13.2812C41.1133 10.8582 43.0847 8.88672 45.5078 8.88672C47.9309 8.88672 50 10.8582 50 13.2812C50 15.7043 47.9309 17.6758 45.5078 17.6758Z" fill="#61BDF6"/>
<path d="M45.5078 41.1133C43.0847 41.1133 41.1133 39.1418 41.1133 36.7188C41.1133 34.2957 43.0847 32.3242 45.5078 32.3242C47.9309 32.3242 50 34.2957 50 36.7188C50 39.1418 47.9309 41.1133 45.5078 41.1133Z" fill="#61BDF6"/>
<path d="M4.49219 41.1133C2.06909 41.1133 0 39.1418 0 36.7188C0 34.2957 2.06909 32.3242 4.49219 32.3242C6.91528 32.3242 8.88672 34.2957 8.88672 36.7188C8.88672 39.1418 6.91528 41.1133 4.49219 41.1133Z" fill="#61BDF6"/>
<path d="M25 41.1133C22.5681 41.1133 20.6055 43.0759 20.6055 45.5078C20.6055 47.9393 22.5681 50 25 50C27.4319 50 29.3945 47.9393 29.3945 45.5078C29.3945 43.0759 27.4319 41.1133 25 41.1133Z" fill="#61BDF6"/>
<path d="M25 0C22.5681 0 20.6055 2.06032 20.6055 4.49219C20.6055 6.92368 22.5681 8.88672 25 8.88672C27.4319 8.88672 29.3945 6.92368 29.3945 4.49219C29.3945 2.06032 27.4319 0 25 0Z" fill="#61BDF6"/>
<path d="M4.49219 17.6758C2.06909 17.6758 0 15.7043 0 13.2812C0 10.8582 2.06909 8.88672 4.49219 8.88672C6.91528 8.88672 8.88672 10.8582 8.88672 13.2812C8.88672 15.7043 6.91528 17.6758 4.49219 17.6758Z" fill="#61BDF6"/>
<path d="M11.477 11.8809L12.7588 11.3316C13.5026 11.0123 13.8475 10.1513 13.5286 9.409C13.2108 8.66361 12.3411 8.31723 11.606 8.63919L10.3242 9.18851C9.58037 9.50742 9.23552 10.3688 9.55443 11.1111C9.87639 11.8657 10.7503 12.1972 11.477 11.8809Z" fill="#61BDF6"/>
<path d="M5.95703 20.6055C5.95703 19.796 5.30167 19.1406 4.49219 19.1406C3.68271 19.1406 3.02734 19.796 3.02734 20.6055V22.0703C3.02734 22.8798 3.68271 23.5352 4.49219 23.5352C5.30167 23.5352 5.95703 22.8798 5.95703 22.0703V20.6055Z" fill="#61BDF6"/>
<path d="M4.49219 26.4648C3.68271 26.4648 3.02734 27.1202 3.02734 27.9297V29.3945C3.02734 30.204 3.68271 30.8594 4.49219 30.8594C5.30167 30.8594 5.95703 30.204 5.95703 29.3945V27.9297C5.95703 27.1202 5.30167 26.4648 4.49219 26.4648Z" fill="#61BDF6"/>
<path d="M12.7588 38.6684L11.477 38.1191C10.7374 37.7975 9.87333 38.142 9.55443 38.8889C9.23552 39.6313 9.58037 40.4926 10.3242 40.8115L11.606 41.3608C12.3323 41.6771 13.2062 41.346 13.5286 40.591C13.8475 39.8487 13.5026 38.9873 12.7588 38.6684Z" fill="#61BDF6"/>
<path d="M19.167 41.4152L17.8852 40.8658C17.1471 40.5427 16.2804 40.8887 15.9626 41.6357C15.6437 42.378 15.9886 43.2394 16.7324 43.5583L18.0142 44.1076C18.7405 44.4238 19.6144 44.0927 19.9368 43.3378C20.2557 42.5954 19.9108 41.7341 19.167 41.4152Z" fill="#61BDF6"/>
<path d="M32.1138 40.8656L30.832 41.415C30.0882 41.7342 29.7433 42.5952 30.0622 43.3376C30.3842 44.0921 31.2581 44.4236 31.9848 44.1074L33.2666 43.558C34.0104 43.2391 34.3553 42.3778 34.0364 41.6354C33.7175 40.8885 32.8504 40.541 32.1138 40.8656Z" fill="#61BDF6"/>
<path d="M38.522 38.1191L37.2402 38.6684C36.4964 38.9877 36.1515 39.8486 36.4704 40.591C36.7924 41.3455 37.6663 41.677 38.393 41.3608L39.6748 40.8115C40.4186 40.4926 40.7635 39.6312 40.4446 38.8889C40.1257 38.1419 39.2586 37.7944 38.522 38.1191Z" fill="#61BDF6"/>
<path d="M45.5078 26.4648C44.6983 26.4648 44.043 27.1202 44.043 27.9297V29.3945C44.043 30.204 44.6983 30.8594 45.5078 30.8594C46.3173 30.8594 46.9727 30.204 46.9727 29.3945V27.9297C46.9727 27.1202 46.3173 26.4648 45.5078 26.4648Z" fill="#61BDF6"/>
<path d="M46.9727 20.6055C46.9727 19.796 46.3173 19.1406 45.5078 19.1406C44.6983 19.1406 44.043 19.796 44.043 20.6055V22.0703C44.043 22.8798 44.6983 23.5352 45.5078 23.5352C46.3173 23.5352 46.9727 22.8798 46.9727 22.0703V20.6055Z" fill="#61BDF6"/>
<path d="M37.2402 11.3317L38.522 11.881C39.2487 12.1972 40.1222 11.8661 40.4446 11.1112C40.7635 10.3688 40.4186 9.50747 39.6748 9.18856L38.393 8.63924C37.6549 8.32033 36.7882 8.66365 36.4704 9.40905C36.1515 10.1514 36.4964 11.0127 37.2402 11.3317Z" fill="#61BDF6"/>
<path d="M30.832 8.58481L32.1138 9.13413C32.8405 9.45037 33.714 9.11925 34.0364 8.36433C34.3553 7.62199 34.0104 6.76063 33.2666 6.44172L31.9848 5.8924C31.2467 5.56892 30.38 5.91682 30.0622 6.66221C29.7433 7.40455 30.0882 8.26591 30.832 8.58481Z" fill="#61BDF6"/>
<path d="M17.8852 9.13429L19.167 8.58497C19.9108 8.26568 20.2557 7.40471 19.9368 6.66236C19.6175 5.91697 18.7508 5.5664 18.0142 5.89256L16.7324 6.44187C15.9886 6.76078 15.6437 7.62214 15.9626 8.36448C16.2846 9.11903 17.1585 9.45053 17.8852 9.13429Z" fill="#61BDF6"/>
<path d="M29.3945 45.5078C29.3945 47.9393 27.4319 50 25 50V41.1133C27.4319 41.1133 29.3945 43.0759 29.3945 45.5078Z" fill="#61BDF6"/>
<path d="M25 8.88672V0C27.4319 0 29.3945 2.06032 29.3945 4.49219C29.3945 6.92368 27.4319 8.88672 25 8.88672Z" fill="#61BDF6"/>
<path d="M25 11.8164C17.7345 11.8164 11.8164 17.7341 11.8164 25C11.8164 32.2655 17.7345 38.1836 25 38.1836C32.2655 38.1836 38.1836 32.2655 38.1836 25C38.1836 17.7341 32.2655 11.8164 25 11.8164Z" fill="#61BDF6"/>
<path d="M38.1836 25C38.1836 32.2655 32.2655 38.1836 25 38.1836V11.8164C32.2655 11.8164 38.1836 17.7341 38.1836 25Z" fill="#61BDF6"/>
<path d="M35.2539 25C35.2539 30.6541 30.6541 35.2539 25 35.2539C19.3459 35.2539 14.7461 30.6541 14.7461 25C14.7461 19.3459 19.3459 14.7461 25 14.7461C30.6541 14.7461 35.2539 19.3459 35.2539 25Z" fill="#61BDF6"/>
<path d="M35.2539 25C35.2539 30.6541 30.6541 35.2539 25 35.2539V14.7461C30.6541 14.7461 35.2539 19.3459 35.2539 25Z" fill="#61BDF6"/>
<path d="M38.1836 25C38.1836 25.8202 37.5393 26.4648 36.7188 26.4648H13.2812C12.4607 26.4648 11.8164 25.8202 11.8164 25C11.8164 24.1795 12.4607 23.5352 13.2812 23.5352H36.7188C37.5393 23.5352 38.1836 24.1795 38.1836 25Z" fill="#61BDF6"/>
<path d="M25 11.8164C21.162 11.8164 19.1406 18.4376 19.1406 25C19.1406 31.5624 21.162 38.1836 25 38.1836C28.838 38.1836 30.8594 31.5624 30.8594 25C30.8594 18.4376 28.838 11.8164 25 11.8164ZM25 35.2539C24.1505 35.2539 22.0703 31.6502 22.0703 25C22.0703 18.3495 24.1505 14.7461 25 14.7461C25.8495 14.7461 27.9297 18.3495 27.9297 25C27.9297 31.6502 25.8495 35.2539 25 35.2539Z" fill="#61BDF6"/>
<path d="M38.1836 25C38.1836 25.8202 37.5393 26.4648 36.7188 26.4648H25V23.5352H36.7188C37.5393 23.5352 38.1836 24.1795 38.1836 25Z" fill="#61BDF6"/>
<path d="M30.8594 25C30.8594 31.5624 28.838 38.1836 25 38.1836V35.2539C25.8495 35.2539 27.9297 31.6502 27.9297 25C27.9297 18.3495 25.8495 14.7461 25 14.7461V11.8164C28.838 11.8164 30.8594 18.4376 30.8594 25Z" fill="#61BDF6"/>
</svg>
