<svg width="50" height="50" viewBox="0 0 50 50" fill="none" xmlns="http://www.w3.org/2000/svg">
<g clip-path="url(#clip0)">
<path d="M5.76172 11.8164H35.2539V20.6055H5.76172V11.8164Z" fill="#5A5D9D"/>
<path d="M20.5078 11.8164H35.2539V20.6055H20.5078V11.8164Z" fill="#2C3B73"/>
<path d="M5.76172 26.4648H35.2539V35.2539H5.76172V26.4648Z" fill="#5A5D9D"/>
<path d="M20.5078 26.4648H35.2539V35.2539H20.5078V26.4648Z" fill="#2C3B73"/>
<path d="M39.6484 3.02728H1.36719C0.546646 3.02728 -0.0976562 3.67159 -0.0976562 4.49213V13.2812C-0.0976562 14.1014 0.546646 14.746 1.36719 14.746H39.6484C40.469 14.746 41.1133 14.1014 41.1133 13.2812V4.49213C41.1133 3.67159 40.469 3.02728 39.6484 3.02728Z" fill="#888BBD"/>
<path d="M41.1133 4.49213V13.2812C41.1133 14.1014 40.469 14.746 39.6484 14.746H20.5078V3.02728H39.6484C40.469 3.02728 41.1133 3.67159 41.1133 4.49213Z" fill="#5A5D9D"/>
<path d="M8.69141 8.88666C8.69141 9.69576 8.03566 10.3515 7.22656 10.3515C6.41747 10.3515 5.76172 9.69576 5.76172 8.88666C5.76172 8.07756 6.41747 7.42181 7.22656 7.42181C8.03566 7.42181 8.69141 8.07756 8.69141 8.88666Z" fill="#61BDF6"/>
<path d="M14.5508 8.88666C14.5508 9.69576 13.895 10.3515 13.0859 10.3515C12.2768 10.3515 11.6211 9.69576 11.6211 8.88666C11.6211 8.07756 12.2768 7.42181 13.0859 7.42181C13.895 7.42181 14.5508 8.07756 14.5508 8.88666Z" fill="#61BDF6"/>
<path d="M39.6484 17.6758H1.36719C0.546646 17.6758 -0.0976562 18.3201 -0.0976562 19.1406V27.9297C-0.0976562 28.7499 0.546646 29.3945 1.36719 29.3945H39.6484C40.469 29.3945 41.1133 28.7499 41.1133 27.9297V19.1406C41.1133 18.3201 40.469 17.6758 39.6484 17.6758Z" fill="#888BBD"/>
<path d="M41.1133 19.1406V27.9297C41.1133 28.7499 40.469 29.3945 39.6484 29.3945H20.5078V17.6758H39.6484C40.469 17.6758 41.1133 18.3201 41.1133 19.1406Z" fill="#5A5D9D"/>
<path d="M8.69141 23.5352C8.69141 24.3443 8.03566 25 7.22656 25C6.41747 25 5.76172 24.3443 5.76172 23.5352C5.76172 22.7261 6.41747 22.0703 7.22656 22.0703C8.03566 22.0703 8.69141 22.7261 8.69141 23.5352Z" fill="#61BDF6"/>
<path d="M14.5508 23.5352C14.5508 24.3443 13.895 25 13.0859 25C12.2768 25 11.6211 24.3443 11.6211 23.5352C11.6211 22.7261 12.2768 22.0703 13.0859 22.0703C13.895 22.0703 14.5508 22.7261 14.5508 23.5352Z" fill="#61BDF6"/>
<path d="M39.6484 32.3242H1.36719C0.546646 32.3242 -0.0976562 32.9685 -0.0976562 33.7891V42.5781C-0.0976562 43.3983 0.546646 44.043 1.36719 44.043H39.6484C40.469 44.043 41.1133 43.3983 41.1133 42.5781V33.7891C41.1133 32.9685 40.469 32.3242 39.6484 32.3242Z" fill="#888BBD"/>
<path d="M41.1133 33.7891V42.5781C41.1133 43.3983 40.469 44.043 39.6484 44.043H20.5078V32.3242H39.6484C40.469 32.3242 41.1133 32.9685 41.1133 33.7891Z" fill="#5A5D9D"/>
<path d="M8.69141 38.1837C8.69141 38.9928 8.03566 39.6485 7.22656 39.6485C6.41747 39.6485 5.76172 38.9928 5.76172 38.1837C5.76172 37.3746 6.41747 36.7188 7.22656 36.7188C8.03566 36.7188 8.69141 37.3746 8.69141 38.1837Z" fill="#61BDF6"/>
<path d="M14.5508 38.1837C14.5508 38.9928 13.895 39.6485 13.0859 39.6485C12.2768 39.6485 11.6211 38.9928 11.6211 38.1837C11.6211 37.3746 12.2768 36.7188 13.0859 36.7188C13.895 36.7188 14.5508 37.3746 14.5508 38.1837Z" fill="#61BDF6"/>
<path d="M49.4629 34.8145L46.5332 37.7441C45.8008 38.5059 44.5995 38.1836 44.1601 37.4512L41.5527 34.8145C40.9668 34.2579 40.9668 33.3202 41.5527 32.7637C42.1093 32.1777 43.0466 32.1777 43.6035 32.7637C42.5488 29.1309 39.2384 26.4648 35.2539 26.4648C30.4199 26.4648 26.4648 30.4199 26.4648 35.2539C26.4648 40.0879 30.4199 44.043 35.2539 44.043C38.0371 44.043 40.6738 42.6952 42.3145 40.4686C42.8124 39.8243 43.7206 39.6778 44.3653 40.1756C45.039 40.6445 45.1561 41.5527 44.6873 42.2264C42.49 45.1855 38.9454 46.9727 35.2539 46.9727C28.7792 46.9727 23.5352 41.7286 23.5352 35.2539C23.5352 28.7792 28.7792 23.5352 35.2539 23.5352C41.0839 23.5352 45.8885 27.8126 46.7968 33.379L47.4121 32.7637C47.9687 32.1777 48.9063 32.1777 49.4629 32.7637C50.0488 33.3202 50.0488 34.2579 49.4629 34.8145V34.8145Z" fill="#61BDF6"/>
<path d="M44.3653 40.1756C45.039 40.6444 45.1565 41.5527 44.6877 42.2264C42.49 45.1854 38.9454 46.9726 35.2539 46.9726V44.0429C38.0371 44.0429 40.6738 42.6952 42.3145 40.4686C42.8127 39.8243 43.7206 39.6778 44.3653 40.1756V40.1756Z" fill="#61BDF6"/>
<path d="M49.4629 34.8144L46.5332 37.7441C45.8008 38.5059 44.5995 38.1836 44.1601 37.4512L41.5527 34.8144C40.9668 34.2579 40.9668 33.3202 41.5527 32.7637C42.1093 32.1777 43.0466 32.1777 43.6035 32.7637C42.5488 29.1309 39.2384 26.4648 35.2539 26.4648V23.5352C41.0839 23.5352 45.8885 27.8126 46.7968 33.379L47.4121 32.7637C47.9687 32.1777 48.9063 32.1777 49.4629 32.7637C50.0488 33.3202 50.0488 34.2579 49.4629 34.8144V34.8144Z" fill="#61BDF6"/>
</g>
<defs>
<clipPath id="clip0">
<rect width="50" height="50" fill="white"/>
</clipPath>
</defs>
</svg>
