<svg width="50" height="50" viewBox="0 0 50 50" fill="none" xmlns="http://www.w3.org/2000/svg">
<path d="M46.0938 6.25H3.90625C3.04331 6.25 2.34375 6.94956 2.34375 7.8125V37.5C2.34375 38.3629 3.04331 39.0625 3.90625 39.0625H46.0938C46.9567 39.0625 47.6562 38.3629 47.6562 37.5V7.8125C47.6562 6.94956 46.9567 6.25 46.0938 6.25Z" fill="#61BDF6"/>
<path d="M47.6562 13.2812V35.1562H2.34375V13.2812H22.6562L26.5625 18.75L30.4688 13.2812H47.6562Z" fill="#CC4C64"/>
<path d="M47.6562 16.4062H29.6875L26.5625 17.1875L24.2188 16.4062H2.34375V13.2812H47.6562V16.4062Z" fill="#DBDBDB"/>
<path d="M25 30.4688C22.3064 30.4688 19.7231 29.3987 17.8184 27.4941C15.9138 25.5894 14.8438 23.0061 14.8438 20.3125V2.34375L15.1314 2.46543C17.4131 3.43075 19.3959 4.9874 20.8751 6.97476C22.3544 8.96211 23.2766 11.3082 23.5466 13.7709C23.6179 14.422 23.895 15.0334 24.3376 15.5162C24.7801 15.9991 25.3651 16.3283 26.0075 16.456C26.4541 16.5447 26.9148 16.5333 27.3565 16.4226C27.7982 16.3119 28.2098 16.1047 28.5617 15.8158C28.9137 15.5269 29.1972 15.1636 29.3919 14.752C29.5865 14.3403 29.6875 13.8907 29.6875 13.4354V8.62383L30.7247 9.65527C32.1292 11.052 33.2437 12.7126 34.0042 14.5416C34.7647 16.3705 35.1562 18.3317 35.1562 20.3125C35.1562 23.0061 34.0862 25.5894 32.1816 27.4941C30.2769 29.3987 27.6936 30.4688 25 30.4688Z" fill="#FAAB63"/>
<path d="M25 27.3438C22.9287 27.3414 20.9429 26.5175 19.4783 25.0529C18.0137 23.5883 17.1899 21.6025 17.1875 19.5313V15.625C17.1875 15.4178 17.2698 15.2191 17.4163 15.0726C17.5628 14.9261 17.7616 14.8438 17.9688 14.8438C18.176 14.8438 18.3747 14.9261 18.5212 15.0726C18.6677 15.2191 18.75 15.4178 18.75 15.625V19.5313C18.7519 21.1883 19.4109 22.7769 20.5826 23.9486C21.7543 25.1203 23.343 25.7794 25 25.7813C25.9637 25.7841 26.9148 25.5618 27.7774 25.132C27.8692 25.0864 27.9692 25.0593 28.0716 25.0522C28.1739 25.0452 28.2766 25.0584 28.3739 25.0911C28.4711 25.1238 28.561 25.1753 28.6384 25.2427C28.7157 25.3101 28.779 25.3921 28.8247 25.4839C28.8703 25.5758 28.8975 25.6758 28.9045 25.7781C28.9115 25.8805 28.8983 25.9832 28.8656 26.0805C28.8329 26.1777 28.7814 26.2676 28.714 26.3449C28.6466 26.4223 28.5646 26.4856 28.4728 26.5312C27.3943 27.0689 26.2051 27.3471 25 27.3438Z" fill="#F7BA61"/>
<path d="M30.8469 24.2188C30.7055 24.2186 30.5667 24.1801 30.4454 24.1072C30.3241 24.0344 30.2249 23.93 30.1583 23.8051C30.0917 23.6803 30.0603 23.5397 30.0674 23.3984C30.0745 23.2571 30.1198 23.1204 30.1985 23.0028C30.8863 21.9759 31.2526 20.7673 31.2505 19.5313V17.9688C31.2505 17.7616 31.3328 17.5628 31.4793 17.4163C31.6258 17.2698 31.8245 17.1875 32.0317 17.1875C32.2389 17.1875 32.4376 17.2698 32.5841 17.4163C32.7306 17.5628 32.813 17.7616 32.813 17.9688V19.5313C32.8154 21.0769 32.3572 22.5881 31.4968 23.8722C31.4254 23.979 31.3287 24.0665 31.2153 24.127C31.102 24.1874 30.9754 24.2189 30.8469 24.2188Z" fill="#F7BA61"/>
<path d="M17.9688 13.2812C17.7615 13.2812 17.5628 13.1989 17.4163 13.0524C17.2698 12.9059 17.1875 12.7072 17.1875 12.5V8.59375C17.1875 8.38655 17.2698 8.18784 17.4163 8.04132C17.5628 7.89481 17.7615 7.8125 17.9688 7.8125C18.176 7.8125 18.3747 7.89481 18.5212 8.04132C18.6677 8.18784 18.75 8.38655 18.75 8.59375V12.5C18.75 12.7072 18.6677 12.9059 18.5212 13.0524C18.3747 13.1989 18.176 13.2812 17.9688 13.2812Z" fill="#F7BA61"/>
<path d="M26.5625 12.5C26.3553 12.5 26.1566 12.4177 26.0101 12.2712C25.8636 12.1247 25.7812 11.926 25.7812 11.7188V10.9375C25.7812 10.7303 25.8636 10.5316 26.0101 10.3851C26.1566 10.2386 26.3553 10.1562 26.5625 10.1562C26.7697 10.1562 26.9684 10.2386 27.1149 10.3851C27.2614 10.5316 27.3438 10.7303 27.3438 10.9375V11.7188C27.3438 11.926 27.2614 12.1247 27.1149 12.2712C26.9684 12.4177 26.7697 12.5 26.5625 12.5Z" fill="#FFB876"/>
<path d="M26.5625 9.375C26.3553 9.375 26.1566 9.29269 26.0101 9.14618C25.8636 8.99966 25.7812 8.80095 25.7812 8.59375V7.03125C25.7812 6.82405 25.8636 6.62534 26.0101 6.47882C26.1566 6.33231 26.3553 6.25 26.5625 6.25C26.7697 6.25 26.9684 6.33231 27.1149 6.47882C27.2614 6.62534 27.3438 6.82405 27.3438 7.03125V8.59375C27.3438 8.80095 27.2614 8.99966 27.1149 9.14618C26.9684 9.29269 26.7697 9.375 26.5625 9.375Z" fill="#FFB876"/>
<path d="M11.7188 18.75C11.5115 18.75 11.3128 18.6677 11.1663 18.5212C11.0198 18.3747 10.9375 18.176 10.9375 17.9688V17.1875C10.9375 16.9803 11.0198 16.7816 11.1663 16.6351C11.3128 16.4886 11.5115 16.4062 11.7188 16.4062C11.926 16.4062 12.1247 16.4886 12.2712 16.6351C12.4177 16.7816 12.5 16.9803 12.5 17.1875V17.9688C12.5 18.176 12.4177 18.3747 12.2712 18.5212C12.1247 18.6677 11.926 18.75 11.7188 18.75Z" fill="#FFB876"/>
<path d="M11.7188 14.8438C11.5115 14.8438 11.3128 14.7614 11.1663 14.6149C11.0198 14.4684 10.9375 14.2697 10.9375 14.0625V11.7188C10.9375 11.5115 11.0198 11.3128 11.1663 11.1663C11.3128 11.0198 11.5115 10.9375 11.7188 10.9375C11.926 10.9375 12.1247 11.0198 12.2712 11.1663C12.4177 11.3128 12.5 11.5115 12.5 11.7188V14.0625C12.5 14.2697 12.4177 14.4684 12.2712 14.6149C12.1247 14.7614 11.926 14.8438 11.7188 14.8438Z" fill="#FFB876"/>
<path d="M20.3125 39.0625H29.6875C29.6875 40.0532 29.8826 41.0343 30.2618 41.9496C30.6409 42.8649 31.1966 43.6966 31.8972 44.3972L32.0312 44.5312H17.9688L18.1028 44.3972C18.8034 43.6966 19.3591 42.8649 19.7382 41.9496C20.1174 41.0343 20.3125 40.0532 20.3125 39.0625Z" fill="#C3C3C3"/>
<path d="M17.1875 44.5312H32.294C32.7084 44.5312 33.1059 44.6959 33.3989 44.9889C33.6919 45.2819 33.8565 45.6793 33.8565 46.0938V47.6562H15.625V46.0938C15.625 45.6793 15.7896 45.2819 16.0826 44.9889C16.3757 44.6959 16.7731 44.5312 17.1875 44.5312Z" fill="#DBDBDB"/>
<path d="M17.1875 30.4688C17.1875 30.676 17.1052 30.8747 16.9587 31.0212C16.8122 31.1677 16.6135 31.25 16.4062 31.25H11.7188V35.1562C11.7188 35.3635 11.6364 35.5622 11.4899 35.7087C11.3434 35.8552 11.1447 35.9375 10.9375 35.9375C10.7303 35.9375 10.5316 35.8552 10.3851 35.7087C10.2386 35.5622 10.1562 35.3635 10.1562 35.1562V31.25H2.34375V29.6875H6.25V26.5625H2.34375V25H10.1562V21.875H2.34375V20.3125H6.25V17.1875H2.34375V15.625H8.59375C8.80095 15.625 8.99966 15.7073 9.14618 15.8538C9.29269 16.0003 9.375 16.199 9.375 16.4062C9.375 16.6135 9.29269 16.8122 9.14618 16.9587C8.99966 17.1052 8.80095 17.1875 8.59375 17.1875H7.8125V20.3125H10.9375C11.1447 20.3125 11.3434 20.3948 11.4899 20.5413C11.6364 20.6878 11.7188 20.8865 11.7188 21.0938V25H12.5C12.7072 25 12.9059 25.0823 13.0524 25.2288C13.1989 25.3753 13.2812 25.574 13.2812 25.7812C13.2812 25.9885 13.1989 26.1872 13.0524 26.3337C12.9059 26.4802 12.7072 26.5625 12.5 26.5625H7.8125V29.6875H16.4062C16.6135 29.6875 16.8122 29.7698 16.9587 29.9163C17.1052 30.0628 17.1875 30.2615 17.1875 30.4688Z" fill="#E1697F"/>
<path d="M20.3125 32.0312C20.1053 32.0312 19.9066 32.1136 19.7601 32.2601C19.6136 32.4066 19.5312 32.6053 19.5312 32.8125V35.1562C19.5312 35.3635 19.6136 35.5622 19.7601 35.7087C19.9066 35.8552 20.1053 35.9375 20.3125 35.9375C20.5197 35.9375 20.7184 35.8552 20.8649 35.7087C21.0114 35.5622 21.0938 35.3635 21.0938 35.1562V32.8125C21.0938 32.6053 21.0114 32.4066 20.8649 32.2601C20.7184 32.1136 20.5197 32.0312 20.3125 32.0312Z" fill="#E1697F"/>
<path d="M28.9062 32.0312C28.699 32.0312 28.5003 32.1136 28.3538 32.2601C28.2073 32.4066 28.125 32.6053 28.125 32.8125V35.1562C28.125 35.3635 28.2073 35.5622 28.3538 35.7087C28.5003 35.8552 28.699 35.9375 28.9062 35.9375C29.1135 35.9375 29.3122 35.8552 29.4587 35.7087C29.6052 35.5622 29.6875 35.3635 29.6875 35.1562V32.8125C29.6875 32.6053 29.6052 32.4066 29.4587 32.2601C29.3122 32.1136 29.1135 32.0312 28.9062 32.0312Z" fill="#E1697F"/>
<path d="M44.5312 17.1875V20.3125H47.6562V21.875H40.625V25H47.6562V26.5625H44.5312V29.6875H47.6562V31.25H40.625V35.1562C40.625 35.3635 40.5427 35.5622 40.3962 35.7087C40.2497 35.8552 40.051 35.9375 39.8438 35.9375C39.6365 35.9375 39.4378 35.8552 39.2913 35.7087C39.1448 35.5622 39.0625 35.3635 39.0625 35.1562V31.25H32.8125C32.6053 31.25 32.4066 31.1677 32.2601 31.0212C32.1136 30.8747 32.0312 30.676 32.0312 30.4688C32.0312 30.2615 32.1136 30.0628 32.2601 29.9163C32.4066 29.7698 32.6053 29.6875 32.8125 29.6875H35.9375V28.125C35.9375 27.9178 36.0198 27.7191 36.1663 27.5726C36.3128 27.4261 36.5115 27.3438 36.7188 27.3438C36.926 27.3438 37.1247 27.4261 37.2712 27.5726C37.4177 27.7191 37.5 27.9178 37.5 28.125V29.6875H42.9688V26.5625H36.7188C36.5115 26.5625 36.3128 26.4802 36.1663 26.3337C36.0198 26.1872 35.9375 25.9885 35.9375 25.7812C35.9375 25.574 36.0198 25.3753 36.1663 25.2288C36.3128 25.0823 36.5115 25 36.7188 25H39.0625V21.875H38.2812C38.074 21.875 37.8753 21.7927 37.7288 21.6462C37.5823 21.4997 37.5 21.301 37.5 21.0938C37.5 20.8865 37.5823 20.6878 37.7288 20.5413C37.8753 20.3948 38.074 20.3125 38.2812 20.3125H42.9688V17.1875H39.8438C39.6365 17.1875 39.4378 17.1052 39.2913 16.9587C39.1448 16.8122 39.0625 16.6135 39.0625 16.4062C39.0625 16.199 39.1448 16.0003 39.2913 15.8538C39.4378 15.7073 39.6365 15.625 39.8438 15.625H47.6562V17.1875H44.5312Z" fill="#E1697F"/>
<path d="M47.6562 12.5V14.0625H37.5C37.2928 14.0625 37.0941 13.9802 36.9476 13.8337C36.8011 13.6872 36.7188 13.4885 36.7188 13.2812C36.7188 13.074 36.8011 12.8753 36.9476 12.7288C37.0941 12.5823 37.2928 12.5 37.5 12.5H47.6562Z" fill="#C3C3C3"/>
<path d="M9.375 13.2812C9.375 13.4885 9.29269 13.6872 9.14618 13.8337C8.99966 13.9802 8.80095 14.0625 8.59375 14.0625H2.34375V12.5H8.59375C8.80095 12.5 8.99966 12.5823 9.14618 12.7288C9.29269 12.8753 9.375 13.074 9.375 13.2812Z" fill="#C3C3C3"/>
<path d="M46.0938 39.0625H3.90625C3.49185 39.0625 3.09442 38.8979 2.8014 38.6049C2.50837 38.3118 2.34375 37.9144 2.34375 37.5V35.1562H47.6562V37.5C47.6562 37.9144 47.4916 38.3118 47.1986 38.6049C46.9056 38.8979 46.5082 39.0625 46.0938 39.0625Z" fill="#DBDBDB"/>
</svg>
