<svg width="50" height="50" viewBox="0 0 50 50" fill="none" xmlns="http://www.w3.org/2000/svg">
<g clip-path="url(#clip0)">
<path d="M30.6864 10.5419C32.2055 12.133 33.0389 14.2922 32.9986 16.551C33.0255 18.7813 32.192 20.9264 30.6864 22.489C27.5811 25.8132 22.4996 25.8416 19.3674 22.5458C17.8483 20.9548 17.0014 18.8097 17.0014 16.551C16.9611 14.2922 17.7945 12.1188 19.3136 10.5419C22.3652 7.21774 27.3929 7.14671 30.5385 10.3714C30.5923 10.4283 30.6461 10.4851 30.6864 10.5419Z" fill="#FAAB63"/>
<path d="M8 40.6028C8.01427 34.5766 12.209 29.369 18.1443 28C20.1561 29.4536 22.5816 30.2298 25.0784 30.2157C27.561 30.2016 29.9865 29.4395 32.0125 28C37.8908 29.3972 42.0284 34.619 41.9999 40.6028V42H8V40.6028Z" fill="#FAAB63"/>
<path d="M34.4613 40.4715H39.3246H39.3247H39.3247H39.3248H39.3249H39.3249H39.325H39.325H39.3251H39.3252H39.3252H39.3253H39.3254H39.3254H39.3255H39.3255H39.3256H39.3257H39.3257H39.3258H39.3259H39.3259H39.326H39.3261H39.3261H39.3262H39.3263H39.3263H39.3264H39.3264H39.3265H39.3266H39.3266H39.3267H39.3268H39.3268H39.3269H39.327H39.3271H39.3271H39.3272H39.3273H39.3273H39.3274H39.3275H39.3275H39.3276H39.3277H39.3277H39.3278H39.3279H39.328H39.328H39.3281H39.3282H39.3282H39.3283H39.3284H39.3285H39.3285H39.3286H39.3287H39.3288H39.3288H39.3289H39.329H39.3291H39.3291H39.3292H39.3293H39.3293H39.3294H39.3295H39.3296H39.3297H39.3297H39.3298H39.3299H39.33H39.33H39.3301H39.3302H39.3303H39.3303H39.3304H39.3305H39.3306H39.3307H39.3307H39.3308H39.3309H39.331H39.331H39.3311H39.3312H39.3313H39.3314H39.3314H39.3315H39.3316H39.3317H39.3318H39.3319H39.3319H39.332H39.3321H39.3322H39.3323H39.3323H39.3324H39.3325H39.3326H39.3327H39.3328H39.3328H39.3329H39.333H39.3331H39.3332H39.3333H39.3333H39.3334H39.3335H39.3336H39.3337H39.3338H39.3339H39.3339H39.334H39.3341H39.3342H39.3343H39.3344H39.3345H39.3345H39.3346H39.3347H39.3348H39.3349H39.335H39.3351H39.3352H39.3352H39.3353H39.3354H39.3355H39.3356H39.3357H39.3358H39.3359H39.336H39.336H39.3361H39.3362H39.3363H39.3364H39.3365H39.3366H39.3367H39.3368H39.3369H39.337H39.337H39.3371H39.3372H39.3373H39.3374H39.3375H39.3376H39.3377H39.3378H39.3379H39.338H39.3381H39.3382H39.3382H39.3383H39.3384H39.3385H39.3386H39.3387H39.3388H39.3389H39.339H39.3391H39.3392H39.3393H39.3394H39.3395H39.3396H39.3397H39.3398H39.3399H39.34H39.3401H39.3402H39.3402H39.3403H39.3404H39.3405H39.3406H39.3407H39.3408H39.3409H39.341H39.3411H39.3412H39.3413H39.3414H39.3415H39.3416H39.3417H39.3418H39.3419H39.342H39.3421H39.3422H39.3423H39.3424H39.3425H39.3426H39.3427H39.3428H39.3429H39.343H39.3431H39.3432H39.3433H39.3434H39.3435H39.3436H39.3437H39.3438H39.3439H39.344H39.3441H39.3442H39.3443H39.3444H39.3445H39.3446H39.3447H39.3448H39.3449H39.3451H39.3452H39.3453H39.3454H39.3455H39.3456H39.3457H39.3458H39.3459H39.346H39.3461H39.3462H39.3463H39.3464H39.3465H39.3466H39.3467H39.3468H39.3469H39.347H39.3471H39.3472H39.3474H39.3475H39.3476H39.3477H39.3478H39.3479H39.348H39.3481H39.3482H39.3483H39.3484H39.3485H39.3486H39.3487H39.3488H39.3489H39.3491H39.3492H39.3493H39.3494H39.3495H39.3496H39.3497H39.3498H39.3499H39.35H39.3501H39.3502H39.3504H39.3505H39.3506H39.3507H39.3508H39.3509H39.351H39.3511H39.3512H39.3513H39.3514H39.3516H39.3517H39.3518H39.3519H39.352H39.3521H39.3522H39.3523H39.3524H39.3525H39.3527H39.3528H39.3529H39.353H39.3531H39.3532H39.3533H39.3534H39.3535H39.3537H39.3538H39.3539H39.354H39.3541H39.3542H39.3543H39.3544H39.3546H39.3547H39.3548H39.3549H39.355H39.3551H39.3552H39.3553H39.3555H39.3556H39.3557H39.3558H39.3559H39.356H39.3561H39.3562H39.3564H39.3565H39.3566H39.3567H39.3568H39.3569H39.357H39.3572H39.3573H39.3574H39.3575H39.3576H39.3577H39.3578H39.358H39.3581H39.3582H39.3583H39.3584H39.3585H39.3586H39.3588H39.3589H39.359H39.3591H39.3592H39.3593H39.3594H39.3596H39.3597H39.3598H39.3599H39.36H39.3601H39.3603H39.3604H39.3605H39.3606H39.3607H39.3608H39.3609H39.3611H39.3612H39.3613H39.3614H39.3615H39.3616H39.3618H39.3619H39.362H39.3621H39.3622H39.3623H39.3625H39.3626H39.3627H39.3628H39.3629H39.363H39.3632H39.3633H39.3634H39.3635H39.3636H39.3637H39.3639H39.364H39.3641H39.3642H39.3643H39.3645H39.3646H39.3647H39.3648H39.3649H39.365H39.3652H39.3653H39.3654H39.3655H39.3656H39.3657H39.3659H39.366H39.3661H39.3662H39.3663H39.3665H39.3666H39.3667H39.3668H39.3669H39.367H39.3672H39.3673H39.3674H39.3675H39.3676H39.3678H39.3679H39.368H39.3681H39.3682H39.3684H39.3685H39.3686H39.3687H39.3688H39.3689H39.3691H39.3692H39.3693H39.3694H39.3695H39.3697H39.3698H39.3699H39.37H39.3701H39.3703H39.3704H39.3705H39.3706H39.3707H39.3709H39.371H39.3711H39.3712H39.3713H39.3714H39.3716H39.3717H39.3718H39.3719H39.372H39.3722H39.3723H39.3724H39.3725H39.3726H39.3728H39.3729H39.373H39.3731H39.3732H39.3734H39.3735H39.3736H39.3737H39.3738H39.374H39.3741H39.3742H39.3743H39.3744H39.3746H39.3747H39.3748H39.3749H39.375H39.3752H39.3753H39.3754H39.3755H39.3756H39.3798V40.4715C42.8061 40.4998 45.6105 37.744 45.6396 34.3069C45.6396 34.3064 45.6396 34.3059 45.6396 34.3055L46.1396 34.3096C46.1396 34.2892 46.1421 34.2713 46.1447 34.2535C46.1472 34.2356 46.1498 34.2178 46.1498 34.1974L34.4613 40.4715ZM34.4613 40.4715L37.2008 37.3533L37.2009 37.3532C37.7459 36.7325 37.6905 35.783 37.0765 35.2312L37.0571 35.2117L37.0355 35.1944C36.3645 34.6577 35.3908 34.7588 34.8487 35.4289L29.9028 41.2195C29.3657 41.797 29.3657 42.6965 29.9028 43.274L34.8479 49.0637C35.3688 49.7135 36.311 49.8154 36.9618 49.3009L36.9847 49.2828L36.9958 49.2716L36.9998 49.2685L37.0007 49.2677C37.0065 49.2631 37.0172 49.2545 37.0283 49.2452C37.0391 49.2361 37.0546 49.2227 37.0716 49.206C37.7198 48.5836 37.7701 47.5791 37.2163 46.8833L37.2117 46.8775L37.2069 46.8718L34.4342 43.5935H39.3215C44.4835 43.6565 48.7173 39.5179 48.7819 34.3567L48.782 34.3567V34.3504V34.3503V34.3502V34.35V34.3499V34.3498V34.3497V34.3496V34.3494V34.3493V34.3492V34.3491V34.349V34.3488V34.3487V34.3486V34.3485V34.3484V34.3482V34.3481V34.348V34.3479V34.3478V34.3477V34.3475V34.3474V34.3473V34.3472V34.3471V34.3469V34.3468V34.3467V34.3466V34.3465V34.3463V34.3462V34.3461V34.346V34.3459V34.3457V34.3456V34.3455V34.3454V34.3453V34.3451V34.345V34.3449V34.3448V34.3447V34.3446V34.3444V34.3443V34.3442V34.3441V34.344V34.3438V34.3437V34.3436V34.3435V34.3434V34.3432V34.3431V34.343V34.3429V34.3428V34.3427V34.3425V34.3424V34.3423V34.3422V34.3421V34.3419V34.3418V34.3417V34.3416V34.3415V34.3413V34.3412V34.3411V34.341V34.3409V34.3408V34.3406V34.3405V34.3404V34.3403V34.3402V34.34V34.3399V34.3398V34.3397V34.3396V34.3395V34.3393V34.3392V34.3391V34.339V34.3389V34.3388V34.3386V34.3385V34.3384V34.3383V34.3382V34.3381V34.3379V34.3378V34.3377V34.3376V34.3375V34.3374V34.3372V34.3371V34.337V34.3369V34.3368V34.3367V34.3365V34.3364V34.3363V34.3362V34.3361V34.336V34.3358V34.3357V34.3356V34.3355V34.3354V34.3353V34.3351V34.335V34.3349V34.3348V34.3347V34.3346V34.3344V34.3343V34.3342V34.3341V34.334V34.3339V34.3338V34.3336V34.3335V34.3334V34.3333V34.3332V34.3331V34.333V34.3328V34.3327V34.3326V34.3325V34.3324V34.3323V34.3322V34.332V34.3319V34.3318V34.3317V34.3316V34.3315V34.3314V34.3312V34.3311V34.331V34.3309V34.3308V34.3307V34.3306V34.3304V34.3303V34.3302V34.3301V34.33V34.3299V34.3298V34.3297V34.3295V34.3294V34.3293V34.3292V34.3291V34.329V34.3289V34.3288V34.3287V34.3285V34.3284V34.3283V34.3282V34.3281V34.328V34.3279V34.3278V34.3277V34.3275V34.3274V34.3273V34.3272V34.3271V34.327V34.3269V34.3268V34.3267V34.3265V34.3264V34.3263V34.3262V34.3261V34.326V34.3259V34.3258V34.3257V34.3256V34.3255V34.3253V34.3252V34.3251V34.325V34.3249V34.3248V34.3247V34.3246V34.3245V34.3244V34.3243V34.3242V34.324V34.3239V34.3238V34.3237V34.3236V34.3235V34.3234V34.3233V34.3232V34.3231V34.323V34.3229V34.3228V34.3227V34.3225V34.3224V34.3223V34.3222V34.3221V34.322V34.3219V34.3218V34.3217V34.3216V34.3215V34.3214V34.3213V34.3212V34.3211V34.321V34.3209V34.3208V34.3207V34.3205V34.3204V34.3203V34.3202V34.3201V34.32V34.3199V34.3198V34.3197V34.3196V34.3195V34.3194V34.3193V34.3192V34.3191V34.319V34.3189V34.3188V34.3187V34.3186V34.3185V34.3184V34.3183V34.3182V34.3181V34.318V34.3179V34.3178V34.3177V34.3176V34.3175V34.3174V34.3173V34.3172V34.3171V34.317V34.3169V34.3168V34.3167V34.3166V34.3165V34.3164V34.3163V34.3162V34.3161V34.316V34.3159V34.3158V34.3157V34.3156V34.3155V34.3154V34.3153V34.3152V34.3151V34.315V34.3149V34.3148V34.3147V34.3146V34.3145V34.3144V34.3143V34.3142V34.3142V34.3141V34.314V34.3139V34.3138V34.3137V34.3136V34.3135V34.3134V34.3133V34.3132V34.3131V34.313V34.3129V34.3128V34.3127V34.3126V34.3126V34.3125V34.3124V34.3123V34.3122V34.3121V34.312V34.3119V34.3118V34.3117V34.3116V34.3115V34.3114V34.3114V34.3113V34.3112V34.3111V34.311V34.3109V34.3108V34.3107V34.3106V34.3105V34.3105V34.3104V34.3103V34.3102V34.3101V34.31V34.3099V34.3098V34.3098V34.3097V34.3096V34.3095V34.3094V34.3093V34.3092V34.3091V34.3091V34.309V34.3089V34.3088V34.3087V34.3086V34.3085V34.3085V34.3084V34.3083V34.3082V34.3081V34.308V34.3079V34.3079V34.3078V34.3077V34.3076V34.3075V34.3074V34.3074V34.3073V34.3072V34.3071V34.307V34.3069V34.3069V34.3068V34.3067V34.3066V34.3065V34.3065V34.3064V34.3063V34.3062V34.3061V34.3061V34.306V34.3059V34.3058V34.3057V34.3057V34.3056V34.3055V34.3054V34.3053V34.3053V34.3052V34.3051V34.305V34.305V34.3049V34.3048V34.3047V34.3047V34.3046V34.3045V34.3044V34.3043V34.3043V34.3042V34.3041V34.304V34.304V34.3039V34.3038V34.3037V34.3037V34.3036V34.3035V34.3035V34.3034V34.3033V34.3032V34.3032V34.3031V34.303V34.3029V34.3029V34.3028V34.3027V34.3027V34.3026V34.3025V34.3024V34.3024V34.3023V34.3022V34.3022V34.3021V34.302V34.302V34.3019V34.3018V34.3018V34.3017V34.3016V34.3016V34.3015V34.3014V34.3014V34.3013V34.3012V34.3012V34.3011V34.301V34.301V34.3009V34.3008V34.3008V34.3007V34.3006V34.3006V34.3005V34.3004V34.3004V34.3003V34.3002V34.3002V34.3001V34.3001V34.3V34.2999V34.2999V34.2998V34.2998V34.2997V34.2996V34.2996V34.2995V34.2995V34.2994C48.782 33.4943 48.1333 32.8458 47.343 32.8303L47.2416 32.8283L47.1943 32.8472C46.4163 32.7961 45.7426 33.3636 45.653 34.1401L45.6498 34.1686V34.1822L34.4613 40.4715Z" fill="#61BDF6" stroke="white"/>
<path d="M14.9168 0.887743L14.9169 0.887718L14.9127 0.883034C14.3483 0.244343 13.3705 0.161198 12.7184 0.736635C12.0181 1.35027 11.9646 2.39826 12.5673 3.09066L15.3375 6.36604H9.96045C4.79846 6.30309 0.56469 10.4416 0.500039 15.6029H0.5V15.6092V15.6093V15.6094V15.6095V15.6096V15.6098V15.6099V15.61V15.6101V15.6102V15.6104V15.6105V15.6106V15.6107V15.6108V15.611V15.6111V15.6112V15.6113V15.6114V15.6115V15.6117V15.6118V15.6119V15.612V15.6121V15.6123V15.6124V15.6125V15.6126V15.6127V15.6129V15.613V15.6131V15.6132V15.6133V15.6135V15.6136V15.6137V15.6138V15.6139V15.6141V15.6142V15.6143V15.6144V15.6145V15.6146V15.6148V15.6149V15.615V15.6151V15.6152V15.6154V15.6155V15.6156V15.6157V15.6158V15.616V15.6161V15.6162V15.6163V15.6164V15.6166V15.6167V15.6168V15.6169V15.617V15.6171V15.6173V15.6174V15.6175V15.6176V15.6177V15.6179V15.618V15.6181V15.6182V15.6183V15.6184V15.6186V15.6187V15.6188V15.6189V15.619V15.6192V15.6193V15.6194V15.6195V15.6196V15.6197V15.6199V15.62V15.6201V15.6202V15.6203V15.6205V15.6206V15.6207V15.6208V15.6209V15.621V15.6212V15.6213V15.6214V15.6215V15.6216V15.6217V15.6219V15.622V15.6221V15.6222V15.6223V15.6224V15.6226V15.6227V15.6228V15.6229V15.623V15.6231V15.6233V15.6234V15.6235V15.6236V15.6237V15.6238V15.624V15.6241V15.6242V15.6243V15.6244V15.6245V15.6246V15.6248V15.6249V15.625V15.6251V15.6252V15.6253V15.6255V15.6256V15.6257V15.6258V15.6259V15.626V15.6261V15.6263V15.6264V15.6265V15.6266V15.6267V15.6268V15.6269V15.6271V15.6272V15.6273V15.6274V15.6275V15.6276V15.6277V15.6279V15.628V15.6281V15.6282V15.6283V15.6284V15.6285V15.6287V15.6288V15.6289V15.629V15.6291V15.6292V15.6293V15.6294V15.6296V15.6297V15.6298V15.6299V15.63V15.6301V15.6302V15.6303V15.6305V15.6306V15.6307V15.6308V15.6309V15.631V15.6311V15.6312V15.6314V15.6315V15.6316V15.6317V15.6318V15.6319V15.632V15.6321V15.6322V15.6323V15.6325V15.6326V15.6327V15.6328V15.6329V15.633V15.6331V15.6332V15.6333V15.6335V15.6336V15.6337V15.6338V15.6339V15.634V15.6341V15.6342V15.6343V15.6344V15.6345V15.6347V15.6348V15.6349V15.635V15.6351V15.6352V15.6353V15.6354V15.6355V15.6356V15.6357V15.6358V15.6359V15.6361V15.6362V15.6363V15.6364V15.6365V15.6366V15.6367V15.6368V15.6369V15.637V15.6371V15.6372V15.6373V15.6374V15.6375V15.6376V15.6378V15.6379V15.638V15.6381V15.6382V15.6383V15.6384V15.6385V15.6386V15.6387V15.6388V15.6389V15.639V15.6391V15.6392V15.6393V15.6394V15.6395V15.6396V15.6397V15.6398V15.6399V15.64V15.6401V15.6402V15.6404V15.6405V15.6406V15.6407V15.6408V15.6409V15.641V15.6411V15.6412V15.6413V15.6414V15.6415V15.6416V15.6417V15.6418V15.6419V15.642V15.6421V15.6422V15.6423V15.6424V15.6425V15.6426V15.6427V15.6428V15.6429V15.643V15.6431V15.6432V15.6433V15.6434V15.6435V15.6436V15.6437V15.6438V15.6439V15.644V15.6441V15.6441V15.6442V15.6443V15.6444V15.6445V15.6446V15.6447V15.6448V15.6449V15.645V15.6451V15.6452V15.6453V15.6454V15.6455V15.6456V15.6457V15.6458V15.6459V15.646V15.6461V15.6462V15.6463V15.6464V15.6464V15.6465V15.6466V15.6467V15.6468V15.6469V15.647V15.6471V15.6472V15.6473V15.6474V15.6475V15.6476V15.6477V15.6477V15.6478V15.6479V15.648V15.6481V15.6482V15.6483V15.6484V15.6485V15.6486V15.6487V15.6487V15.6488V15.6489V15.649V15.6491V15.6492V15.6493V15.6494V15.6495V15.6495V15.6496V15.6497V15.6498V15.6499V15.65V15.6501V15.6502V15.6502V15.6503V15.6504V15.6505V15.6506V15.6507V15.6508V15.6508V15.6509V15.651V15.6511V15.6512V15.6513V15.6514V15.6514V15.6515V15.6516V15.6517V15.6518V15.6519V15.6519V15.652V15.6521V15.6522V15.6523V15.6524V15.6524V15.6525V15.6526V15.6527V15.6528V15.6529V15.6529V15.653V15.6531V15.6532V15.6533V15.6533V15.6534V15.6535V15.6536V15.6537V15.6537V15.6538V15.6539V15.654V15.6541V15.6541V15.6542V15.6543V15.6544V15.6544V15.6545V15.6546V15.6547V15.6548V15.6548V15.6549V15.655V15.6551V15.6551V15.6552V15.6553V15.6554V15.6554V15.6555V15.6556V15.6557V15.6557V15.6558V15.6559V15.656V15.656V15.6561V15.6562V15.6562V15.6563V15.6564V15.6565V15.6565V15.6566V15.6567V15.6568V15.6568V15.6569V15.657V15.657V15.6571V15.6572V15.6572V15.6573V15.6574V15.6575V15.6575V15.6576V15.6577V15.6577V15.6578V15.6579V15.6579V15.658V15.6581V15.6581V15.6582V15.6583V15.6583V15.6584V15.6585V15.6585V15.6586V15.6587V15.6587V15.6588V15.6589V15.6589V15.659V15.6591V15.6591V15.6592V15.6592V15.6593V15.6594V15.6594V15.6595V15.6596V15.6596V15.6597V15.6597V15.6598V15.6599V15.6599V15.66V15.66V15.6601V15.6602C0.5 16.4974 1.17275 17.1702 2.01 17.1702H2.01012H2.01024H2.01036H2.01048H2.0106H2.01072H2.01083H2.01095H2.01107H2.01119H2.01131H2.01143H2.01155H2.01167H2.01179H2.01191H2.01203H2.01215H2.01227H2.01239H2.01251H2.01263H2.01275H2.01287H2.01299H2.01311H2.01322H2.01334H2.01346H2.01358H2.0137H2.01382H2.01394H2.01406H2.01418H2.0143H2.01442H2.01454H2.01466H2.01478H2.01489H2.01501H2.01513H2.01525H2.01537H2.01549H2.01561H2.01573H2.01585H2.01597H2.01609H2.0162H2.01632H2.01644H2.01656H2.01668H2.0168H2.01692H2.01704H2.01715H2.01727H2.01739H2.01751H2.01763H2.01775H2.01787H2.01799H2.0181H2.01822H2.01834H2.01846H2.01858H2.0187H2.01881H2.01893H2.01905H2.01917H2.01929H2.01941H2.01952H2.01964H2.01976H2.01988H2.02H2.02011H2.02023H2.02035H2.02047H2.02058H2.0207H2.02082H2.02094H2.02106H2.02117H2.02129H2.02141H2.02153H2.02164H2.02176H2.02188H2.02199H2.02211H2.02223H2.02235H2.02246H2.02258H2.0227H2.02281H2.02293H2.02305H2.02316H2.02328H2.0234H2.02351H2.02363H2.02375H2.02386H2.02398H2.0241H2.02421H2.02433H2.02445H2.02456H2.02468H2.02479H2.02491H2.02503H2.02514H2.02526H2.02537H2.02549H2.0256H2.02572H2.02584H2.02595H2.02607H2.02618H2.0263H2.02641H2.02653H2.02664H2.02676H2.02687H2.02699H2.0271H2.02722H2.02733H2.02745H2.02756H2.02767H2.02779H2.0279H2.02802H2.02813H2.02825H2.02836H2.02847H2.02859H2.0287H2.02882H2.02893H2.02904H2.02916H2.02927H2.02938H2.0295H2.02961H2.02972H2.02984H2.02995H2.03006H2.03017H2.03029H2.0304H2.03051H2.03063H2.03074H2.03085H2.03096H2.03107H2.03119H2.0313H2.03141H2.03152H2.03163H2.03175H2.03186H2.03197H2.03208H2.03219H2.0323H2.03241H2.03253H2.03264H2.03275H2.03286H2.03297H2.03308H2.03319H2.0333H2.03341H2.03352H2.03363H2.03374H2.03385H2.03396H2.03407H2.03418H2.03429H2.0344H2.03451H2.03462H2.03473H2.03484H2.03495H2.03506H2.03515C2.8309 17.2451 3.52751 16.6712 3.61872 15.8807L3.62202 15.8522V15.8385C3.62204 15.8384 3.62207 15.8382 3.62209 15.838L3.62254 15.8349C3.62519 15.8167 3.63222 15.7682 3.63222 15.7112C3.63222 12.2743 6.41746 9.49826 9.84513 9.49826H9.84537H9.84561H9.84585H9.84609H9.84633H9.84656H9.8468H9.84704H9.84728H9.84751H9.84775H9.84799H9.84822H9.84846H9.84869H9.84893H9.84916H9.8494H9.84964H9.84987H9.8501H9.85034H9.85057H9.85081H9.85104H9.85127H9.85151H9.85174H9.85197H9.85221H9.85244H9.85267H9.8529H9.85313H9.85336H9.8536H9.85383H9.85406H9.85429H9.85452H9.85475H9.85498H9.85521H9.85544H9.85567H9.8559H9.85613H9.85636H9.85659H9.85682H9.85704H9.85727H9.8575H9.85773H9.85796H9.85818H9.85841H9.85864H9.85887H9.85909H9.85932H9.85955H9.85977H9.86H9.86022H9.86045H9.86067H9.8609H9.86113H9.86135H9.86158H9.8618H9.86203H9.86225H9.86247H9.8627H9.86292H9.86315H9.86337H9.86359H9.86382H9.86404H9.86426H9.86448H9.86471H9.86493H9.86515H9.86537H9.8656H9.86582H9.86604H9.86626H9.86648H9.8667H9.86693H9.86715H9.86737H9.86759H9.86781H9.86803H9.86825H9.86847H9.86869H9.86891H9.86913H9.86935H9.86957H9.86979H9.87001H9.87022H9.87044H9.87066H9.87088H9.8711H9.87132H9.87154H9.87175H9.87197H9.87219H9.87241H9.87263H9.87284H9.87306H9.87328H9.87349H9.87371H9.87393H9.87415H9.87436H9.87458H9.87479H9.87501H9.87523H9.87544H9.87566H9.87588H9.87609H9.87631H9.87652H9.87674H9.87695H9.87717H9.87738H9.8776H9.87781H9.87803H9.87824H9.87846H9.87867H9.87889H9.8791H9.87931H9.87953H9.87974H9.87996H9.88017H9.88038H9.8806H9.88081H9.88102H9.88124H9.88145H9.88166H9.88188H9.88209H9.8823H9.88252H9.88273H9.88294H9.88315H9.88337H9.88358H9.88379H9.884H9.88422H9.88443H9.88464H9.88485H9.88507H9.88528H9.88549H9.8857H9.88591H9.88612H9.88634H9.88655H9.88676H9.88697H9.88718H9.88739H9.8876H9.88781H9.88803H9.88824H9.88845H9.88866H9.88887H9.88908H9.88929H9.8895H9.88971H9.88992H9.89013H9.89034H9.89055H9.89076H9.89097H9.89118H9.8914H9.89161H9.89182H9.89203H9.89224H9.89245H9.89266H9.89287H9.89308H9.89329H9.8935H9.89371H9.89392H9.89412H9.89433H9.89454H9.89475H9.89496H9.89517H9.89538H9.89559H9.8958H9.89601H9.89622H9.89643H9.89664H9.89685H9.89706H9.89727H9.89748H9.89769H9.8979H9.89811H9.89832H9.89852H9.89873H9.89894H9.89915H9.89936H9.89957H9.89978H9.89999H9.9002H9.90041H9.90062H9.90083H9.90104H9.90124H9.90145H9.90166H9.90187H9.90208H9.90229H9.9025H9.90271H9.90292H9.90313H9.90334H9.90355H9.90376H9.90396H9.90417H9.90438H9.90459H9.9048H9.90501H9.90522H9.90543H9.90564H9.90585H9.90606H9.90627H9.90648H9.90669H9.9069H9.90711H9.90732H9.90753H9.90773H9.90794H9.90815H9.90836H9.90857H9.90878H9.90899H9.9092H9.90941H9.90962H9.90983H9.91004H9.91025H9.91046H9.91067H9.91088H9.91109H9.9113H9.91151H9.91173H9.91193H9.91215H9.91236H9.91257H9.91278H9.91299H9.9132H9.91341H9.91362H9.91383H9.91404H9.91425H9.91446H9.91467H9.91489H9.9151H9.91531H9.91552H9.91573H9.91594H9.91615H9.91637H9.91658H9.91679H9.917H9.91721H9.91742H9.91764H9.91785H9.91806H9.91827H9.91848H9.9187H9.91891H9.91912H9.91933H9.91955H9.91976H9.91997H9.92019H9.9204H9.92061H9.92082H9.92104H9.92125H9.92146H9.92168H9.92189H9.9221H9.92232H9.92253H9.92275H9.92296H9.92317H9.92339H9.9236H9.92382H9.92403H9.92425H9.92446H9.92468H9.92489H9.92511H9.92532H9.92554H9.92575H9.92597H9.92618H9.9264H9.92661H9.92683H9.92705H9.92726H9.92748H9.92769H9.92791H9.92813H9.92834H9.92856H9.92878H9.92899H9.92921H9.92943H9.92965H9.92986H9.93008H9.9303H9.93052H9.93073H9.93095H9.93117H9.93139H9.93161H9.93183H9.93204H9.93226H9.93248H9.9327H9.93292H9.93314H9.93336H9.93358H9.9338H9.93402H9.93424H9.93446H9.93468H9.9349H9.93512H9.93534H9.93556H9.93578H9.93601H9.93623H9.93645H9.93667H9.93689H9.93711H9.93734H9.93756H9.93778H9.938H9.93823H9.93845H9.93867H9.9389H9.93912H9.93934H9.93957H9.93979H9.94001H9.94024H9.94046H9.94069H9.94091H9.94114H9.94136H9.94159H9.94181H9.94204H9.94226H9.94249H9.94272H9.94294H9.94317H9.9434H9.94362H9.94385H9.94408H9.9443H9.94453H9.94476H9.94499H9.94522H9.94544H9.94567H9.9459H9.94613H9.94636H9.94659H9.94682H9.94705H9.94728H9.94751H9.94774H9.94797H9.9482H9.94843H9.94866H9.94889H9.94912H9.94936H9.94959H9.94982H9.95005H9.95028H9.95052H9.95075H9.95098H9.95121H9.95145H9.95168H9.95192H9.95215H9.95238H9.95262H9.95285H9.95309H9.95332H9.95356H9.95379H9.95403H9.95427H9.9545H9.95474H9.95498H9.95521H9.95545H9.95569H9.95592H9.95616H9.9564H9.95664H9.95688H9.95712H9.95736H15.3002L12.5682 12.6079C12.0246 13.1773 12.0202 14.0964 12.5949 14.6587C12.5959 14.6598 12.5971 14.661 12.5983 14.6622C12.6212 14.6853 12.6756 14.7402 12.7411 14.7872C13.0381 15.0162 13.4087 15.1131 13.7529 15.0987L13.7529 15.0989L13.7654 15.0981C14.1939 15.0695 14.6025 14.8829 14.8978 14.558L14.903 14.5523L14.908 14.5464L19.8622 8.74621C20.4024 8.14214 20.4073 7.23748 19.8718 6.63802L14.9168 0.887743Z" fill="#61BDF6" stroke="white"/>
</g>
<defs>
<clipPath id="clip0">
<rect width="50" height="50" fill="white"/>
</clipPath>
</defs>
</svg>
