<svg width="50" height="50" viewBox="0 0 50 50" fill="none" xmlns="http://www.w3.org/2000/svg">
<path d="M25.3906 0H1.95312C1.52344 0 1.17188 0.351562 1.17188 0.78125V43.75C1.17188 44.1797 1.52344 44.5312 1.95312 44.5312H25.3906C25.8203 44.5312 26.1719 44.1797 26.1719 43.75V0.78125C26.1719 0.351562 25.8203 0 25.3906 0Z" fill="#5A5D9D"/>
<path d="M3.51562 42.9688C3.08594 42.9688 2.73438 42.6172 2.73438 42.1875V0H1.95312C1.52344 0 1.17188 0.351562 1.17188 0.78125V43.75C1.17188 44.1797 1.52344 44.5312 1.95312 44.5312H25.3906C25.8203 44.5312 26.1719 44.1797 26.1719 43.75V42.9688H3.51562Z" fill="#5A5D9D"/>
<path d="M26.1719 10.9375H1.17188V12.5H26.1719V10.9375Z" fill="#888BBD"/>
<path d="M13.6719 17.1875C11.5137 17.1875 9.76562 18.9355 9.76562 21.0938C9.76562 23.252 11.5137 25 13.6719 25C15.8301 25 17.5781 23.252 17.5781 21.0938C17.5781 18.9355 15.8301 17.1875 13.6719 17.1875Z" fill="#FAAB63"/>
<path d="M13.6719 18.75C12.3828 18.75 11.3281 19.8047 11.3281 21.0938C11.3281 22.3828 12.3828 23.4375 13.6719 23.4375C14.9609 23.4375 16.0156 22.3828 16.0156 21.0938C16.0156 19.8047 14.9609 18.75 13.6719 18.75Z" fill="white"/>
<path d="M13.6719 17.1875C13.4082 17.1875 13.1445 17.2168 12.8906 17.2656V20.3125C12.8906 20.7422 13.2422 21.0938 13.6719 21.0938C14.1016 21.0938 14.4531 20.7422 14.4531 20.3125V17.2656C14.1992 17.2168 13.9355 17.1875 13.6719 17.1875Z" fill="white"/>
<path d="M22.2656 1.5625H5.07812C4.64844 1.5625 4.29688 1.91406 4.29688 2.34375V8.59375C4.29688 9.02344 4.64844 9.375 5.07812 9.375H22.2656C22.6953 9.375 23.0469 9.02344 23.0469 8.59375V2.34375C23.0469 1.91406 22.6953 1.5625 22.2656 1.5625Z" fill="#888BBD"/>
<path d="M21.4844 3.125H5.85938V7.8125H21.4844V3.125Z" fill="#5A5D9D"/>
<path d="M19.9219 28.9062H5.07812C4.64844 28.9062 4.29688 28.5547 4.29688 28.125C4.29688 27.6953 4.64844 27.3438 5.07812 27.3438H19.9219C20.3516 27.3438 20.7031 27.6953 20.7031 28.125C20.7031 28.5547 20.3516 28.9062 19.9219 28.9062Z" fill="#888BBD"/>
<path d="M19.9219 32.8125H5.07812C4.64844 32.8125 4.29688 32.4609 4.29688 32.0312C4.29688 31.6016 4.64844 31.25 5.07812 31.25H19.9219C20.3516 31.25 20.7031 31.6016 20.7031 32.0312C20.7031 32.4609 20.3516 32.8125 19.9219 32.8125Z" fill="#888BBD"/>
<path d="M13.6719 36.7188H5.07812C4.64844 36.7188 4.29688 36.3672 4.29688 35.9375C4.29688 35.5078 4.64844 35.1562 5.07812 35.1562H13.6719C14.1016 35.1562 14.4531 35.5078 14.4531 35.9375C14.4531 36.3672 14.1016 36.7188 13.6719 36.7188Z" fill="#888BBD"/>
<path d="M41.7969 50H13.6719C13.2422 50 12.8906 49.6484 12.8906 49.2188V32.0312C12.8906 31.6016 13.2422 31.25 13.6719 31.25H41.7969C42.2266 31.25 42.5781 31.6016 42.5781 32.0312V49.2188C42.5781 49.6484 42.2266 50 41.7969 50Z" fill="#FAAB63"/>
<path d="M42.5781 32.0312C42.5781 31.6016 42.2266 31.25 41.7969 31.25H13.6719C13.2422 31.25 12.8906 31.6016 12.8906 32.0312V34.0527L26.1621 45.9961C27.041 46.7871 28.418 46.7871 29.2969 45.9961L42.5781 34.0527V32.0312Z" fill="#FFB876"/>
<path d="M13.6719 31.25C12.9478 31.25 13.2086 32.2392 13.7469 32.7235L27.207 44.834C27.5 45.0977 27.959 45.0977 28.252 44.834L41.72 32.7247C42.2596 32.2395 42.5225 31.25 41.7969 31.25V31.25H13.6719V31.25Z" fill="#FAAB63"/>
<path d="M31.6406 22.6562C29.9219 22.6562 28.5156 24.0625 28.5156 25.7812C28.5156 27.5 29.9219 28.9062 31.6406 28.9062C33.3594 28.9062 34.7656 27.5 34.7656 25.7812C34.7656 24.0625 33.3594 22.6562 31.6406 22.6562Z" fill="#6ACA8B"/>
<path d="M31.6406 24.2188C30.7812 24.2188 30.0781 24.9219 30.0781 25.7812C30.0781 26.6406 30.7812 27.3438 31.6406 27.3438C32.5 27.3438 33.2031 26.6406 33.2031 25.7812C33.2031 24.9219 32.5 24.2188 31.6406 24.2188Z" fill="#6ACA8B"/>
<path d="M37.8906 26.5625C37.4609 26.5625 37.1094 26.2109 37.1094 25.7812C37.1094 22.7637 34.6582 20.3125 31.6406 20.3125C31.2109 20.3125 30.8594 19.9609 30.8594 19.5312C30.8594 19.1016 31.2109 18.75 31.6406 18.75C35.5176 18.75 38.6719 21.9043 38.6719 25.7812C38.6719 26.2109 38.3203 26.5625 37.8906 26.5625Z" fill="#6ACA8B"/>
<path d="M42.5781 26.5625C42.1484 26.5625 41.7969 26.2109 41.7969 25.7812C41.7969 20.1855 37.2363 15.625 31.6406 15.625C31.2109 15.625 30.8594 15.2734 30.8594 14.8438C30.8594 14.4141 31.2109 14.0625 31.6406 14.0625C38.1055 14.0625 43.3594 19.3164 43.3594 25.7812C43.3594 26.2109 43.0078 26.5625 42.5781 26.5625Z" fill="#6ACA8B"/>
<path d="M48.0469 26.5625C47.6172 26.5625 47.2656 26.2109 47.2656 25.7812C47.2656 17.168 40.2539 10.1562 31.6406 10.1562C31.2109 10.1562 30.8594 9.80469 30.8594 9.375C30.8594 8.94531 31.2109 8.59375 31.6406 8.59375C41.1133 8.59375 48.8281 16.3086 48.8281 25.7812C48.8281 26.2109 48.4766 26.5625 48.0469 26.5625Z" fill="#6ACA8B"/>
</svg>
