<svg width="50" height="50" viewBox="0 0 50 50" fill="none" xmlns="http://www.w3.org/2000/svg">
<path d="M1.9726 16.606H4.30336C5.00369 16.606 5.51794 16.8063 5.84615 17.2068C6.17423 17.6075 6.28069 18.1658 6.16549 18.8817C6.11826 19.1755 6.03399 19.445 5.91263 19.6905C5.79121 19.9361 5.63088 20.1604 5.43156 20.3633C5.19457 20.6075 4.92929 20.7825 4.63553 20.8881C4.34178 20.9936 3.96611 21.0464 3.50862 21.0464H2.47046L2.21215 22.6524H1L1.9726 16.606ZM3.03079 17.5625L2.62285 20.0987H3.3601C3.84879 20.0987 4.21097 19.9984 4.44677 19.7977C4.68238 19.5969 4.83779 19.2629 4.91302 18.7955C4.98553 18.3447 4.94337 18.0266 4.78691 17.8409C4.63034 17.6553 4.32183 17.5625 3.86132 17.5625H3.03079Z" fill="#6C78AF"/>
<path d="M7.52728 15H8.73029L8.47198 16.6059H9.54222C10.2158 16.6059 10.6826 16.7342 10.9429 16.9906C11.2032 17.2471 11.2876 17.6603 11.1958 18.2305L10.7429 21.0464H9.52164L9.95273 18.3664C10.0018 18.0618 9.97804 17.8546 9.88148 17.7447C9.78493 17.635 9.58289 17.58 9.27564 17.58H8.31547L7.7579 21.0464H6.55469L7.52728 15Z" fill="#6C78AF"/>
<path d="M12.5037 16.606H14.8345C15.535 16.606 16.0491 16.8063 16.3773 17.2068C16.7054 17.6075 16.8118 18.1658 16.6967 18.8817C16.6495 19.1755 16.5651 19.445 16.4439 19.6905C16.3224 19.9361 16.1619 20.1604 15.9627 20.3633C15.7257 20.6075 15.4604 20.7825 15.1667 20.8881C14.873 20.9936 14.4973 21.0464 14.0397 21.0464H13.0016L12.7433 22.6524H11.5312L12.5037 16.606ZM13.5621 17.5625L13.1541 20.0987H13.8914C14.38 20.0987 14.7422 19.9984 14.9778 19.7977C15.2135 19.5969 15.369 19.2629 15.4442 18.7955C15.5167 18.3447 15.4746 18.0266 15.318 17.8409C15.1614 17.6553 14.8529 17.5625 14.3926 17.5625H13.5621Z" fill="#6C78AF"/>
<path d="M2.62763 25.2546H4.95896L5.98309 30.8766L8.81586 25.2546H11.1383L9.96004 32.581H8.40356L9.44983 26.8744L6.59353 32.581H4.90689L3.83419 26.8146L3.06595 32.581H1.44922L2.62763 25.2546Z" fill="#F89C0E"/>
<path d="M13.9358 31.3954H15.1128L15.7874 27.2006H17.2506L16.4084 32.4365C16.2941 33.1484 16.038 33.6757 15.6405 34.0183C15.243 34.3608 14.6915 34.5322 13.9863 34.5322H11.1172L11.2926 33.4423H13.9098C14.1907 33.4423 14.4171 33.3763 14.5892 33.2446C14.761 33.1126 14.8673 32.9215 14.9075 32.6712L14.9221 32.581H13.627C12.7986 32.581 12.2336 32.4223 11.9324 32.105C11.6308 31.7877 11.5399 31.2585 11.6589 30.5175L12.1925 27.2006H13.6392L13.1233 30.4078C13.0581 30.8136 13.0776 31.0796 13.1826 31.2059C13.2874 31.3322 13.5384 31.3954 13.9358 31.3954Z" fill="#F89C0E"/>
<path d="M21.1917 25.2546H22.8764L24.9182 32.581H23.1514L22.7383 30.8371H19.4567L18.5033 32.581H16.8184L21.1917 25.2546ZM21.7385 26.7094L20.1805 29.5292H22.4302L21.7385 26.7094Z" fill="#F89C0E"/>
<path d="M30.4325 32.581H27.6218C26.7724 32.581 26.1487 32.3383 25.7505 31.8529C25.3524 31.3676 25.2235 30.6911 25.3629 29.8235C25.4202 29.4678 25.5224 29.1411 25.6696 28.8436C25.8168 28.5461 26.0112 28.2743 26.2528 28.0283C26.5401 27.7325 26.8628 27.5205 27.2208 27.3925C27.5788 27.2645 28.0335 27.2005 28.5849 27.2005H29.8402L30.1531 25.2546H31.6109L30.4325 32.581ZM29.1603 31.4273L29.6539 28.3596H28.769C28.1755 28.3596 27.7352 28.4802 27.4476 28.7212C27.1604 28.9623 26.9713 29.3639 26.8809 29.9258C26.7932 30.4713 26.845 30.8578 27.0365 31.0856C27.228 31.3134 27.6015 31.4273 28.1571 31.4273H29.1603Z" fill="#F89C0E"/>
<path d="M32.5726 27.2006H38.1913C39.0059 27.2006 39.5682 27.3552 39.8778 27.664C40.1873 27.973 40.2864 28.4747 40.1748 29.1691L39.6259 32.581H38.1518L38.6708 29.3536C38.7346 28.9579 38.715 28.6969 38.6124 28.5704C38.5093 28.4441 38.2665 28.3809 37.8836 28.3809H37.0629L36.3873 32.581H34.8911L35.5667 28.3809H33.8568L33.1812 32.581H31.707L32.5726 27.2006Z" fill="#F89C0E"/>
<path d="M43.4319 26.5891H41.8975L42.1121 25.2546H43.6465L43.4319 26.5891ZM42.4681 32.581H40.9336L41.7989 27.2005H43.3334L42.4681 32.581Z" fill="#F89C0E"/>
<path d="M44.5978 27.2006H47.3507C48.1827 27.2006 48.7524 27.3527 49.0595 27.6566C49.3666 27.9606 49.4636 28.4648 49.3503 29.1691L48.8016 32.581H47.3383L47.8592 29.3436C47.9239 28.9412 47.9016 28.6802 47.7923 28.5605C47.683 28.4408 47.4348 28.3809 47.0479 28.3809H45.8712L45.1956 32.581H43.7324L44.5978 27.2006Z" fill="#F89C0E"/>
</svg>
