<svg width="50" height="50" viewBox="0 0 50 50" fill="none" xmlns="http://www.w3.org/2000/svg">
<path d="M7.80273 18.7307H35.9375V49.2189H7.80273V18.7307Z" fill="#888BBD"/>
<path d="M7.80273 28.8961H35.9375V39.0524H7.80273V28.8961Z" fill="#5A5D9D"/>
<path d="M40.6348 14.0432V24.2092H40.625L35.9375 28.8967V18.7307L40.6348 14.0432Z" fill="#888BBD"/>
<path d="M15.6348 16.3967H32.8223V14.0432H40.6348L35.9375 18.7307H7.80273L12.4902 14.0432H15.625H15.6348V16.3967Z" fill="#696CA0"/>
<path d="M40.6348 24.2086V34.4332H40.5566L35.9375 39.0524V28.8961L40.6348 24.2086Z" fill="#5A5D9D"/>
<path d="M40.6348 34.434V44.5219L40.625 44.5316L35.9375 49.2191V39.0531L40.5566 34.434H40.6348Z" fill="#888BBD"/>
<path d="M30.8594 42.5781C31.7188 42.5781 32.4219 43.2812 32.4219 44.1406C32.4219 45 31.7188 45.7031 30.8594 45.7031C30 45.7031 29.2969 45 29.2969 44.1406C29.2969 43.2812 30 42.5781 30.8594 42.5781Z" fill="#61BDF6"/>
<path d="M30.8594 32.4117C31.7188 32.4117 32.4219 33.1149 32.4219 33.9742C32.4219 34.8336 31.7188 35.5367 30.8594 35.5367C30 35.5367 29.2969 34.8336 29.2969 33.9742C29.2969 33.1149 30 32.4117 30.8594 32.4117Z" fill="#61BDF6"/>
<path d="M30.8594 22.2555C31.7188 22.2555 32.4219 22.9586 32.4219 23.818C32.4219 24.6774 31.7188 25.3805 30.8594 25.3805C30 25.3805 29.2969 24.6774 29.2969 23.818C29.2969 22.9586 30 22.2555 30.8594 22.2555Z" fill="#61BDF6"/>
<path d="M10.9276 25.7714C10.7811 25.7714 10.6248 25.7324 10.4979 25.6445C10.1365 25.4003 10.0389 24.9218 10.283 24.5605L11.8455 22.2167C12.0799 21.8554 12.5682 21.7578 12.9295 22.0019C13.2908 22.246 13.3885 22.7246 13.1444 23.0859L11.5819 25.4296C11.4256 25.6542 11.1815 25.7714 10.9276 25.7714Z" fill="#696CA0"/>
<path d="M14.8338 25.7714C14.6873 25.7714 14.5311 25.7324 14.4041 25.6445C14.0428 25.4003 13.9451 24.9218 14.1893 24.5605L15.7518 22.2167C15.9862 21.8554 16.4744 21.7578 16.8358 22.0019C17.1971 22.246 17.2947 22.7246 17.0506 23.0859L15.4881 25.4296C15.3319 25.6542 15.0877 25.7714 14.8338 25.7714Z" fill="#696CA0"/>
<path d="M18.7401 25.7714C18.5936 25.7714 18.4373 25.7324 18.3104 25.6445C17.949 25.4003 17.8514 24.9218 18.0955 24.5605L19.658 22.2167C19.8924 21.8554 20.3807 21.7578 20.742 22.0019C21.1033 22.246 21.201 22.7246 20.9569 23.0859L19.3944 25.4296C19.2381 25.6542 18.994 25.7714 18.7401 25.7714Z" fill="#696CA0"/>
<path d="M10.9276 35.9378C10.7811 35.9378 10.6248 35.8988 10.4979 35.8109C10.1365 35.5765 10.0389 35.0882 10.283 34.7269L11.8455 32.3831C12.0799 32.0218 12.5682 31.9241 12.9295 32.1683C13.2908 32.4027 13.3885 32.8909 13.1444 33.2523L11.5819 35.596C11.4256 35.8109 11.1815 35.9378 10.9276 35.9378Z" fill="#696CA0"/>
<path d="M14.8338 35.9378C14.6873 35.9378 14.5311 35.8988 14.4041 35.8109C14.0428 35.5765 13.9451 35.0882 14.1893 34.7269L15.7518 32.3831C15.9862 32.0218 16.4744 31.9241 16.8358 32.1683C17.1971 32.4027 17.2947 32.8909 17.0506 33.2523L15.4881 35.596C15.3319 35.8109 15.0877 35.9378 14.8338 35.9378Z" fill="#696CA0"/>
<path d="M18.7401 35.9378C18.5936 35.9378 18.4373 35.8988 18.3104 35.8109C17.949 35.5765 17.8514 35.0882 18.0955 34.7269L19.658 32.3831C19.8924 32.0218 20.3807 31.9241 20.742 32.1683C21.1033 32.4027 21.201 32.8909 20.9569 33.2523L19.3944 35.596C19.2381 35.8109 18.994 35.9378 18.7401 35.9378Z" fill="#696CA0"/>
<path d="M10.9276 46.0941C10.7811 46.0941 10.6248 46.055 10.4979 45.9671C10.1365 45.723 10.0389 45.2445 10.283 44.8831L11.8455 42.5394C12.0799 42.178 12.5682 42.0804 12.9295 42.3245C13.2908 42.5687 13.3885 43.0472 13.1444 43.4085L11.5819 45.7523C11.4256 45.9671 11.1815 46.0941 10.9276 46.0941Z" fill="#696CA0"/>
<path d="M14.8338 46.0941C14.6873 46.0941 14.5311 46.055 14.4041 45.9671C14.0428 45.723 13.9451 45.2445 14.1893 44.8831L15.7518 42.5394C15.9862 42.178 16.4744 42.0804 16.8358 42.3245C17.1971 42.5687 17.2947 43.0472 17.0506 43.4085L15.4881 45.7523C15.3319 45.9671 15.0877 46.0941 14.8338 46.0941Z" fill="#696CA0"/>
<path d="M18.7401 46.0941C18.5936 46.0941 18.4373 46.055 18.3104 45.9671C17.949 45.723 17.8514 45.2445 18.0955 44.8831L19.658 42.5394C19.8924 42.178 20.3807 42.0804 20.742 42.3245C21.1033 42.5687 21.201 43.0472 20.9569 43.4085L19.3944 45.7523C19.2381 45.9671 18.994 46.0941 18.7401 46.0941Z" fill="#696CA0"/>
<path d="M33.6035 17.1774H14.8535C14.4238 17.1774 14.0723 16.8258 14.0723 16.3961C14.0723 15.9664 14.4238 15.6149 14.8535 15.6149H33.6035C34.0332 15.6149 34.3848 15.9664 34.3848 16.3961C34.3848 16.8258 34.0332 17.1774 33.6035 17.1774Z" fill="#4B4E84"/>
<path d="M37.5098 8.58398C37.5098 9.88281 38.5547 10.9277 39.8535 10.9277H32.8223V3.125C32.8223 1.82617 33.8672 0.78125 35.166 0.78125C36.4648 0.78125 37.5098 1.82617 37.5098 3.125V7.02148V8.58398Z" fill="#CCD1D9"/>
<path d="M41.416 7.80237L42.1973 7.02112V8.58362C42.1973 9.88245 41.1523 10.9274 39.8535 10.9274C38.5547 10.9274 37.5098 9.88245 37.5098 8.58362V7.02112L38.291 7.80237L39.0723 7.02112L39.8535 7.80237L40.6348 7.02112L41.416 7.80237Z" fill="#E6E9ED"/>
<path d="M17.9785 0.78125H35.166C33.8672 0.78125 32.8223 1.82617 32.8223 3.125V10.9277V14.043V17.1777H15.6348V14.043V3.125C15.6348 1.82617 16.6797 0.78125 17.9785 0.78125Z" fill="#E6E9ED"/>
<path d="M29.6875 7.03125H19.5312C19.1016 7.03125 18.75 6.67969 18.75 6.25C18.75 5.82031 19.1016 5.46875 19.5312 5.46875H29.6875C30.1172 5.46875 30.4688 5.82031 30.4688 6.25C30.4688 6.67969 30.1172 7.03125 29.6875 7.03125Z" fill="#CCD1D9"/>
<path d="M29.6875 10.1562H19.5312C19.1016 10.1562 18.75 9.80469 18.75 9.375C18.75 8.94531 19.1016 8.59375 19.5312 8.59375H29.6875C30.1172 8.59375 30.4688 8.94531 30.4688 9.375C30.4688 9.80469 30.1172 10.1562 29.6875 10.1562Z" fill="#CCD1D9"/>
<path d="M29.6875 13.2812H19.5312C19.1016 13.2812 18.75 12.9297 18.75 12.5C18.75 12.0703 19.1016 11.7188 19.5312 11.7188H29.6875C30.1172 11.7188 30.4688 12.0703 30.4688 12.5C30.4688 12.9297 30.1172 13.2812 29.6875 13.2812Z" fill="#CCD1D9"/>
</svg>
