<svg width="50" height="50" viewBox="0 0 50 50" fill="none" xmlns="http://www.w3.org/2000/svg">
<path d="M0.78125 45.3125C0.78125 45.7422 1.13281 46.0938 1.5625 46.0938H48.4375C48.8672 46.0938 49.2188 45.7422 49.2188 45.3125V7.03125H0.78125V45.3125Z" fill="#E0F4FF"/>
<path d="M49.2188 5.46875V7.03125H0.78125V5.46875C0.78125 4.60234 1.47656 3.90625 2.34375 3.90625H47.6562C48.5234 3.90625 49.2188 4.60234 49.2188 5.46875Z" fill="#61BDF6"/>
<path d="M3.12891 4.68591H3.12109C2.68906 4.68591 2.34375 5.03513 2.34375 5.46716C2.34375 5.89841 2.69688 6.24841 3.12891 6.24841C3.56094 6.24841 3.91016 5.89841 3.91016 5.46716C3.91016 5.03513 3.56094 4.68591 3.12891 4.68591Z" fill="#5A5D9D"/>
<path d="M5.47266 4.68591H5.46484C5.03359 4.68591 4.6875 5.03513 4.6875 5.46716C4.6875 5.89841 5.04141 6.24841 5.47266 6.24841C5.90469 6.24841 6.25391 5.89841 6.25391 5.46716C6.25391 5.03513 5.90469 4.68591 5.47266 4.68591V4.68591Z" fill="#5A5D9D"/>
<path d="M7.81836 4.68591H7.81055C7.37852 4.68591 7.0332 5.03513 7.0332 5.46716C7.0332 5.89841 7.38633 6.24841 7.81836 6.24841C8.25039 6.24841 8.59961 5.89841 8.59961 5.46716C8.59961 5.03513 8.25039 4.68591 7.81836 4.68591Z" fill="#5A5D9D"/>
<path d="M41.0137 27.3359H46.4832V37.4921H41.0137V27.3359Z" fill="#FAAB63"/>
<path d="M41.0137 21.875H46.4832V27.3359H41.0137V21.875Z" fill="#6BC5D2"/>
<path d="M33.9824 32.0234H39.452V37.4921H33.9824V32.0234Z" fill="#FAAB63"/>
<path d="M33.9824 19.5312H39.452V32.0234H33.9824V19.5312Z" fill="#6BC5D2"/>
<path d="M26.9512 34.3671H32.4207V37.4921H26.9512V34.3671Z" fill="#FAAB63"/>
<path d="M26.9512 30.4688H32.4207V34.3672H26.9512V30.4688Z" fill="#6BC5D2"/>
<path d="M19.9199 25.7734H25.3895V37.4921H19.9199V25.7734Z" fill="#FAAB63"/>
<path d="M19.9199 21.0938H25.3895V25.7734H19.9199V21.0938Z" fill="#6BC5D2"/>
<path d="M12.8887 35.1484H18.3582V37.4921H12.8887V35.1484Z" fill="#FAAB63"/>
<path d="M12.8887 22.6562H18.3582V35.1484H12.8887V22.6562Z" fill="#6BC5D2"/>
<path d="M5.85742 25.7734H11.327V37.4921H5.85742V25.7734Z" fill="#FAAB63"/>
<path d="M5.85742 17.1875H11.327V25.7734H5.85742V17.1875Z" fill="#6BC5D2"/>
<path d="M45.702 19.5312H41.7949C41.3652 19.5312 41.0137 19.8828 41.0137 20.3125V21.0938V21.875H41.7949H45.702H46.4832V21.0938V20.3125C46.4832 19.8828 46.1316 19.5312 45.702 19.5312Z" fill="#00C0F1"/>
<path d="M38.6707 13.2812H34.7637C34.334 13.2812 33.9824 13.6328 33.9824 14.0625V19.5328H39.452V14.0625C39.452 13.6328 39.1004 13.2812 38.6707 13.2812Z" fill="#00C0F1"/>
<path d="M31.6395 28.1329H27.7324C27.3027 28.1329 26.9512 28.4844 26.9512 28.9141V30.4743H32.4207V28.9141C32.4207 28.4844 32.0691 28.1329 31.6395 28.1329Z" fill="#00C0F1"/>
<path d="M17.577 20.3093H13.6699C13.2402 20.3093 12.8887 20.6617 12.8887 21.0906V22.6515H18.3582V21.0906C18.3582 20.6617 18.0066 20.3093 17.577 20.3093Z" fill="#00C0F1"/>
<path d="M24.6082 17.1875H20.7012C20.2715 17.1875 19.9199 17.5391 19.9199 17.9687V21.0922H25.3895V17.9687C25.3895 17.5391 25.0379 17.1875 24.6082 17.1875V17.1875Z" fill="#00C0F1"/>
<path d="M10.5457 12.5H6.63867C6.20898 12.5 5.85742 12.8516 5.85742 13.2812V17.1859H11.327V13.2812C11.327 12.8516 10.9754 12.5 10.5457 12.5V12.5Z" fill="#00C0F1"/>
<path d="M3.51562 38.2758C3.08359 38.2758 2.73438 37.9266 2.73438 37.4945V10.1562C2.73438 9.72422 3.08359 9.375 3.51562 9.375C3.94766 9.375 4.29688 9.72422 4.29688 10.1562V37.4945C4.29688 37.9266 3.94766 38.2758 3.51562 38.2758Z" fill="#61BDF6"/>
<path d="M46.4844 38.2758H3.51562C3.08359 38.2758 2.73438 37.9265 2.73438 37.4945C2.73438 37.0625 3.08359 36.7133 3.51562 36.7133H46.4844C46.9164 36.7133 47.2656 37.0625 47.2656 37.4945C47.2656 37.9265 46.9164 38.2758 46.4844 38.2758Z" fill="#61BDF6"/>
<path d="M39.0617 41.4055H10.9375C10.5055 41.4055 10.1562 41.0562 10.1562 40.6242C10.1562 40.1922 10.5055 39.843 10.9375 39.843H39.0617C39.4937 39.843 39.843 40.1922 39.843 40.6242C39.843 41.0562 39.4937 41.4055 39.0617 41.4055Z" fill="white"/>
<path d="M31.9996 43.7516H18.002C17.5699 43.7516 17.2207 43.4024 17.2207 42.9703C17.2207 42.5383 17.5699 42.1891 18.002 42.1891H31.9996C32.4316 42.1891 32.7809 42.5383 32.7809 42.9703C32.7809 43.4024 32.4316 43.7516 31.9996 43.7516Z" fill="white"/>
</svg>
