<svg width="50" height="50" viewBox="0 0 50 50" fill="none" xmlns="http://www.w3.org/2000/svg">
<g clip-path="url(#clip0)">
<path d="M49.9695 47.9188C49.9695 48.5461 49.7604 49.0639 49.3422 49.4822C48.9239 49.7909 48.5057 50 47.8883 50H2.11056C1.59273 50 1.07491 49.7909 0.656662 49.4822C0.238419 49.0639 0.0292969 48.5461 0.0292969 47.9188V17.4268H49.9795L49.9695 47.9188Z" fill="#FAAB63"/>
<path d="M49.3437 49.4723C48.9255 49.7811 48.5072 49.9902 47.8898 49.9902H2.1121C1.59427 49.9902 1.07645 49.7811 0.658203 49.4723L25.0059 28.5602L49.3437 49.4723Z" fill="#FFB876"/>
<path d="M49.9695 17.4272L42.8893 22.5257L26.3488 34.3859C25.5123 35.0133 24.3671 35.0133 23.5405 34.3859L7.0996 22.5257L0.0292969 17.4272L7.10956 12.3286L22.5049 1.30487L23.6501 0.468388C24.4866 -0.158977 25.6318 -0.158977 26.4583 0.468388L27.6035 1.30487L34.9925 6.61258L38.6371 9.21167L42.8992 12.3286L49.9695 17.4272Z" fill="#61BDF6"/>
<path d="M42.8993 7.74781V22.5257L26.3488 34.3859C25.5123 35.0133 24.3671 35.0133 23.5406 34.3859L7.09961 22.5257V3.38613C7.09961 2.24094 8.03568 1.30487 9.18087 1.30487H36.3368L42.8993 7.74781Z" fill="#E0F4FF"/>
<path d="M36.4473 6.08479C36.4473 7.02086 37.1742 7.74781 38.1103 7.74781H42.9002L36.4473 1.30487V6.08479Z" fill="white"/>
<path d="M24.3456 16.3445L18.2323 25.2215C17.8222 25.8172 17.9687 26.6277 18.5644 27.0379C18.7792 27.1844 19.0429 27.2723 19.3066 27.2723H31.5234C32.246 27.2723 32.832 26.6863 32.832 25.9637C32.832 25.7 32.7538 25.4363 32.5976 25.2215L26.5038 16.3445C26.0937 15.7488 25.2831 15.6023 24.6874 16.0125C24.5507 16.1004 24.4335 16.2176 24.3456 16.3445Z" fill="white"/>
<path d="M25.4199 23.0332C25.0977 23.0332 24.834 22.7695 24.834 22.4473V20.0352C24.834 19.7129 25.0977 19.4492 25.4199 19.4492C25.7422 19.4492 26.0059 19.7129 26.0059 20.0352V22.4473C26.0156 22.7695 25.752 23.0332 25.4199 23.0332Z" fill="#FAAB63"/>
<path d="M25.4199 25.1427C25.0977 25.1427 24.834 24.879 24.834 24.5568C24.834 24.5177 24.834 24.4787 24.8438 24.4396C24.8535 24.4005 24.8633 24.3615 24.873 24.3322C24.8828 24.2931 24.9023 24.2638 24.9219 24.2345C24.9414 24.2052 24.9707 24.1759 25 24.1466C25.2246 23.9123 25.5957 23.9123 25.8203 24.1369C25.8496 24.1662 25.8789 24.1955 25.8984 24.2345C25.918 24.2638 25.9375 24.3029 25.957 24.3322C25.9766 24.3712 25.9863 24.4005 25.9863 24.4396C26.0254 24.6349 25.9668 24.8302 25.8301 24.9669C25.8008 24.9962 25.7715 25.0158 25.7422 25.0451C25.7129 25.0646 25.6738 25.0841 25.6445 25.1036C25.6055 25.1134 25.5762 25.1329 25.5371 25.1329C25.4981 25.1427 25.459 25.1427 25.4199 25.1427Z" fill="#FAAB63"/>
<path d="M18.3301 12.0957C18.5742 12.2227 18.9355 12.3398 19.3164 12.3398C19.7266 12.3398 19.9414 12.1738 19.9414 11.9102C19.9414 11.666 19.7559 11.5195 19.2773 11.3535C18.623 11.1289 18.1934 10.7578 18.1934 10.1914C18.1934 9.51758 18.7598 9 19.6875 9C20.1367 9 20.459 9.09766 20.6934 9.19531L20.498 9.91797C20.3418 9.83984 20.0586 9.73242 19.668 9.73242C19.2773 9.73242 19.0918 9.9082 19.0918 10.1133C19.0918 10.3672 19.3164 10.4746 19.8242 10.6699C20.5176 10.9238 20.8496 11.2949 20.8496 11.8516C20.8496 12.5156 20.3418 13.0723 19.2578 13.0723C18.8086 13.0723 18.3594 12.9551 18.1348 12.8281L18.3301 12.0957Z" fill="#61BDF6"/>
<path d="M21.4648 9.11682C21.7383 9.06799 22.1289 9.0387 22.6758 9.0387C23.2227 9.0387 23.623 9.14612 23.8867 9.3512C24.1406 9.54651 24.3066 9.87854 24.3066 10.2692C24.3066 10.6598 24.1797 10.9821 23.9453 11.2067C23.6426 11.4899 23.1934 11.6266 22.666 11.6266C22.5488 11.6266 22.4414 11.6168 22.3633 11.6071V13.0133H21.4746V9.11682H21.4648ZM22.3535 10.9137C22.4316 10.9332 22.5195 10.9332 22.6563 10.9332C23.1348 10.9332 23.4277 10.6891 23.4277 10.2887C23.4277 9.92737 23.1738 9.71252 22.7344 9.71252C22.5488 9.71252 22.4316 9.73206 22.3633 9.75159V10.9137H22.3535Z" fill="#61BDF6"/>
<path d="M25.4394 11.9979L25.1562 13.0135H24.2285L25.4394 9.06818H26.6113L27.832 13.0135H26.875L26.5723 11.9979H25.4394ZM26.4453 11.3338L26.2012 10.494C26.1328 10.2596 26.0644 9.96662 26.0059 9.73224H25.9961C25.9375 9.96662 25.8789 10.2694 25.8105 10.494L25.5762 11.3338H26.4453Z" fill="#61BDF6"/>
<path d="M31.6992 11.4998C31.6797 11.0213 31.6602 10.4549 31.6602 9.87872H31.6406C31.5137 10.3865 31.3574 10.9432 31.2012 11.4119L30.7227 12.9549H30.0293L29.6094 11.4217C29.4824 10.9627 29.3457 10.3963 29.248 9.87872H29.2383C29.2187 10.4158 29.1992 11.0213 29.1699 11.5096L29.1016 13.0135H28.2715L28.5254 9.06818H29.7168L30.1074 10.3865C30.2344 10.8455 30.3516 11.3338 30.4395 11.8026H30.459C30.5664 11.3436 30.7031 10.826 30.8301 10.3865L31.25 9.07794H32.4121L32.627 13.0233H31.7578L31.6992 11.4998Z" fill="#61BDF6"/>
</g>
<defs>
<clipPath id="clip0">
<rect width="50" height="50" fill="white"/>
</clipPath>
</defs>
</svg>
