<svg width="50" height="50" viewBox="0 0 50 50" fill="none" xmlns="http://www.w3.org/2000/svg">
<g clip-path="url(#clip0)">
<path d="M5.95703 29.3945H32.4219V38.1836H5.95703V29.3945Z" fill="#5A5D9D"/>
<path d="M5.95703 11.8164H32.4219V20.6055H5.95703V11.8164Z" fill="#5A5D9D"/>
<path d="M25.0977 11.8164H32.4219V20.6055H25.0977V11.8164Z" fill="#2C3B73"/>
<path d="M25.0977 29.3945H32.4219V38.1836H25.0977V29.3945Z" fill="#2C3B73"/>
<path d="M29.4922 9.85336L30.957 14.7461H1.46484C0.644302 14.7461 0 14.1014 0 13.2812V1.46484C0 0.644302 0.644302 0 1.46484 0H36.8164L29.4922 9.85336Z" fill="#888BBD"/>
<path d="M36.8164 17.6758H1.46484C0.644302 17.6758 0 18.3201 0 19.1406V30.8594C0 31.6795 0.644302 32.3242 1.46484 32.3242H36.8164C37.6369 32.3242 38.2812 31.6795 38.2812 30.8594V19.1406C38.2812 18.3201 37.6369 17.6758 36.8164 17.6758Z" fill="#888BBD"/>
<path d="M35.3516 35.2539H1.46484C0.655746 35.2539 0 35.9097 0 36.7188V48.5352C0 49.3443 0.655746 50 1.46484 50H36.8164V36.7188C36.8164 35.9097 36.1607 35.2539 35.3516 35.2539Z" fill="#888BBD"/>
<path d="M38.2812 19.1406V30.8594C38.2812 31.6795 37.6369 32.3242 36.8164 32.3242H25.0977V17.6758H36.8164C37.6369 17.6758 38.2812 18.3201 38.2812 19.1406Z" fill="#5A5D9D"/>
<path d="M36.8164 36.7188V50H25.0977V35.2539H35.3516C36.1607 35.2539 36.8164 35.9097 36.8164 36.7188Z" fill="#5A5D9D"/>
<path d="M8.88672 42.5781C8.88672 43.3872 8.23097 44.043 7.42188 44.043C6.61278 44.043 5.95703 43.3872 5.95703 42.5781C5.95703 41.769 6.61278 41.1133 7.42188 41.1133C8.23097 41.1133 8.88672 41.769 8.88672 42.5781Z" fill="#61BDF6"/>
<path d="M14.7461 42.5781C14.7461 43.3872 14.0903 44.043 13.2812 44.043C12.4722 44.043 11.8164 43.3872 11.8164 42.5781C11.8164 41.769 12.4722 41.1133 13.2812 41.1133C14.0903 41.1133 14.7461 41.769 14.7461 42.5781Z" fill="#61BDF6"/>
<path d="M20.6055 42.5781C20.6055 43.3872 19.9497 44.043 19.1406 44.043C18.3315 44.043 17.6758 43.3872 17.6758 42.5781C17.6758 41.769 18.3315 41.1133 19.1406 41.1133C19.9497 41.1133 20.6055 41.769 20.6055 42.5781Z" fill="#61BDF6"/>
<path d="M8.88672 25C8.88672 25.8091 8.23097 26.4648 7.42188 26.4648C6.61278 26.4648 5.95703 25.8091 5.95703 25C5.95703 24.1909 6.61278 23.5352 7.42188 23.5352C8.23097 23.5352 8.88672 24.1909 8.88672 25Z" fill="#61BDF6"/>
<path d="M14.7461 25C14.7461 25.8091 14.0903 26.4648 13.2812 26.4648C12.4722 26.4648 11.8164 25.8091 11.8164 25C11.8164 24.1909 12.4722 23.5352 13.2812 23.5352C14.0903 23.5352 14.7461 24.1909 14.7461 25Z" fill="#61BDF6"/>
<path d="M20.6055 25C20.6055 25.8091 19.9497 26.4648 19.1406 26.4648C18.3315 26.4648 17.6758 25.8091 17.6758 25C17.6758 24.1909 18.3315 23.5352 19.1406 23.5352C19.9497 23.5352 20.6055 24.1909 20.6055 25Z" fill="#61BDF6"/>
<path d="M8.88672 7.42188C8.88672 8.23097 8.23097 8.88672 7.42188 8.88672C6.61278 8.88672 5.95703 8.23097 5.95703 7.42188C5.95703 6.61278 6.61278 5.95703 7.42188 5.95703C8.23097 5.95703 8.88672 6.61278 8.88672 7.42188Z" fill="#61BDF6"/>
<path d="M14.7461 7.42188C14.7461 8.23097 14.0903 8.88672 13.2812 8.88672C12.4722 8.88672 11.8164 8.23097 11.8164 7.42188C11.8164 6.61278 12.4722 5.95703 13.2812 5.95703C14.0903 5.95703 14.7461 6.61278 14.7461 7.42188Z" fill="#61BDF6"/>
<path d="M20.6055 7.42188C20.6055 8.23097 19.9497 8.88672 19.1406 8.88672C18.3315 8.88672 17.6758 8.23097 17.6758 7.42188C17.6758 6.61278 18.3315 5.95703 19.1406 5.95703C19.9497 5.95703 20.6055 6.61278 20.6055 7.42188Z" fill="#61BDF6"/>
<path d="M29.4922 9.85336L30.957 14.7461H25.0977V0H36.8164L29.4922 9.85336Z" fill="#5A5D9D"/>
<path d="M36.8164 0C29.5509 0 23.6328 6.0154 23.6328 13.2812C23.6328 17.6464 25.8595 21.7186 29.4922 24.1795V44.5408C29.4922 45.0096 29.7268 45.4784 30.1365 45.742L35.9959 49.7654C36.2598 49.9119 36.5234 50 36.8164 50C37.1971 50 37.5782 49.8535 37.8418 49.5605L43.7012 43.6035C43.9941 43.3399 44.1406 42.9588 44.1406 42.5781V38.1836C44.1406 37.8029 43.9941 37.4218 43.7012 37.1582L42.207 35.664L43.3201 35.1074C43.8183 34.8438 44.1406 34.3456 44.1406 33.7891V30.8594C44.1406 30.4787 43.9941 30.0976 43.7012 29.834L42.207 28.3398L43.3201 27.7832C43.8183 27.5196 44.1406 27.0214 44.1406 26.4648V24.1795C47.7734 21.7186 50 17.6464 50 13.2812C50 6.0154 44.0819 0 36.8164 0V0ZM36.8164 14.7461C34.3845 14.7461 32.4219 12.7831 32.4219 10.3516C32.4219 7.91969 34.3845 5.95703 36.8164 5.95703C39.2483 5.95703 41.2109 7.91969 41.2109 10.3516C41.2109 12.7831 39.2483 14.7461 36.8164 14.7461Z" fill="#F2C94C"/>
<path d="M50 13.2812C50 17.6464 47.7734 21.7186 44.1406 24.1795V26.4648C44.1406 27.0214 43.8183 27.5196 43.3201 27.7832L42.207 28.3398L43.7012 29.8336C43.9941 30.0976 44.1406 30.4787 44.1406 30.8594V33.7891C44.1406 34.3456 43.8183 34.8438 43.3201 35.1074L42.207 35.664L43.7012 37.1578C43.9941 37.4218 44.1406 37.8029 44.1406 38.1836V42.5781C44.1406 42.9588 43.9941 43.3399 43.7012 43.6035L37.8418 49.5605C37.5782 49.8535 37.1971 50 36.8164 50V14.7461C39.2483 14.7461 41.2109 12.7831 41.2109 10.3516C41.2109 7.91969 39.2483 5.95703 36.8164 5.95703V0C44.0819 0 50 6.0154 50 13.2812Z" fill="#F2C94C"/>
</g>
<defs>
<clipPath id="clip0">
<rect width="50" height="50" fill="white"/>
</clipPath>
</defs>
</svg>
