<svg width="50" height="50" viewBox="0 0 50 50" fill="none" xmlns="http://www.w3.org/2000/svg">
<g clip-path="url(#clip0)">
<path d="M32.4609 49.9124L25.4199 46.7875C25.1562 46.6703 24.8437 46.6703 24.5801 46.7875L17.5391 49.9124C16.8555 50.2152 16.084 49.7171 16.084 48.9652V26.2797H33.9062V48.9749C33.916 49.7171 33.1445 50.2152 32.4609 49.9124Z" fill="#FAAB63"/>
<path d="M27.666 26.2797H22.334V47.7836L24.5801 46.7875C24.8438 46.6703 25.1563 46.6703 25.4199 46.7875L27.666 47.7836V26.2797Z" fill="#FAAB63"/>
<path d="M28.2712 1.8551C29.2478 3.48596 31.279 4.15002 33.0368 3.39807C35.6833 2.27502 38.5837 4.37463 38.3298 7.24573C38.1638 9.14026 39.4138 10.8688 41.2693 11.2985C44.072 11.943 45.1755 15.3512 43.2907 17.5192C42.0407 18.9547 42.0407 21.0934 43.2907 22.5289C45.1853 24.6969 44.072 28.1051 41.2693 28.7496C39.4138 29.1793 38.1638 30.9078 38.3298 32.8024C38.5837 35.6735 35.6931 37.7731 33.0368 36.65C31.2888 35.9078 29.2575 36.5621 28.2712 38.193C26.7868 40.6637 23.2126 40.6637 21.7282 38.193C20.7517 36.5621 18.7204 35.8981 16.9626 36.65C14.3161 37.7731 11.4157 35.6735 11.6696 32.8024C11.8357 30.9078 10.5857 29.1793 8.73019 28.7496C5.92746 28.1051 4.82394 24.6969 6.70871 22.5289C7.95871 21.0934 7.95871 18.9547 6.70871 17.5192C4.81418 15.3512 5.92746 11.943 8.73019 11.2985C10.5857 10.8688 11.8357 9.14026 11.6696 7.24573C11.4157 4.37463 14.3064 2.27502 16.9626 3.39807C18.7107 4.14026 20.7419 3.48596 21.7282 1.8551C23.2126 -0.615601 26.7868 -0.615601 28.2712 1.8551Z" fill="#61BDF6"/>
<path d="M25 33.76C32.5885 33.76 38.7402 27.6082 38.7402 20.0197C38.7402 12.4312 32.5885 6.27948 25 6.27948C17.4115 6.27948 11.2598 12.4312 11.2598 20.0197C11.2598 27.6082 17.4115 33.76 25 33.76Z" fill="#E0F4FF"/>
<path d="M43.291 22.5198C42.041 21.0843 42.041 18.9456 43.291 17.5101C45.1855 15.3421 44.0723 11.9339 41.2695 11.2894C39.4141 10.8597 38.1641 9.13116 38.3301 7.23663C38.584 4.36554 35.6934 2.26593 33.0371 3.38898C32.6855 3.53546 32.3242 3.63312 31.9629 3.67218C37.0703 7.30499 40.4102 13.262 40.4102 20.0101C40.4102 26.7581 37.0801 32.7151 31.9629 36.348C32.3242 36.387 32.6855 36.4749 33.0371 36.6312C35.6836 37.7542 38.584 35.6546 38.3301 32.7835C38.1641 30.889 39.4141 29.1605 41.2695 28.7308C44.0723 28.096 45.1758 24.6878 43.291 22.5198Z" fill="#61BDF6"/>
<path d="M31.25 24.2871C30.8984 24.2285 30.6445 23.9258 30.6445 23.5645V16.748C30.6445 16.3477 30.9766 16.0156 31.377 16.0156C31.7773 16.0156 32.1094 16.3477 32.1094 16.748V22.832C32.5684 22.832 33.1836 22.832 33.7598 22.8223C34.1602 22.8223 34.4922 23.1445 34.4922 23.5547C34.4922 23.9551 34.1699 24.2871 33.7598 24.2871C33.5547 24.2969 31.4258 24.3164 31.25 24.2871Z" fill="#5A5D9D"/>
<path d="M18.5152 24.3066C17.4019 24.3066 16.3081 23.8378 15.5952 23.0566C15.3218 22.7538 15.3511 22.2948 15.6441 22.0214C15.937 21.748 16.4058 21.7773 16.6792 22.0702C17.1187 22.5487 17.8023 22.8417 18.5152 22.8417C19.7066 22.8417 20.5952 21.5527 18.857 20.9081C18.5347 20.7909 16.9331 20.1659 16.7281 20.0292C15.2437 19.0624 15.5562 16.7382 17.4702 16.162C19.2671 15.6152 20.7613 16.8456 20.8199 16.8945C21.1324 17.1581 21.1714 17.6171 20.9077 17.9296C20.6441 18.2421 20.1851 18.2812 19.8824 18.0175C19.8628 17.998 18.9253 17.2558 17.8999 17.5585C17.187 17.7734 17.1089 18.4667 17.4995 18.7695C17.7242 18.8671 18.5152 19.2089 19.3745 19.5312C22.5972 20.7226 21.396 24.3066 18.5152 24.3066Z" fill="#5A5D9D"/>
<path d="M25.7808 24.3066C24.6675 24.3066 23.5738 23.8378 22.8609 23.0566C22.5874 22.7538 22.6167 22.2948 22.9097 22.0214C23.2124 21.748 23.6714 21.7773 23.9449 22.0702C24.3843 22.5487 25.0679 22.8417 25.7808 22.8417C26.9722 22.8417 27.8609 21.5527 26.1226 20.9081C25.8003 20.7909 24.1988 20.1659 23.9937 20.0292C22.5093 19.0624 22.8218 16.7382 24.7359 16.162C26.5327 15.6152 28.0269 16.8456 28.0855 16.8945C28.398 17.1581 28.437 17.6171 28.1734 17.9296C27.9097 18.2421 27.4507 18.2812 27.148 18.0175C27.1285 17.998 26.191 17.2558 25.1656 17.5585C24.4527 17.7734 24.3745 18.4667 24.7652 18.7695C24.9898 18.8671 25.7808 19.2089 26.6402 19.5312C29.8726 20.7226 28.6714 24.3066 25.7808 24.3066Z" fill="#5A5D9D"/>
</g>
<defs>
<clipPath id="clip0">
<rect width="50" height="50" fill="white"/>
</clipPath>
</defs>
</svg>
