<svg width="50" height="50" viewBox="0 0 50 50" fill="none" xmlns="http://www.w3.org/2000/svg">
<g clip-path="url(#clip0)">
<path d="M50.0002 19.6865V37.9057C50.0002 38.4634 49.5501 38.9135 48.9924 38.9135H10.2351C4.62842 38.9135 -0.0388946 34.3245 0.000244381 28.7276C0.0198139 25.9683 1.14506 23.4634 2.96502 21.6435C4.79476 19.8137 7.32901 18.6787 10.1177 18.6787H48.9924C49.5501 18.6787 50.0002 19.1288 50.0002 19.6865Z" fill="#5A5D9D"/>
<path d="M49.9999 21.7027V35.9004H10.1174C6.20347 35.9004 3.02344 32.7203 3.02344 28.7966C3.02344 24.8827 6.20347 21.7027 10.1174 21.7027H49.9999Z" fill="#E0F4FF"/>
<path d="M48.9907 16.0078H28.7754C28.2177 16.0078 27.7676 15.5577 27.7676 15V12.8963C27.7676 12.3385 28.2177 11.8884 28.7754 11.8884H48.9907C49.5484 11.8884 49.9985 12.3385 49.9985 12.8963V15C49.9985 15.5577 49.5484 16.0078 48.9907 16.0078Z" fill="#61BDF6"/>
<path d="M31.4466 16.0078H28.7754C28.2177 16.0078 27.7676 15.5577 27.7676 15V12.8963C27.7676 12.3385 28.2177 11.8884 28.7754 11.8884H31.4466V16.0078Z" fill="#E1697F"/>
<path d="M35.5078 11.8884H39.2847V16.0078H35.5078V11.8884Z" fill="#6ACA8B"/>
<path d="M31.4473 11.8884H35.5177V16.0078H31.4473V11.8884Z" fill="#FAAB63"/>
<path d="M17.1334 16.7609H16.5952C16.1745 16.7609 15.8418 16.4184 15.8418 16.0075C15.8418 15.5867 16.1843 15.254 16.5952 15.254H17.1334C17.5541 15.254 17.8868 15.5965 17.8868 16.0075C17.8868 16.4282 17.5541 16.7609 17.1334 16.7609Z" fill="#5A5D9D"/>
<path d="M25.4504 14.7061H16.5952C16.1745 14.7061 15.8418 14.3637 15.8418 13.9527C15.8418 13.532 16.1843 13.1993 16.5952 13.1993H25.4504C25.8712 13.1993 26.2038 13.5417 26.2038 13.9527C26.2038 14.3637 25.8712 14.7061 25.4504 14.7061Z" fill="#5A5D9D"/>
<path d="M22.8379 12.642H16.605C16.1842 12.642 15.8516 12.2996 15.8516 11.8886C15.8516 11.4679 16.194 11.1352 16.605 11.1352H22.8379C23.2586 11.1352 23.5913 11.4777 23.5913 11.8886C23.5913 12.2996 23.2586 12.642 22.8379 12.642Z" fill="#5A5D9D"/>
<path d="M25.4499 12.642H24.853C24.4323 12.642 24.0996 12.2996 24.0996 11.8886C24.0996 11.4679 24.4421 11.1352 24.853 11.1352H25.4597C25.8804 11.1352 26.2131 11.4777 26.2131 11.8886C26.2033 12.2996 25.8706 12.642 25.4499 12.642Z" fill="#5A5D9D"/>
<path d="M25.4511 16.7609H19.2183C18.7975 16.7609 18.4648 16.4184 18.4648 16.0075C18.4648 15.5867 18.8073 15.254 19.2183 15.254H25.4511C25.8719 15.254 26.2046 15.5965 26.2046 16.0075C26.2144 16.4282 25.8719 16.7609 25.4511 16.7609Z" fill="#5A5D9D"/>
<path d="M25.2528 31.5756C25.0375 31.5756 24.8223 31.4778 24.6755 31.3114L23.6383 30.0981L22.6011 31.3114C22.425 31.5169 22.151 31.6147 21.8868 31.5658C21.6226 31.5169 21.3976 31.3212 21.3193 31.0668L19.9592 27.0159C19.8223 26.6245 20.0375 26.194 20.4387 26.057C20.8301 25.92 21.2606 26.1353 21.3976 26.5365L22.3271 29.3153L23.0708 28.4445C23.2176 28.2782 23.423 28.1803 23.6481 28.1803C23.8731 28.1803 24.0786 28.2782 24.2254 28.4445L24.969 29.3153L25.8986 26.5365C26.0258 26.1451 26.4563 25.9298 26.8575 26.057C27.2489 26.194 27.4641 26.6147 27.3369 27.0159L25.9866 31.057C25.8986 31.3114 25.6833 31.5071 25.4191 31.556C25.3506 31.5658 25.3017 31.5756 25.2528 31.5756Z" fill="#5A5D9D"/>
<path d="M33.6084 31.5759C33.3931 31.5759 33.1779 31.4781 33.0311 31.3118L31.9939 30.0985L30.9469 31.3118C30.7708 31.5172 30.4968 31.6151 30.2326 31.5662C29.9685 31.5172 29.7434 31.3215 29.6651 31.0671L28.3148 27.0261C28.1876 26.6347 28.3931 26.2041 28.7943 26.0671C29.1857 25.9302 29.6162 26.1454 29.7532 26.5466L30.6827 29.3255L31.4264 28.4546C31.5732 28.2883 31.7786 28.1904 32.0037 28.1904C32.2287 28.1904 32.4342 28.2883 32.581 28.4546L33.3344 29.3255L34.264 26.5466C34.3912 26.1552 34.8217 25.9399 35.2229 26.0671C35.6143 26.2041 35.8295 26.6249 35.7023 27.0261L34.352 31.0671C34.264 31.3215 34.0487 31.5172 33.7845 31.5662C33.7062 31.5662 33.6573 31.5759 33.6084 31.5759Z" fill="#5A5D9D"/>
<path d="M41.9657 31.5755C41.7504 31.5755 41.5351 31.4777 41.3884 31.3113L40.3512 30.098L39.3042 31.3113C39.1281 31.5168 38.8541 31.6147 38.5899 31.5657C38.3258 31.5168 38.1007 31.3211 38.0224 31.0667L36.6721 27.0256C36.5351 26.6342 36.7504 26.2037 37.1516 26.0667C37.543 25.9395 37.9735 26.145 38.1105 26.5462L39.04 29.325L39.7935 28.4542C39.9402 28.2879 40.1457 28.19 40.3708 28.19C40.5958 28.19 40.8013 28.2879 40.9481 28.4542L41.7015 29.325L42.631 26.5462C42.7582 26.1548 43.1888 25.9395 43.5899 26.0667C43.9813 26.2037 44.1966 26.6245 44.0694 27.0256L42.7191 31.0667C42.631 31.3211 42.4158 31.5168 42.1516 31.5657C42.0537 31.5657 42.0048 31.5755 41.9657 31.5755Z" fill="#5A5D9D"/>
<path d="M10.8501 31.3014C10.6544 31.3014 10.4685 31.2231 10.312 31.0764C10.0184 30.7828 10.0184 30.3034 10.312 30.0098L13.8051 26.5167C14.0987 26.2231 14.5781 26.2231 14.8716 26.5167C15.1652 26.8102 15.1652 27.2897 14.8716 27.5832L11.3785 31.0764C11.2317 31.2231 11.0458 31.3014 10.8501 31.3014Z" fill="#5A5D9D"/>
<path d="M14.0025 31.3014C13.8068 31.3014 13.6209 31.2231 13.4643 31.0764C13.1708 30.7828 13.1708 30.3034 13.4643 30.0098L16.9574 26.5167C17.251 26.2231 17.7304 26.2231 18.024 26.5167C18.3175 26.8102 18.3175 27.2897 18.024 27.5832L14.5308 31.0764C14.3938 31.2231 14.1982 31.3014 14.0025 31.3014Z" fill="#5A5D9D"/>
<path d="M46.0249 31.4878C45.6042 31.4878 45.2715 31.1454 45.2715 30.7344V30.6855C45.2715 30.2647 45.6139 29.9321 46.0249 29.9321C46.4456 29.9321 46.7783 30.2745 46.7783 30.6855V30.7344C46.7783 31.1454 46.4359 31.4878 46.0249 31.4878Z" fill="#5A5D9D"/>
</g>
<defs>
<clipPath id="clip0">
<rect width="50" height="50" fill="white"/>
</clipPath>
</defs>
</svg>
