<svg width="50" height="50" viewBox="0 0 50 50" fill="none" xmlns="http://www.w3.org/2000/svg">
<g clip-path="url(#clip0)">
<path d="M1.72852 0H48.2812C49.2383 0 50.0098 0.771484 50.0098 1.72852V48.2812C50.0098 49.2383 49.2383 50.0098 48.2812 50.0098H1.72852C0.771484 50 0 49.2285 0 48.2715V1.72852C0 0.771484 0.771484 0 1.72852 0Z" fill="#E0F4FF"/>
<path d="M15.5176 10.3414V26.7184H4.30664C3.82812 26.7184 3.44727 26.3278 3.44727 25.859V11.2106C3.44727 10.7321 3.83789 10.3512 4.30664 10.3512H15.5176V10.3414Z" fill="#FAAB63"/>
<path d="M50 1.72852V6.9043H0V1.72852C0 0.771484 0.771484 0 1.72852 0H48.2812C49.2285 0 50 0.771484 50 1.72852Z" fill="#61BDF6"/>
<path d="M6.03515 2.58789H4.30664C3.82812 2.58789 3.44727 2.97852 3.44727 3.44727C3.44727 3.91602 3.83789 4.30664 4.30664 4.30664H6.03515C6.51367 4.30664 6.89453 3.91602 6.89453 3.44727C6.89453 2.97852 6.51367 2.58789 6.03515 2.58789Z" fill="white"/>
<path d="M45.6934 2.58789H43.9648C43.4863 2.58789 43.1055 2.97852 43.1055 3.44727C43.1055 3.91602 43.4961 4.30664 43.9648 4.30664H45.6934C46.1719 4.30664 46.5527 3.91602 46.5527 3.44727C46.5527 2.97852 46.1621 2.58789 45.6934 2.58789Z" fill="white"/>
<path d="M37.0703 2.58789H12.9297C12.4512 2.58789 12.0703 2.97852 12.0703 3.44727C12.0703 3.91602 12.4609 4.30664 12.9297 4.30664H37.0703C37.5488 4.30664 37.9297 3.91602 37.9297 3.44727C37.9297 2.97852 37.5488 2.58789 37.0703 2.58789Z" fill="white"/>
<path d="M9.48243 12.9293C7.57813 12.9293 6.03516 14.4723 6.03516 16.3766C6.03516 16.8551 6.42578 17.236 6.89453 17.236C7.36328 17.236 7.75391 16.8453 7.75391 16.3766C7.75391 15.4196 8.52539 14.6481 9.48243 14.6481C10.4395 14.6481 11.2109 15.4196 11.2109 16.3766C11.2109 17.3336 10.4395 18.1051 9.48243 18.1051C9.25782 18.1051 9.03321 18.193 8.87696 18.359C8.71094 18.525 8.62305 18.7399 8.62305 18.9645V19.8239C8.62305 20.3024 9.01367 20.6832 9.48243 20.6832C9.95118 20.6832 10.3418 20.2926 10.3418 19.8239V19.7164C12.0215 19.2867 13.1152 17.6656 12.9004 15.9469C12.6856 14.2184 11.2207 12.9293 9.48243 12.9293Z" fill="white"/>
<path d="M10.0977 22.6657C9.85352 22.4215 9.48242 22.3532 9.16016 22.4801C9.05274 22.5192 8.95508 22.5875 8.87695 22.6657C8.79883 22.7536 8.74023 22.8414 8.69141 22.9489C8.64258 23.0465 8.62305 23.1637 8.62305 23.2809C8.62305 23.5739 8.75977 23.8375 9.00391 24.0036C9.24805 24.1598 9.55078 24.1891 9.81446 24.0817C9.92188 24.0426 10.0195 23.9743 10.0977 23.8961C10.3418 23.652 10.4199 23.2809 10.2832 22.9586C10.2344 22.8414 10.1758 22.7438 10.0977 22.6657Z" fill="white"/>
<path d="M46.5527 11.2106V25.8688C46.5527 26.3473 46.1621 26.7282 45.6934 26.7282H15.5176V10.3414H45.6934C46.1621 10.3414 46.5527 10.7321 46.5527 11.2106Z" fill="white"/>
<path d="M15.5176 30.1758V46.5527H4.30664C3.82812 46.5527 3.44727 46.1621 3.44727 45.6934V31.0352C3.44727 30.5566 3.83789 30.1758 4.30664 30.1758H15.5176Z" fill="#FAAB63"/>
<path d="M46.5527 31.0352V45.6934C46.5527 46.1719 46.1621 46.5527 45.6934 46.5527H15.5176V30.1758H45.6934C46.1621 30.1758 46.5527 30.5566 46.5527 31.0352Z" fill="white"/>
<path d="M18.9629 15.5178H21.5508C22.0293 15.5178 22.4102 15.1271 22.4102 14.6584C22.4102 14.1896 22.0195 13.799 21.5508 13.799H18.9629C18.4844 13.799 18.1035 14.1896 18.1035 14.6584C18.1035 15.1271 18.4844 15.5178 18.9629 15.5178Z" fill="#61BDF6"/>
<path d="M18.9629 19.8248H31.0332C31.5117 19.8248 31.8926 19.4341 31.8926 18.9654C31.8926 18.4966 31.502 18.106 31.0332 18.106H18.9629C18.4844 18.106 18.1035 18.4966 18.1035 18.9654C18.1035 19.4341 18.4844 19.8248 18.9629 19.8248Z" fill="#61BDF6"/>
<path d="M34.4824 19.8248H38.7891C39.2676 19.8248 39.6484 19.4341 39.6484 18.9654C39.6484 18.4966 39.2578 18.106 38.7891 18.106H34.4824C34.0039 18.106 33.623 18.4966 33.623 18.9654C33.623 19.4341 34.0039 19.8248 34.4824 19.8248Z" fill="#61BDF6"/>
<path d="M42.2461 19.8248H43.1055C43.584 19.8248 43.9648 19.4341 43.9648 18.9654C43.9648 18.4966 43.5742 18.106 43.1055 18.106H42.2461C41.7676 18.106 41.3867 18.4966 41.3867 18.9654C41.3867 19.4341 41.7676 19.8248 42.2461 19.8248Z" fill="#61BDF6"/>
<path d="M26.7285 21.5526H18.9746C18.4961 21.5526 18.1152 21.9432 18.1152 22.4119C18.1152 22.8807 18.5059 23.2713 18.9746 23.2713H26.7285C27.207 23.2713 27.5879 22.8807 27.5879 22.4119C27.5879 21.9432 27.1973 21.5526 26.7285 21.5526Z" fill="#61BDF6"/>
<path d="M36.2109 21.5526H30.1758C29.6973 21.5526 29.3164 21.9432 29.3164 22.4119C29.3164 22.8807 29.707 23.2713 30.1758 23.2713H36.2109C36.6895 23.2713 37.0703 22.8807 37.0703 22.4119C37.0703 21.9432 36.6797 21.5526 36.2109 21.5526Z" fill="#61BDF6"/>
<path d="M43.1055 21.5526H39.6582C39.1797 21.5526 38.7988 21.9432 38.7988 22.4119C38.7988 22.8807 39.1895 23.2713 39.6582 23.2713H43.1055C43.584 23.2713 43.9648 22.8807 43.9648 22.4119C43.9648 21.9432 43.584 21.5526 43.1055 21.5526Z" fill="#61BDF6"/>
<path d="M9.48198 32.7545C8.6812 32.7545 7.98784 33.3013 7.80229 34.0826L6.04448 42.9302C5.95659 43.399 6.25932 43.8482 6.71831 43.9459C7.17729 44.0435 7.63627 43.731 7.73393 43.272L8.27104 40.5181H10.6734L11.2203 43.272C11.2984 43.6724 11.6499 43.9654 12.0601 43.9654C12.1187 43.9654 12.1773 43.9556 12.2261 43.9459C12.4507 43.897 12.646 43.7701 12.773 43.5845C12.8999 43.399 12.9488 43.1646 12.8999 42.94L11.1324 34.0338C10.9468 33.272 10.2632 32.7545 9.48198 32.7545ZM8.61284 38.7896L9.46245 34.4244L10.3316 38.7896H8.61284Z" fill="white"/>
<path d="M18.9629 35.342H21.5508C22.0293 35.342 22.4102 34.9514 22.4102 34.4826C22.4102 34.0139 22.0195 33.6232 21.5508 33.6232H18.9629C18.4844 33.6232 18.1035 34.0139 18.1035 34.4826C18.1035 34.9514 18.4844 35.342 18.9629 35.342Z" fill="#61BDF6"/>
<path d="M18.9629 39.6582H25.8574C26.3359 39.6582 26.7168 39.2676 26.7168 38.7988C26.7168 38.3203 26.3262 37.9395 25.8574 37.9395H18.9629C18.4844 37.9395 18.1035 38.3301 18.1035 38.7988C18.1035 39.2676 18.4844 39.6582 18.9629 39.6582Z" fill="#61BDF6"/>
<path d="M37.0684 38.7896C37.0684 38.565 36.9805 38.3404 36.8145 38.1841C36.6484 38.0181 36.4336 37.9302 36.209 37.9302H29.3145C28.8359 37.9302 28.4551 38.3209 28.4551 38.7896C28.4551 39.2681 28.8457 39.649 29.3145 39.649H36.209C36.4336 39.649 36.6582 39.5611 36.8145 39.3951C36.9805 39.2388 37.0684 39.024 37.0684 38.7896Z" fill="#61BDF6"/>
<path d="M39.6582 39.6582H43.1055C43.584 39.6582 43.9648 39.2676 43.9648 38.7988C43.9648 38.3203 43.5742 37.9395 43.1055 37.9395H39.6582C39.1797 37.9395 38.7988 38.3301 38.7988 38.7988C38.7988 39.2676 39.1797 39.6582 39.6582 39.6582Z" fill="#61BDF6"/>
<path d="M28.4453 41.3768H18.9629C18.4844 41.3768 18.1035 41.7675 18.1035 42.2362C18.1035 42.705 18.4941 43.0956 18.9629 43.0956H28.4453C28.9238 43.0956 29.3047 42.705 29.3047 42.2362C29.3047 41.7675 28.9238 41.3768 28.4453 41.3768Z" fill="#61BDF6"/>
<path d="M32.7539 41.3768H31.8945C31.416 41.3768 31.0352 41.7675 31.0352 42.2362C31.0352 42.705 31.4258 43.0956 31.8945 43.0956H32.7539C33.2324 43.0956 33.6133 42.705 33.6133 42.2362C33.6133 41.7675 33.2324 41.3768 32.7539 41.3768Z" fill="#61BDF6"/>
<path d="M43.7105 41.6307C43.3687 41.3084 42.8413 41.3084 42.4995 41.6307C42.4214 41.7186 42.3628 41.8065 42.314 41.9139C42.2261 42.119 42.2261 42.3631 42.314 42.5682C42.353 42.6756 42.4214 42.7733 42.4995 42.8514C42.8413 43.1834 43.3784 43.1834 43.7105 42.8514C43.8765 42.6951 43.9741 42.4705 43.9644 42.2361C43.9644 42.119 43.9351 42.0115 43.896 41.9041C43.8569 41.8065 43.7886 41.7088 43.7105 41.6307Z" fill="#61BDF6"/>
<path d="M39.6582 41.3768H36.2109C35.7324 41.3768 35.3516 41.7675 35.3516 42.2362C35.3516 42.705 35.7422 43.0956 36.2109 43.0956H39.6582C40.1367 43.0956 40.5176 42.705 40.5176 42.2362C40.5176 41.7675 40.127 41.3768 39.6582 41.3768Z" fill="#61BDF6"/>
</g>
<defs>
<clipPath id="clip0">
<rect width="50" height="50" fill="white"/>
</clipPath>
</defs>
</svg>
