<svg width="50" height="50" viewBox="0 0 50 50" fill="none" xmlns="http://www.w3.org/2000/svg">
<g clip-path="url(#clip0)">
<path d="M49.9695 47.9188C49.9695 48.5461 49.7604 49.0639 49.3422 49.4822C48.9239 49.7909 48.5057 50 47.8883 50H2.11056C1.59273 50 1.07491 49.7909 0.656662 49.4822C0.238419 49.0639 0.0292969 48.5461 0.0292969 47.9188V17.4268H49.9795L49.9695 47.9188Z" fill="#FAAB63"/>
<path d="M49.3437 49.4723C48.9255 49.7811 48.5072 49.9902 47.8898 49.9902H2.1121C1.59427 49.9902 1.07645 49.7811 0.658203 49.4723L25.0059 28.5602L49.3437 49.4723Z" fill="#FFB876"/>
<path d="M49.9695 17.4272L42.8893 22.5257L26.3488 34.3859C25.5123 35.0133 24.3671 35.0133 23.5405 34.3859L7.0996 22.5257L0.0292969 17.4272L7.10956 12.3286L22.5049 1.30487L23.6501 0.468388C24.4866 -0.158977 25.6318 -0.158977 26.4583 0.468388L27.6035 1.30487L34.9925 6.61258L38.6371 9.21167L42.8992 12.3286L49.9695 17.4272Z" fill="#61BDF6"/>
<path d="M42.8993 7.74781V22.5257L26.3488 34.3859C25.5123 35.0133 24.3671 35.0133 23.5406 34.3859L7.09961 22.5257V3.38613C7.09961 2.24094 8.03568 1.30487 9.18087 1.30487H36.3368L42.8993 7.74781Z" fill="#E0F4FF"/>
<path d="M36.4473 6.08479C36.4473 7.02086 37.1742 7.74781 38.1103 7.74781H42.9002L36.4473 1.30487V6.08479Z" fill="white"/>
<path d="M32.451 17.3818C31.983 17.0432 31.4452 16.9237 30.9075 17.0731C30.3299 17.2224 29.832 17.6606 29.5731 18.2481C29.1748 19.1543 29.354 19.9908 29.5233 20.7377C29.5731 20.9767 29.6229 21.1957 29.6528 21.4248C29.7623 22.1716 29.6528 22.9185 29.3839 23.3069C29.354 23.3567 29.3142 23.3965 29.2743 23.4463C29.2644 23.5558 29.2544 23.6654 29.2445 23.7749C29.2246 24.1633 29.1648 24.5317 29.0752 24.8603C29.0652 24.9101 29.0453 24.9599 29.0254 25.0097C29.5532 24.8205 30.0113 24.472 30.3498 23.9741C31.0071 23.0181 30.8776 21.6538 30.8179 21.2555C30.778 20.9866 30.7282 20.7277 30.6685 20.4887C30.5291 19.8414 30.3996 19.2838 30.6486 18.7261C30.7581 18.4772 30.9772 18.278 31.2062 18.2182C31.3855 18.1685 31.6245 18.1585 31.744 18.3377C31.8734 18.517 31.7539 18.8058 31.7539 18.8058C31.4651 19.4929 32.451 20.0107 32.8294 19.3734C32.8294 19.3634 32.8394 19.3634 32.8394 19.3535C33.1779 18.7659 33.1182 17.8797 32.451 17.3818Z" fill="white"/>
<path d="M32.451 17.9294C31.983 17.5908 31.4452 17.4713 30.9075 17.6207C30.3299 17.7701 29.832 18.2083 29.5731 18.7958C29.1748 19.702 29.354 20.5385 29.5233 21.2853C29.5731 21.5243 29.6229 21.7434 29.6528 21.9724C29.7623 22.7193 29.6528 23.4662 29.3839 23.8545C29.354 23.9043 29.3142 23.9442 29.2743 23.994C29.2644 24.1035 29.2544 24.213 29.2445 24.3226C29.2246 24.7109 29.1648 25.0794 29.0752 25.408C29.0652 25.4578 29.0453 25.5076 29.0254 25.5574C29.5532 25.3682 30.0113 25.0196 30.3498 24.5217C31.0071 23.5658 30.8776 22.2015 30.8179 21.8032C30.778 21.5343 30.7282 21.2754 30.6685 21.0364C30.5291 20.3891 30.3996 19.8314 30.6486 19.2738C30.7581 19.0248 30.9772 18.8257 31.2062 18.7659C31.3855 18.7161 31.6245 18.7062 31.744 18.8854C31.8734 19.0647 31.7539 19.3534 31.7539 19.3534C31.4651 20.0406 32.451 20.5584 32.8294 19.9211C32.8294 19.9111 32.8394 19.9111 32.8394 19.9011C33.1779 19.3136 33.1182 18.4273 32.451 17.9294Z" fill="#61BDF6"/>
<path d="M28.5879 25.9462C28.787 25.6275 28.9563 25.259 29.0758 24.8508C29.1754 24.5221 29.2252 24.1537 29.2451 23.7653C29.3547 22.9488 29.2352 22.0724 28.9663 21.2061C28.8966 20.9571 28.8169 20.738 28.7373 20.5588C28.2393 19.3339 27.4726 18.1887 26.6759 17.3821C26.4469 17.1531 26.2278 16.8643 25.9988 16.5357C25.2917 16.695 24.5349 16.7747 23.7382 16.7747C22.7723 16.7747 21.8562 16.6552 21.0197 16.4261C20.7608 16.7946 20.5118 17.1332 20.2628 17.3921C18.5799 19.085 16.9966 22.3313 17.9127 24.6516C17.9326 24.7213 18.2513 25.6275 18.4604 25.9561C17.9725 26.0657 17.4049 26.3843 17.4347 27.3104H29.6235C29.6434 26.3744 29.0758 26.0557 28.5879 25.9462Z" fill="#61BDF6"/>
<path d="M29.8031 27.4197C29.8031 26.6231 29.2156 25.9858 28.4886 25.9858C28.1301 25.9858 27.8115 26.1451 27.5725 26.394C27.4829 26.5036 27.4132 26.633 27.3534 26.8023C27.3534 26.7824 27.3534 26.7625 27.3534 26.7426C27.3534 25.9459 26.6862 25.2986 25.8597 25.2986C25.1626 25.2986 24.585 25.7567 24.4157 26.3741C24.3859 25.7966 24.3759 24.9103 24.4257 23.546C24.1967 23.307 23.9378 23.1676 23.649 23.1676C23.4797 23.1676 23.1511 23.2871 22.9917 23.3767C22.9619 24.2431 22.9519 25.2688 22.932 26.165C22.683 25.6571 22.1254 25.2986 21.4681 25.2986C20.6217 25.2986 19.9346 25.8961 19.8748 26.643C19.6358 26.2546 19.2375 25.9957 18.7695 25.9957C18.411 25.9957 18.0923 26.155 17.8533 26.404C17.6741 26.633 17.5446 26.9617 17.5645 27.4396H20.064H20.0939H22.8722H24.5153C24.5253 27.4297 24.5253 27.4098 24.5153 27.3699C24.5253 27.3899 24.5352 27.4197 24.5552 27.4396H27.1841C27.224 27.36 27.2638 27.2803 27.2937 27.1907C27.2837 27.2704 27.2837 27.35 27.2837 27.4396L29.8031 27.4197Z" fill="#FFEDF0"/>
<path d="M23.7373 16.785C22.7116 16.785 21.7357 16.6555 20.8594 16.3867C21.1382 17.1036 22.2834 17.6414 23.6477 17.6414C24.9721 17.6414 26.0874 17.1335 26.4061 16.4364C25.5895 16.6655 24.6833 16.785 23.7373 16.785Z" fill="#E1697F"/>
<path d="M30.1702 9.73431C29.8017 8.83808 29.2839 7.85222 28.5669 6.44811C28.3179 5.96016 27.591 6.1892 27.5113 6.64728L27.1927 8.45967C26.1769 8.40987 25.0019 8.46962 23.7372 8.46962C22.4725 8.46962 21.2974 8.40987 20.2817 8.45967L19.973 6.64728C19.8933 6.1892 19.1664 5.96016 18.9174 6.44811C18.2004 7.84226 17.6926 8.82812 17.3142 9.7144C17.0652 10.1426 16.9258 10.7102 16.9258 11.4571C16.9258 14.9922 19.973 16.7747 23.7372 16.7747C27.5014 16.7747 30.5486 15.0022 30.5486 11.4571C30.5486 10.7202 30.4092 10.1625 30.1702 9.73431Z" fill="#61BDF6"/>
<path d="M19.2773 15.6791C20.4723 16.416 22.0358 16.7745 23.7486 16.7745C25.4016 16.7745 26.9053 16.4359 28.0903 15.7488C27.8812 13.568 25.9892 11.8651 23.6789 11.8651C21.3984 11.8751 19.5263 13.5381 19.2773 15.6791Z" fill="#FFEDF0"/>
<path d="M23.5394 19.1548C24.1058 19.1548 24.5651 18.6956 24.5651 18.1291C24.5651 17.5627 24.1058 17.1035 23.5394 17.1035C22.9729 17.1035 22.5137 17.5627 22.5137 18.1291C22.5137 18.6956 22.9729 19.1548 23.5394 19.1548Z" fill="#FFEDF0"/>
<path d="M32.5604 17.2428C32.0526 16.8644 31.4451 16.7449 30.8675 16.9042C30.2402 17.0735 29.6925 17.5515 29.4136 18.1789C28.9854 19.1448 29.1747 20.0112 29.3439 20.7779C29.3937 21.007 29.4435 21.226 29.4734 21.4451C29.5331 21.8733 29.5232 22.3015 29.4435 22.6501C29.4037 22.1721 29.3041 21.6841 29.1348 21.1663C29.0651 20.8974 28.9755 20.6784 28.8958 20.4891C28.4079 19.2942 27.6511 18.1191 26.7947 17.2727C26.6752 17.1532 26.5357 16.9938 26.3963 16.8046C26.4461 16.7349 26.4959 16.6752 26.5258 16.6055C26.9341 16.486 27.3125 16.3565 27.671 16.1872C27.7606 16.1474 27.8004 16.0378 27.7606 15.9482C27.7208 15.8586 27.6112 15.8188 27.5216 15.8586C27.1332 16.0378 26.715 16.1872 26.2669 16.3067C26.237 16.3167 26.2171 16.3167 26.1872 16.3266C26.0876 16.3565 25.9781 16.3764 25.8685 16.3963C25.759 16.4163 25.6594 16.4362 25.5499 16.4561C25.4901 16.466 25.4204 16.476 25.3607 16.486C25.2511 16.5059 25.1416 16.5158 25.0221 16.5258C24.9623 16.5358 24.8926 16.5457 24.8329 16.5457C24.7134 16.5557 24.5839 16.5656 24.4644 16.5756C24.4147 16.5756 24.3649 16.5855 24.3151 16.5855C24.2952 16.5855 24.2852 16.5855 24.2653 16.5855C24.096 16.5955 23.9167 16.5955 23.7375 16.5955C23.618 16.5955 23.4885 16.5955 23.369 16.5855C23.3292 16.5855 23.2794 16.5855 23.2396 16.5756C23.1599 16.5756 23.0803 16.5656 23.0105 16.5656C22.9608 16.5656 22.911 16.5557 22.8612 16.5557C22.7915 16.5457 22.7317 16.5457 22.662 16.5358C22.6122 16.5258 22.5525 16.5258 22.5027 16.5158C22.4429 16.5059 22.3732 16.5059 22.3135 16.4959C22.2637 16.486 22.2039 16.476 22.1541 16.476C22.0944 16.466 22.0346 16.4561 21.9749 16.4461C21.9251 16.4362 21.8753 16.4262 21.8156 16.4163C21.7558 16.4063 21.6961 16.3963 21.6363 16.3764C21.5865 16.3665 21.5367 16.3565 21.4869 16.3465C21.4272 16.3366 21.3675 16.3167 21.3077 16.3067C21.2579 16.2968 21.2181 16.2868 21.1683 16.2669C21.0886 16.247 21.009 16.227 20.9293 16.1972C19.1169 15.6395 17.8522 14.5242 17.3543 13.0006H17.6829C17.7825 13.0006 17.8622 12.9209 17.8622 12.8214C17.8622 12.7218 17.7825 12.6421 17.6829 12.6421H17.2547C17.2049 12.4131 17.1651 12.184 17.1452 11.945H17.6929C17.7925 11.945 17.8721 11.8654 17.8721 11.7658C17.8721 11.6662 17.7925 11.5865 17.6929 11.5865H17.1253C17.1253 11.5467 17.1253 11.5069 17.1253 11.467C17.1253 11.2579 17.1352 11.0687 17.1551 10.8895H17.6929C17.7925 10.8895 17.8721 10.8098 17.8721 10.7102C17.8721 10.6106 17.7925 10.531 17.6929 10.531H17.2149C17.2746 10.2621 17.3643 10.0231 17.4838 9.82395C17.4838 9.81399 17.4937 9.81399 17.4937 9.80403C17.8522 8.93767 18.3501 7.98168 19.0372 6.64729L19.087 6.54771C19.1767 6.36846 19.3459 6.36846 19.4455 6.37842C19.6049 6.39834 19.7741 6.51783 19.804 6.68712L20.1127 8.49951C20.1326 8.58913 20.2123 8.65884 20.3019 8.64888C20.6405 8.62897 20.989 8.62897 21.3675 8.62897C21.4869 9.58495 21.7459 10.2422 22.0446 10.2422C22.3434 10.2422 22.6023 9.58495 22.7218 8.63892C22.8413 8.63892 22.9508 8.63892 23.0703 8.63892C23.1002 10.0629 23.4188 11.1882 23.8172 11.1882C24.2055 11.1882 24.5341 10.0629 24.564 8.63892C24.6835 8.63892 24.7931 8.63892 24.9126 8.63892C25.0321 9.58495 25.291 10.2422 25.5897 10.2422C25.8885 10.2422 26.1474 9.57499 26.2669 8.62897C26.5855 8.62897 26.8942 8.63892 27.193 8.64888C27.2826 8.65884 27.3623 8.58913 27.3822 8.49951L27.6909 6.68712C27.7208 6.51783 27.9 6.39834 28.0494 6.37842C28.139 6.36846 28.3083 6.36846 28.4079 6.54771L28.4577 6.65725C29.1448 7.99164 29.6427 8.95759 30.0012 9.82395C30.0012 9.8339 30.0111 9.8339 30.0111 9.84386C30.1306 10.043 30.2203 10.282 30.28 10.5409H29.812C29.7124 10.5409 29.6327 10.6206 29.6327 10.7202C29.6327 10.8198 29.7124 10.8994 29.812 10.8994H30.3497C30.3696 11.0787 30.3796 11.2679 30.3796 11.477C30.3796 11.5168 30.3796 11.5567 30.3796 11.5965H29.8219C29.7224 11.5965 29.6427 11.6762 29.6427 11.7757C29.6427 11.8753 29.7224 11.955 29.8219 11.955H30.3696C30.3497 12.194 30.3099 12.423 30.2601 12.6521H29.8219C29.7224 12.6521 29.6427 12.7317 29.6427 12.8313C29.6427 12.9309 29.7224 13.0106 29.8219 13.0106H30.1605C29.9813 13.5881 29.6925 14.106 29.2942 14.564C29.2244 14.6437 29.2344 14.7532 29.3141 14.8229C29.3937 14.8927 29.5033 14.8827 29.573 14.803C30.0311 14.2752 30.3497 13.6778 30.5489 13.0106H31.3256C31.4252 13.0106 31.5049 12.9309 31.5049 12.8313C31.5049 12.7317 31.4252 12.6521 31.3256 12.6521H30.6385C30.6883 12.423 30.7281 12.194 30.748 11.955H31.3356C31.4352 11.955 31.5148 11.8753 31.5148 11.7757C31.5148 11.6762 31.4352 11.5965 31.3356 11.5965H30.768C30.768 11.5567 30.768 11.5168 30.768 11.477C30.768 11.2778 30.758 11.0787 30.7381 10.8994H31.3356C31.4352 10.8994 31.5148 10.8198 31.5148 10.7202C31.5148 10.6206 31.4352 10.5409 31.3356 10.5409H30.6783C30.6086 10.2123 30.509 9.92353 30.3597 9.67457C29.9912 8.79825 29.4933 7.83231 28.8062 6.48796L28.7564 6.37842C28.617 6.10955 28.3382 5.97013 28.0195 6.01993C27.6809 6.06972 27.4021 6.32863 27.3523 6.62737L27.0735 8.28043C26.466 8.26051 25.7988 8.27047 25.0918 8.28043C24.2354 8.30035 23.3093 8.30035 22.4529 8.28043C21.7459 8.27047 21.0787 8.26051 20.4712 8.28043L20.1526 6.61742C20.1028 6.30871 19.8239 6.05976 19.4854 6.00997C19.1767 5.96018 18.8879 6.09959 18.7485 6.36846L18.6987 6.46804C18.0115 7.80244 17.5136 8.76838 17.1452 9.6447C16.9958 9.90361 16.8863 10.1924 16.8265 10.531H16.1792C16.0797 10.531 16 10.6106 16 10.7102C16 10.8098 16.0797 10.8895 16.1792 10.8895H16.7767C16.7568 11.0687 16.7469 11.2579 16.7469 11.467C16.7469 11.5069 16.7469 11.5467 16.7469 11.5865H16.1792C16.0797 11.5865 16 11.6662 16 11.7658C16 11.8654 16.0797 11.945 16.1792 11.945H16.7668C16.7867 12.184 16.8166 12.4131 16.8664 12.6421H16.1792C16.0797 12.6421 16 12.7218 16 12.8214C16 12.9209 16.0797 13.0006 16.1792 13.0006H16.9659C17.4639 14.6736 18.7982 15.9084 20.7301 16.5258C20.5011 16.8445 20.3119 17.0735 20.1326 17.2527C18.5493 18.846 16.7568 22.2119 17.7427 24.7015C17.7825 24.8209 18.0016 25.4384 18.1908 25.8267C17.5535 26.0458 17.2249 26.5636 17.2448 27.2906C17.2448 27.3902 17.3244 27.4698 17.424 27.4698H29.6128C29.7124 27.4698 29.7921 27.3902 29.7921 27.2906C29.812 26.5636 29.4834 26.0458 28.856 25.8267C28.9755 25.6076 29.085 25.3686 29.1647 25.1297C29.6925 24.9205 30.1506 24.5521 30.4891 24.0641C31.1862 23.0584 31.0468 21.6244 30.987 21.2161C30.9472 20.9373 30.8875 20.6684 30.8377 20.4294C30.6983 19.7921 30.5887 19.2842 30.8078 18.7863C30.8974 18.5871 31.0667 18.4278 31.246 18.378C31.3455 18.3481 31.5148 18.3282 31.5945 18.4278C31.6443 18.5075 31.6144 18.6568 31.5845 18.7265C31.3953 19.1747 31.6343 19.583 31.9729 19.7423C32.2816 19.9016 32.7297 19.8717 32.9787 19.4535L32.9886 19.4336C33.367 18.7963 33.3073 17.7905 32.5604 17.2428ZM23.5383 17.8403C23.4388 17.8403 23.3591 17.9199 23.3591 18.0195V18.9456C22.9807 18.866 22.7018 18.5274 22.7018 18.1291C22.7018 17.671 23.0803 17.2926 23.5383 17.2926C23.9964 17.2926 24.3748 17.671 24.3748 18.1291C24.3748 18.5274 24.096 18.866 23.7176 18.9456V18.0195C23.7176 17.9199 23.6379 17.8403 23.5383 17.8403ZM23.0305 16.944C23.0404 16.944 23.0504 16.944 23.0703 16.944C23.0902 16.944 23.1201 16.944 23.14 16.944C23.1898 16.944 23.2296 16.944 23.2794 16.954C23.0205 17.0137 22.7915 17.1532 22.6222 17.3424C22.0546 17.2129 21.5766 16.9839 21.2878 16.6851C21.8255 16.8146 22.4131 16.9042 23.0305 16.944ZM23.8172 16.964C23.9765 16.964 24.1358 16.964 24.2952 16.954H24.3051C24.3947 16.954 24.4844 16.944 24.574 16.9341C24.6636 16.9241 24.7532 16.9241 24.8329 16.9142C24.8429 16.9142 24.8429 16.9142 24.8528 16.9142C24.9524 16.9042 25.052 16.8942 25.1516 16.8743C25.2213 16.8644 25.291 16.8544 25.3607 16.8445C25.3706 16.8445 25.3806 16.8445 25.3806 16.8445C25.4802 16.8345 25.5698 16.8146 25.6594 16.7947C25.7291 16.7847 25.7988 16.7747 25.8685 16.7548C25.8785 16.7548 25.8885 16.7548 25.8984 16.7449C25.8984 16.7548 25.9084 16.7548 25.9084 16.7648C25.5798 17.0536 25.0619 17.2727 24.4545 17.3822C24.3151 17.1731 24.086 17.0237 23.8172 16.964ZM29.4336 27.1213H27.5216C27.5813 26.8723 27.5614 26.474 27.5216 25.9064C27.4519 24.8608 27.3623 23.4168 27.7606 21.963C27.7905 21.8634 27.7307 21.7638 27.6311 21.7339C27.5316 21.704 27.432 21.7638 27.4021 21.8634C26.9839 23.387 27.0834 24.9106 27.1531 25.9263C27.183 26.4242 27.2229 26.9819 27.1432 27.1014C27.1332 27.1014 27.1332 27.1014 27.1233 27.1014H26.1573V26.4342C26.1573 26.3346 26.0777 26.2549 25.9781 26.2549C25.8785 26.2549 25.7988 26.3346 25.7988 26.4342V27.1014H25.4204V26.4342C25.4204 26.3346 25.3408 26.2549 25.2412 26.2549C25.1416 26.2549 25.0619 26.3346 25.0619 26.4342V27.1014H24.8229C24.6337 27.1014 24.4844 26.952 24.4844 26.7628V22.5505C24.4844 22.4509 24.4047 22.3712 24.3051 22.3712C24.2055 22.3712 24.1259 22.4509 24.1259 22.5505V26.7628C24.1259 26.8922 24.1657 27.0217 24.2254 27.1213H22.8612C22.9209 27.0117 22.9608 26.8922 22.9608 26.7628V22.5505C22.9608 22.4509 22.8811 22.3712 22.7815 22.3712C22.6819 22.3712 22.6023 22.4509 22.6023 22.5505V26.7628C22.6023 26.952 22.4529 27.1014 22.2637 27.1014H22.0247V26.4342C22.0247 26.3346 21.945 26.2549 21.8454 26.2549C21.7459 26.2549 21.6662 26.3346 21.6662 26.4342V27.1014H21.2878V26.4342C21.2878 26.3346 21.2081 26.2549 21.1085 26.2549C21.009 26.2549 20.9293 26.3346 20.9293 26.4342V27.1014H19.9633C19.9633 27.1014 19.9534 27.1014 19.9434 27.1014C19.8638 26.9819 19.9036 26.4242 19.9335 25.9263C20.0032 24.9106 20.1028 23.377 19.6845 21.8634C19.6546 21.7638 19.5551 21.704 19.4555 21.7339C19.3559 21.7638 19.2962 21.8634 19.326 21.963C19.7244 23.4268 19.6347 24.8608 19.565 25.9064C19.5252 26.484 19.5053 26.8723 19.565 27.1213H17.6531C17.6929 26.5835 17.9817 26.2549 18.5393 26.1354C18.5393 26.1354 18.848 26.0757 19.0472 26.2549C19.087 26.2848 19.1269 26.3047 19.1767 26.3047C19.2264 26.3047 19.2762 26.2848 19.3061 26.245C19.3758 26.1753 19.3758 26.0558 19.2962 25.9861C19.0671 25.767 18.7684 25.7471 18.5991 25.757C18.4099 25.3985 18.151 24.6815 18.131 24.6019C18.131 24.5919 18.131 24.582 18.1211 24.582C17.195 22.2418 18.9078 19.0452 20.4314 17.5216C20.6007 17.3523 20.7799 17.1332 20.989 16.8544C21.3077 17.2229 21.8255 17.5117 22.4628 17.671C22.4031 17.8104 22.3732 17.9697 22.3732 18.1291C22.3732 18.7963 22.911 19.334 23.5782 19.334C24.2454 19.334 24.7831 18.7963 24.7831 18.1291C24.7831 17.9896 24.7532 17.8502 24.7134 17.7208C25.3109 17.5913 25.8287 17.3623 26.1972 17.0536C26.3366 17.2328 26.466 17.3922 26.5955 17.5117C27.4121 18.3382 28.149 19.4734 28.617 20.6286C28.617 20.6385 28.627 20.6385 28.627 20.6485C28.7066 20.8078 28.7763 21.0169 28.846 21.2559C29.095 22.0327 29.1946 22.7596 29.1448 23.4368C29.1448 23.4567 29.1448 23.4866 29.1348 23.5065C29.1249 23.5861 29.1249 23.6658 29.1049 23.7455C29.085 24.1438 29.0253 24.4923 28.9456 24.7911C28.9456 24.801 28.9357 24.811 28.9357 24.8209C28.9257 24.8508 28.9157 24.8807 28.9058 24.9006L28.8958 24.9305C28.7962 25.2193 28.6767 25.4881 28.5274 25.7471C28.3979 25.7271 28.0195 25.6973 27.7307 25.9661C27.661 26.0358 27.6511 26.1553 27.7208 26.225C27.7606 26.2649 27.8004 26.2848 27.8502 26.2848C27.8901 26.2848 27.9398 26.2649 27.9797 26.235C28.1788 26.0558 28.4776 26.1155 28.4875 26.1155C28.5174 26.1255 28.5473 26.1155 28.5772 26.1056C28.5772 26.1056 28.5871 26.1056 28.5871 26.1155C29.095 26.2549 29.3937 26.5835 29.4336 27.1213ZM32.6799 19.2742C32.5405 19.5132 32.3115 19.5033 32.1521 19.4236C31.9729 19.334 31.8335 19.1249 31.9331 18.8759C31.953 18.8361 32.0824 18.4876 31.9032 18.2286C31.7538 18.0195 31.4949 17.9498 31.1663 18.0394C30.8775 18.1191 30.6186 18.3481 30.4891 18.6469C30.2203 19.2543 30.3497 19.8717 30.4991 20.519C30.5489 20.758 30.6086 21.007 30.6485 21.2758C30.6983 21.6542 30.8277 22.9687 30.2103 23.865C29.9713 24.2135 29.6726 24.4923 29.3141 24.6815V24.6716C29.3141 24.6517 29.324 24.6317 29.324 24.6118C29.334 24.5521 29.3539 24.4824 29.3639 24.4226C29.3639 24.3927 29.3738 24.3629 29.3738 24.343C29.3838 24.2832 29.3937 24.2235 29.3937 24.1538C29.3937 24.1239 29.4037 24.104 29.4037 24.0741C29.4137 23.9845 29.4236 23.8948 29.4236 23.8052C29.4236 23.7753 29.4336 23.7355 29.4336 23.7056C29.4435 23.6459 29.4435 23.5861 29.4535 23.5264C29.4834 23.4965 29.5033 23.4567 29.5331 23.4268C29.8319 22.9886 29.9514 22.2219 29.8319 21.4153C29.802 21.1862 29.7522 20.9572 29.6925 20.7182C29.5331 20.0012 29.3539 19.1946 29.7323 18.3481C29.9713 17.8204 30.4194 17.422 30.9472 17.2826C31.4252 17.1532 31.9132 17.2527 32.3314 17.5614C32.9289 17.9598 32.9787 18.7465 32.6799 19.2742Z" fill="#5A5D9D"/>
<path d="M21.3868 11.3574C21.3868 11.0487 21.1378 10.7997 20.8291 10.7997C20.5204 10.7997 20.2715 11.0487 20.2715 11.3574C20.2715 11.6661 20.5204 11.9151 20.8291 11.9151C21.1378 11.9151 21.3868 11.6661 21.3868 11.3574Z" fill="#5A5D9D"/>
<path d="M27.2931 11.3574C27.2931 11.0487 27.0441 10.7997 26.7354 10.7997C26.4267 10.7997 26.1777 11.0487 26.1777 11.3574C26.1777 11.6661 26.4267 11.9151 26.7354 11.9151C27.0441 11.9051 27.2931 11.6661 27.2931 11.3574Z" fill="#5A5D9D"/>
<path d="M22.5136 14.6936C23.0414 14.6936 23.4995 14.4048 23.7384 13.9766C23.9774 14.4048 24.4355 14.6936 24.9633 14.6936C25.74 14.6936 26.3674 14.0662 26.3674 13.2895C26.3674 13.1899 26.2877 13.1103 26.1882 13.1103C26.0886 13.1103 26.0089 13.1899 26.0089 13.2895C26.0089 13.8671 25.5409 14.3351 24.9633 14.3351C24.4754 14.3351 24.077 14.0065 23.9575 13.5584C24.4156 13.5285 24.7641 13.419 24.7641 13.2895C24.7641 13.1401 24.3061 13.0206 23.7384 13.0206C23.1708 13.0206 22.7128 13.1401 22.7128 13.2895C22.7128 13.419 23.0613 13.5285 23.5194 13.5584C23.3999 14.0065 22.9916 14.3351 22.5136 14.3351C21.936 14.3351 21.468 13.8671 21.468 13.2895C21.468 13.1899 21.3883 13.1103 21.2887 13.1103C21.1892 13.1103 21.1095 13.1899 21.1095 13.2895C21.0995 14.0662 21.7369 14.6936 22.5136 14.6936Z" fill="#5A5D9D"/>
<path d="M28.7468 15.0719C28.5975 15.2014 28.4381 15.3109 28.2688 15.4304C28.1892 15.4902 28.1593 15.5997 28.219 15.6794C28.2589 15.7292 28.3087 15.7591 28.3684 15.7591C28.3983 15.7591 28.4381 15.7491 28.468 15.7292C28.6473 15.6097 28.8165 15.4802 28.9759 15.3508C29.0555 15.291 29.0655 15.1715 28.9958 15.0919C28.936 15.0222 28.8165 15.0122 28.7468 15.0719Z" fill="#5A5D9D"/>
</g>
<defs>
<clipPath id="clip0">
<rect width="50" height="50" fill="white"/>
</clipPath>
</defs>
</svg>
